<mxfile host="Electron" agent="Mozilla/5.0 (Windows NT 10.0; Win64; x64) AppleWebKit/537.36 (KHTML, like Gecko) draw.io/27.0.9 Chrome/134.0.6998.205 Electron/35.4.0 Safari/537.36" version="27.0.9">
  <diagram name="PÃ¡gina-1" id="zQjjP_EeiTSpy_okXXAl">
    <mxGraphModel dx="946" dy="1830" grid="1" gridSize="10" guides="1" tooltips="1" connect="1" arrows="1" fold="1" page="1" pageScale="1" pageWidth="827" pageHeight="1169" math="0" shadow="0">
      <root>
        <mxCell id="0" />
        <mxCell id="1" parent="0" />
        <mxCell id="Ykq9LLcvOGBbbRnmgweH-1" value="Provedor" style="whiteSpace=wrap;html=1;align=center;fillColor=#f0a30a;strokeColor=#BD7000;fontColor=#000000;" parent="1" vertex="1">
          <mxGeometry x="314" y="330" width="100" height="40" as="geometry" />
        </mxCell>
        <mxCell id="Ykq9LLcvOGBbbRnmgweH-2" value="Pieza" style="whiteSpace=wrap;html=1;align=center;fillColor=#f0a30a;strokeColor=#BD7000;fontColor=#000000;" parent="1" vertex="1">
          <mxGeometry x="630" y="330" width="100" height="40" as="geometry" />
        </mxCell>
        <mxCell id="Ykq9LLcvOGBbbRnmgweH-3" value="Prove" style="shape=rhombus;perimeter=rhombusPerimeter;whiteSpace=wrap;html=1;align=center;fillColor=#76608a;fontColor=#ffffff;strokeColor=#432D57;" parent="1" vertex="1">
          <mxGeometry x="460" y="330" width="90" height="40" as="geometry" />
        </mxCell>
        <mxCell id="Ykq9LLcvOGBbbRnmgweH-4" value="" style="endArrow=none;html=1;rounded=0;exitX=0;exitY=0.5;exitDx=0;exitDy=0;" parent="1" source="Ykq9LLcvOGBbbRnmgweH-3" edge="1">
          <mxGeometry relative="1" as="geometry">
            <mxPoint x="427" y="320" as="sourcePoint" />
            <mxPoint x="410" y="350" as="targetPoint" />
          </mxGeometry>
        </mxCell>
        <mxCell id="Ykq9LLcvOGBbbRnmgweH-5" value="(1,M)" style="resizable=0;html=1;whiteSpace=wrap;align=right;verticalAlign=bottom;" parent="Ykq9LLcvOGBbbRnmgweH-4" connectable="0" vertex="1">
          <mxGeometry x="1" relative="1" as="geometry">
            <mxPoint x="34" as="offset" />
          </mxGeometry>
        </mxCell>
        <mxCell id="Ykq9LLcvOGBbbRnmgweH-6" value="" style="endArrow=none;html=1;rounded=0;exitX=1;exitY=0.5;exitDx=0;exitDy=0;entryX=0;entryY=0.5;entryDx=0;entryDy=0;" parent="1" source="Ykq9LLcvOGBbbRnmgweH-3" target="Ykq9LLcvOGBbbRnmgweH-2" edge="1">
          <mxGeometry relative="1" as="geometry">
            <mxPoint x="427" y="320" as="sourcePoint" />
            <mxPoint x="600" y="350" as="targetPoint" />
          </mxGeometry>
        </mxCell>
        <mxCell id="Ykq9LLcvOGBbbRnmgweH-7" value="(1,N)" style="resizable=0;html=1;whiteSpace=wrap;align=right;verticalAlign=bottom;" parent="Ykq9LLcvOGBbbRnmgweH-6" connectable="0" vertex="1">
          <mxGeometry x="1" relative="1" as="geometry">
            <mxPoint as="offset" />
          </mxGeometry>
        </mxCell>
        <mxCell id="Ykq9LLcvOGBbbRnmgweH-8" value="" style="endArrow=none;html=1;rounded=0;exitX=0.411;exitY=0.125;exitDx=0;exitDy=0;exitPerimeter=0;" parent="1" source="Ykq9LLcvOGBbbRnmgweH-3" target="Ykq9LLcvOGBbbRnmgweH-9" edge="1">
          <mxGeometry relative="1" as="geometry">
            <mxPoint x="470" y="275" as="sourcePoint" />
            <mxPoint x="530" y="275" as="targetPoint" />
          </mxGeometry>
        </mxCell>
        <mxCell id="Ykq9LLcvOGBbbRnmgweH-9" value="Fecha" style="ellipse;whiteSpace=wrap;html=1;align=center;" parent="1" vertex="1">
          <mxGeometry x="500" y="290" width="50" height="30" as="geometry" />
        </mxCell>
        <mxCell id="Ykq9LLcvOGBbbRnmgweH-10" value="" style="endArrow=none;html=1;rounded=0;" parent="1" source="Ykq9LLcvOGBbbRnmgweH-3" target="Ykq9LLcvOGBbbRnmgweH-11" edge="1">
          <mxGeometry relative="1" as="geometry">
            <mxPoint x="480" y="435" as="sourcePoint" />
            <mxPoint x="540" y="435" as="targetPoint" />
          </mxGeometry>
        </mxCell>
        <mxCell id="Ykq9LLcvOGBbbRnmgweH-11" value="Cantidades" style="ellipse;whiteSpace=wrap;html=1;align=center;" parent="1" vertex="1">
          <mxGeometry x="440" y="420" width="50" height="30" as="geometry" />
        </mxCell>
        <mxCell id="Ykq9LLcvOGBbbRnmgweH-12" value="Categoria" style="whiteSpace=wrap;html=1;align=center;fillColor=#f0a30a;strokeColor=#BD7000;fontColor=#000000;" parent="1" vertex="1">
          <mxGeometry x="880" y="330" width="100" height="40" as="geometry" />
        </mxCell>
        <mxCell id="Ykq9LLcvOGBbbRnmgweH-13" value="Existe" style="shape=rhombus;perimeter=rhombusPerimeter;whiteSpace=wrap;html=1;align=center;fillColor=#76608a;fontColor=#ffffff;strokeColor=#432D57;" parent="1" vertex="1">
          <mxGeometry x="760" y="330" width="90" height="40" as="geometry" />
        </mxCell>
        <mxCell id="Ykq9LLcvOGBbbRnmgweH-14" value="" style="endArrow=none;html=1;rounded=0;exitX=0;exitY=0.5;exitDx=0;exitDy=0;" parent="1" source="Ykq9LLcvOGBbbRnmgweH-13" edge="1">
          <mxGeometry relative="1" as="geometry">
            <mxPoint x="717" y="320" as="sourcePoint" />
            <mxPoint x="720" y="350" as="targetPoint" />
          </mxGeometry>
        </mxCell>
        <mxCell id="Ykq9LLcvOGBbbRnmgweH-15" value="(1,1)" style="resizable=0;html=1;whiteSpace=wrap;align=right;verticalAlign=bottom;" parent="Ykq9LLcvOGBbbRnmgweH-14" connectable="0" vertex="1">
          <mxGeometry x="1" relative="1" as="geometry">
            <mxPoint x="34" as="offset" />
          </mxGeometry>
        </mxCell>
        <mxCell id="Ykq9LLcvOGBbbRnmgweH-16" value="" style="endArrow=none;html=1;rounded=0;exitX=1;exitY=0.5;exitDx=0;exitDy=0;" parent="1" source="Ykq9LLcvOGBbbRnmgweH-13" edge="1">
          <mxGeometry relative="1" as="geometry">
            <mxPoint x="717" y="320" as="sourcePoint" />
            <mxPoint x="890" y="350" as="targetPoint" />
          </mxGeometry>
        </mxCell>
        <mxCell id="Ykq9LLcvOGBbbRnmgweH-17" value="(1,1)" style="resizable=0;html=1;whiteSpace=wrap;align=right;verticalAlign=bottom;" parent="Ykq9LLcvOGBbbRnmgweH-16" connectable="0" vertex="1">
          <mxGeometry x="1" relative="1" as="geometry">
            <mxPoint as="offset" />
          </mxGeometry>
        </mxCell>
        <mxCell id="Ykq9LLcvOGBbbRnmgweH-18" value="" style="endArrow=none;html=1;rounded=0;" parent="1" source="Ykq9LLcvOGBbbRnmgweH-2" target="Ykq9LLcvOGBbbRnmgweH-19" edge="1">
          <mxGeometry relative="1" as="geometry">
            <mxPoint x="650" y="435" as="sourcePoint" />
            <mxPoint x="710" y="435" as="targetPoint" />
          </mxGeometry>
        </mxCell>
        <mxCell id="Ykq9LLcvOGBbbRnmgweH-19" value="&lt;u&gt;Codigo&lt;/u&gt;" style="ellipse;whiteSpace=wrap;html=1;align=center;" parent="1" vertex="1">
          <mxGeometry x="750" y="390" width="50" height="30" as="geometry" />
        </mxCell>
        <mxCell id="Ykq9LLcvOGBbbRnmgweH-21" value="" style="endArrow=none;html=1;rounded=0;" parent="1" source="Ykq9LLcvOGBbbRnmgweH-2" target="Ykq9LLcvOGBbbRnmgweH-22" edge="1">
          <mxGeometry relative="1" as="geometry">
            <mxPoint x="610" y="425" as="sourcePoint" />
            <mxPoint x="670" y="425" as="targetPoint" />
          </mxGeometry>
        </mxCell>
        <mxCell id="Ykq9LLcvOGBbbRnmgweH-22" value="Nombre" style="ellipse;whiteSpace=wrap;html=1;align=center;" parent="1" vertex="1">
          <mxGeometry x="700" y="410" width="50" height="30" as="geometry" />
        </mxCell>
        <mxCell id="Ykq9LLcvOGBbbRnmgweH-24" value="" style="endArrow=none;html=1;rounded=0;exitX=0.25;exitY=1;exitDx=0;exitDy=0;" parent="1" source="Ykq9LLcvOGBbbRnmgweH-2" target="Ykq9LLcvOGBbbRnmgweH-25" edge="1">
          <mxGeometry relative="1" as="geometry">
            <mxPoint x="610" y="425" as="sourcePoint" />
            <mxPoint x="670" y="425" as="targetPoint" />
          </mxGeometry>
        </mxCell>
        <mxCell id="Ykq9LLcvOGBbbRnmgweH-25" value="Precio" style="ellipse;whiteSpace=wrap;html=1;align=center;" parent="1" vertex="1">
          <mxGeometry x="645" y="410" width="50" height="30" as="geometry" />
        </mxCell>
        <mxCell id="Ykq9LLcvOGBbbRnmgweH-26" value="" style="endArrow=none;html=1;rounded=0;exitX=0.13;exitY=0.975;exitDx=0;exitDy=0;exitPerimeter=0;" parent="1" source="Ykq9LLcvOGBbbRnmgweH-2" target="Ykq9LLcvOGBbbRnmgweH-27" edge="1">
          <mxGeometry relative="1" as="geometry">
            <mxPoint x="610" y="420" as="sourcePoint" />
            <mxPoint x="625" y="475" as="targetPoint" />
          </mxGeometry>
        </mxCell>
        <mxCell id="Ykq9LLcvOGBbbRnmgweH-27" value="Color" style="ellipse;whiteSpace=wrap;html=1;align=center;" parent="1" vertex="1">
          <mxGeometry x="595" y="410" width="50" height="30" as="geometry" />
        </mxCell>
        <mxCell id="Ykq9LLcvOGBbbRnmgweH-28" value="" style="endArrow=none;html=1;rounded=0;exitX=0.5;exitY=0;exitDx=0;exitDy=0;" parent="1" source="Ykq9LLcvOGBbbRnmgweH-2" target="Ykq9LLcvOGBbbRnmgweH-29" edge="1">
          <mxGeometry relative="1" as="geometry">
            <mxPoint x="645" y="275" as="sourcePoint" />
            <mxPoint x="705" y="275" as="targetPoint" />
          </mxGeometry>
        </mxCell>
        <mxCell id="Ykq9LLcvOGBbbRnmgweH-29" value="Categoria" style="ellipse;whiteSpace=wrap;html=1;align=center;" parent="1" vertex="1">
          <mxGeometry x="680" y="260" width="50" height="30" as="geometry" />
        </mxCell>
        <mxCell id="Ykq9LLcvOGBbbRnmgweH-30" value="" style="endArrow=none;html=1;rounded=0;" parent="1" source="Ykq9LLcvOGBbbRnmgweH-12" target="Ykq9LLcvOGBbbRnmgweH-31" edge="1">
          <mxGeometry relative="1" as="geometry">
            <mxPoint x="990" y="355" as="sourcePoint" />
            <mxPoint x="1050" y="355" as="targetPoint" />
          </mxGeometry>
        </mxCell>
        <mxCell id="Ykq9LLcvOGBbbRnmgweH-31" value="Nombre" style="ellipse;whiteSpace=wrap;html=1;align=center;" parent="1" vertex="1">
          <mxGeometry x="1025" y="340" width="50" height="30" as="geometry" />
        </mxCell>
        <mxCell id="Ykq9LLcvOGBbbRnmgweH-32" value="" style="endArrow=none;html=1;rounded=0;" parent="1" source="Ykq9LLcvOGBbbRnmgweH-12" target="Ykq9LLcvOGBbbRnmgweH-33" edge="1">
          <mxGeometry relative="1" as="geometry">
            <mxPoint x="1008" y="315" as="sourcePoint" />
            <mxPoint x="1068" y="315" as="targetPoint" />
          </mxGeometry>
        </mxCell>
        <mxCell id="Ykq9LLcvOGBbbRnmgweH-33" value="&lt;u&gt;Codigo_De_Categoria&lt;/u&gt;" style="ellipse;whiteSpace=wrap;html=1;align=center;" parent="1" vertex="1">
          <mxGeometry x="1030" y="290" width="50" height="30" as="geometry" />
        </mxCell>
        <mxCell id="Ykq9LLcvOGBbbRnmgweH-34" value="" style="endArrow=none;html=1;rounded=0;exitX=0.25;exitY=1;exitDx=0;exitDy=0;" parent="1" source="Ykq9LLcvOGBbbRnmgweH-1" target="Ykq9LLcvOGBbbRnmgweH-35" edge="1">
          <mxGeometry relative="1" as="geometry">
            <mxPoint x="230" y="435" as="sourcePoint" />
            <mxPoint x="290" y="435" as="targetPoint" />
          </mxGeometry>
        </mxCell>
        <mxCell id="Ykq9LLcvOGBbbRnmgweH-35" value="&lt;u&gt;Codigo_De_Provedor&lt;/u&gt;" style="ellipse;whiteSpace=wrap;html=1;align=center;" parent="1" vertex="1">
          <mxGeometry x="300" y="420" width="50" height="30" as="geometry" />
        </mxCell>
        <mxCell id="Ykq9LLcvOGBbbRnmgweH-36" value="" style="endArrow=none;html=1;rounded=0;exitX=0;exitY=0.75;exitDx=0;exitDy=0;" parent="1" source="Ykq9LLcvOGBbbRnmgweH-1" target="Ykq9LLcvOGBbbRnmgweH-37" edge="1">
          <mxGeometry relative="1" as="geometry">
            <mxPoint x="170" y="385" as="sourcePoint" />
            <mxPoint x="230" y="385" as="targetPoint" />
          </mxGeometry>
        </mxCell>
        <mxCell id="Ykq9LLcvOGBbbRnmgweH-37" value="Nombre" style="ellipse;whiteSpace=wrap;html=1;align=center;" parent="1" vertex="1">
          <mxGeometry x="240" y="400" width="50" height="30" as="geometry" />
        </mxCell>
        <mxCell id="Ykq9LLcvOGBbbRnmgweH-38" value="" style="endArrow=none;html=1;rounded=0;" parent="1" source="Ykq9LLcvOGBbbRnmgweH-1" target="Ykq9LLcvOGBbbRnmgweH-39" edge="1">
          <mxGeometry relative="1" as="geometry">
            <mxPoint x="170" y="375" as="sourcePoint" />
            <mxPoint x="230" y="375" as="targetPoint" />
          </mxGeometry>
        </mxCell>
        <mxCell id="Ykq9LLcvOGBbbRnmgweH-39" value="Provincia" style="ellipse;whiteSpace=wrap;html=1;align=center;" parent="1" vertex="1">
          <mxGeometry x="205" y="370" width="50" height="30" as="geometry" />
        </mxCell>
        <mxCell id="Ykq9LLcvOGBbbRnmgweH-40" value="" style="endArrow=none;html=1;rounded=0;" parent="1" source="Ykq9LLcvOGBbbRnmgweH-1" target="Ykq9LLcvOGBbbRnmgweH-41" edge="1">
          <mxGeometry relative="1" as="geometry">
            <mxPoint x="155" y="350" as="sourcePoint" />
            <mxPoint x="215" y="350" as="targetPoint" />
          </mxGeometry>
        </mxCell>
        <mxCell id="Ykq9LLcvOGBbbRnmgweH-41" value="Direccion" style="ellipse;whiteSpace=wrap;html=1;align=center;" parent="1" vertex="1">
          <mxGeometry x="190" y="335" width="50" height="30" as="geometry" />
        </mxCell>
        <mxCell id="Ykq9LLcvOGBbbRnmgweH-42" value="" style="endArrow=none;html=1;rounded=0;" parent="1" source="Ykq9LLcvOGBbbRnmgweH-1" target="Ykq9LLcvOGBbbRnmgweH-43" edge="1">
          <mxGeometry relative="1" as="geometry">
            <mxPoint x="155" y="305" as="sourcePoint" />
            <mxPoint x="215" y="305" as="targetPoint" />
          </mxGeometry>
        </mxCell>
        <mxCell id="Ykq9LLcvOGBbbRnmgweH-43" value="Ciudad" style="ellipse;whiteSpace=wrap;html=1;align=center;" parent="1" vertex="1">
          <mxGeometry x="180" y="300" width="50" height="30" as="geometry" />
        </mxCell>
        <mxCell id="Ewi0R4bB4IkRN1vKea7X-1" value="" style="shape=image;verticalLabelPosition=bottom;labelBackgroundColor=default;verticalAlign=top;aspect=fixed;imageAspect=0;image=data:image/png,iVBORw0KGgoAAAANSUhEUgAAAvgAAAFHCAYAAADUVjjeAAAAAXNSR0IArs4c6QAAAARnQU1BAACxjwv8YQUAAAAJcEhZcwAADsMAAA7DAcdvqGQAAP+lSURBVHhe7N15XJTV/gfwDzPDvoiaC6KCimOYG0LuOym33DPFq6mYYtwKl9RyKUXUyLpmaaVYbrlg/DKvK5gai4iAKMgmGCKL7AwDssgyz/P9/THDNswCiqZ03q9Xr3t91vOc8z3f58wz5xl0iIjAMAzDMAzDMEyrIFBewDAMwzAMwzDMy4sN8BmGYRiGYRimFWEDfIZhGIZhGIZpRdgAn2EYhmEYhmFaETbAZxiGYRiGYZhWhA3wGYZhGIZhGKYVYQN8hmEYhmEYhmlF2ACfYRiGYRiGYVoRNsBnGIZhGIZhmFaEDfAZhmEYhmEYphVhA3yGYRiGYRiGaUXYAJ9hGIZhGIZhWhE2wGcYhmEYhmGYVoQN8BmGYRiGYRimFWEDfIZhGIZhGIZpRdgAn2EYhmEYhmFaETbAZxiGYRiGYZhWhA3wGYZhGIZhGKYVYQN85m/Dl6QgNrkIvPIKhmEYhmEY5om13ABflomb/9uHj2eOwaiRIzFy9DQsWbsO6z5ZjY9cZmDCqFEYM/9HJMgU25eHYPOITmhjNQP7Ejmlg7UgPgMnF/dB2/Z2WOVXqLxWCY+Mk4vRp2172K3yg7atNanMvI5DG96Bw/C1CK5quI7L8MOWdybj3yuWY86bs+Hpn4Gm10A5ki7/DI/FkzBq5CiMcZyKWbNmYMZsV3x+4Dqya+r3RcZl4M+dLhjS4zU470/Ey1BkhmEYhmGYl0XLDfBFlnh9xmJM65aJsNBQhN6UYfiGL/HlVzvx/eGT+Hnlq5AmpKOk5nFtRSaSkgtQkp2E+5KmD2+bjZfir/gMFEtTkPDgkZaBNA/pX/HIKJYiJeEBHmneWCU+NwInv3bDeLuxWOJ1CnfylUb3VdHwmj0HX2SPxdZvvsEng5OwbfYceEUpbaeWEfpMXIq1UzsiKfwuun/4fzh16iS+XWiEiysmYNi/j+D+E5T7uRJ2wwR3V4xtTyDldQzDMAzDMMxTabkBPgBAB7q6Iug0WFaJ3JxyWL/9BT5906xuXTtnHLx1C9ejg+A1Uq/BHi1KNAAbL0UhNDwKv31gDaHy+gZEGLDxEqJCwxH12wew1ryxSoJOQzB37Q84sNIeIuWVAMqv/IB9kWUQde6KLkIRelp3haD0Jvb9cBnlyhtrIDJvAxMdQF6hBrCeuh2fv90WD0974ruQpn5Y+BsJzWFu1jBSGIZhGIZhmKfXwgN8Fapu4ujR26gWdMR098WwFQHgi5EU4o+guGwUpSfir8L6s7BLcPfifny5dQf2X0hAMQCgHKnhl+Dn5wc//yDESziUJZ3H914/4Ep6zePqYiT5H8BXWzZj255TiJLwADhk3bqES2EpkBb8hbvplXWnKU6C/4GvsGXzNuw5FQUJD3BZt3DpUhhSpAX462466rbmIbnzP+z12gLPrw/CP6lEy7xxHZiZGit90AGAKkRdDUYuB+jpyT/U6OmJAHDIvfYnah7i8/lhOLJjB46E5Ws5T30G6NHDAkJegtxcxaSX8nTEJuaDq8jCnYhEFNY+2ecgTYnEteAwJObVfBjgUXg3GP5+fvDz84N/SBKKeQAlybh+yQ9+/iFIKqopTTmyYq8jMPgW0mq/kqmhaR0gK0xGRFAwojIeK68CAHDSFEReC0ZYYh6UP6aUp8ciMZ9DRdYdRCQW1n0bU56F2OuBCL6VVvcNEQDwRbgfHoRr0ekolmQhu6zeOoZhGIZhmFbq2Q7wiUPuuQP4PUU+4DS1sICpAICgDaw6xGLH25Px1pTF2BtTLd+eS4PvkiEYsz0bE1yG4O6nIzF6+QXk8Ubo3DYOX8+ajLemLMA3x77GtNEzsHzDKqz+KQbgM/H7shEY6ZGOUW+3ReD6ORgxahUuFwvRqXspTrpOxVtvTcP6sxLwAPjM37FsxEh4pI/C220DsX7OCIxadRmlnbqj9KQrpr71FqatPwsJDwAy3DvkDPvhKxFm44LFfULx0eD+eMc7vt4HgKYqx7176eCgA6FICAEAHR15E3AZyUh+DACVCNjsjCXr1mHJ7M9xtakn4fNw83YqOKPBGG5XjLCDKzDeRoyJHvuw451RGDF8CBYflQBFYfjWxRnrfGORnnQWq0f3hZNnAPJ5AYzb6yPxxyWYOn07bpt3gbEAgFEnmETsws5IEdoZCcBn+2Or62p4B8Xg5q+rMUo8BhuvKOpVwzqgHLH7F8Bp6QFEZybj3AZ3eN+rP5eoCGHfusB5nS9i05NwdvVo9HXyREA+Dz4vDAdXjIeNeCI89u3AO6NGYPiQxTgq4ZHtvxWuq70RFHMTv64eBfGYjbgi4YGqGOx2cceJDBkqEg5i/rB38HMqm+3PMAzDMMw/ALWoSgr5WEwigCCyoUkLJlIvIxFZuvpRhfKmZT70jokOQdiT3AMqiIijPJ851FGgR2N3pRJHj+nCEgsS6g2hbXEyosenaUF7AUHHkKze3kM3bx+nlTOdyevaI5KeXkSWQl16fWs8yWR3acdIQ9LRG0LbE2RE1THkYa9LgB5N2JNJHEnp9CJLEuq+TlvjZSS7u4NGGuqQ3pDtlCCrphgPe9IFSG/CHsrkiLjsIzSzvYB02syhX0tJXo5XBKTT5k3yTueUr0qBo4e7x5MeQKJeyymosmZxKn0zRo8AAb2y4DQ9JqKyX6aTPkDQG0+7H3JEJKPUYwtI3KYNid89Sg9kSodWqLj6AVmLjGn4qqN0+vRx2rn0dWrf5lWauz+WHhMRcWm0a5weGfZfQX/kSSn+ij/dkUjo4vtisl0ZJN+GiMpCVpOtngXNPZlDHBFVx26l1w0tafGZIvkGXBYd+nAt+ZUQEZdLPvPH07owxQVxabRrrB7p2m2iqEoN66qJykLW0oCei+mMVHHi0vO0xFKXXl17gyqJSHrxfRLbrqSguoLRals9sph7knI4Ii5tF43TM6T+K/6gPGk8XfG/Q/nZPjR//DqqO+UuGqunS3aboqgsdA31G/Qphckrg3KOb6M98dWKgzMMwzAMw7Rez+4JvrA3Zn97EX96z0IXlWdRfsGyAtfOXUEBzyM7YA82rNsEn5jHoOo43LxVf3a6EIOmzYeD3Tzs+v0k1o0SIvD3C8jmdGBsagId4atYfToS18N/x2pbFZPoywPx+4VscDrGMDXRgfDV1TgdeR3hv6+Gqs1L/jyDq4U8BG3ao50IgI4ZzEx0QI+uwS/wkfLmmgkMYWgg/786OvIJPDyvmFOiow8DAwEAIazm/4KkoiIkHX1Xy3sAerDsOwCW7Tph4IK9uJkWBx/XfjCA4lx6Apg5OGJ0B3P0dXTCAFzATyczYDPQTr4NAKOhzpghLsD5E34oAiDquwRub5TjtLcvMnmAu+eD8E5zMMFEXnen/TNx7/xOeHl5wWvHcTx28oDnQnsYalqHUvjvPYyU/uMw3lxxYoMesLaoubhCnPvpJDJsBsKurmBwniFGwfkT8CsCBIaG0BOYwcFxNDqY94Wj0wAYBJ+Gf+Y9nN/pBS8vL+w4/hhOHp5YaG8IkaUYVmnfYNqYRfjiVDx0nTfio76q3opgGIZhGIZpXVQOvVuMjgjd53yI2T1rBlblSE3JVtqoRinyCkrBQwftRyzD9i+/wtEIKTi+DP9baFq3maANOnU2qrdfGXJzS8CDR35ODmQAhB36YvggS+jX26pWWS5yS3iAz0dOjgyAEB36DscgS1Vb83iUX4gKAnT09KCng5q3WgGqQpHkUTPmyANAG1h17wBhvYE9x8n/V/hKN3QzUdpcKx3otxfj9TGOcBxjjx5tlD4NKL0EwOWm42E5j6qqirqFImtYWQpQVSTFIx6AwAJz3GbBNMAbB+LKEHHyPvrNt4MeAL4kH5LH+rCdsRbr16+v/W/dymno/Vj9uj46GUj8qwgQilQHHJeL9Ifl4KuqUFcyEaytLCGoKoL0kbyOGl4Oj5J8CR7r22LG2rrzrV+/Diun9YFe9yU4enkfnE2DsH3OYPQZsQKna9/XYBiGYRiGab1UjrdalN4QLFw4GLoA+KxTOHQmV3kLBWN0aG8MATgkRkYqXq5VRQBBg3GsMTp3NoMAHJKDA5GqbQxn3BmdzQQAl4zgwFQtP5spQLvuXdFGABDPgycAqEBlNQCBKbp0a9/MCtSF/Uh7mOgQqiqr5PPWeR6ADkxeH4XXaz5j8EVIjojA/eLmfXzQRtilN3qZcYiPvFX3iz18FSqrBOg60A4WiosxmeQGF3E8Dn3jCZ/isZjbU17hArMusDBKhO+Bq5DWHpVDit8FxBmpXxfDtcMr7USoiLuFaKV3CojnAWEX9O5lBi4+EnVf1vCoqqyCoOtA2NUUrAEBzLpYwCjRFweu1p0RXAr8LsSgMiMOD7u5YPfVRMSf24AB6Xvhvv3KE7w3wTAMwzAM83JRNXJ6KrVTTkiG6ioegD46dW4HQWks9n3giTttrRRb6ig9kTXEmGkT8YqAR9GFnfAKlIAHj6yLu3EkqgpAzQCbh0zxTq6cESY4z0A3IVAZ/iO2/p4JDkD53Qvwi68CQKgtEs8BRhPgPKMbhKhE+I9b8XsmB6Acdy/4Ib5KMeCUbwwOgPHERZjdQwQqzEVuNYCKAkiKeQi7zsC/3zCuX5B6CBUVVSAAVF2Fqtq5SAJ0nOGKd7oLUSnJRxHPQVr0CLywG95ZMg3tAQAy3NwyAQOGDcMAR09EqnsvtLIK1VSNykoNHwIIkFXXO0CbKVju1h/SU7twMEn+GzV8zmUEZozE8g9G133jIbLDkmWjITlxCjR1iqJcAIwnYvG8Hkj1dsa4+Z742fcUjngtxaehxujZRsM6vQ6YumAKXkk5gFUbziO9CqhMu424PA7SzDTkFOtiynI39Jeewq6DSfJfz+FzcDkwAyOXf4DRioIRZKh/OcYTF2Nej1R4O4/DfM+f4XvqCLyWfopQ457QyfDFV963UQ4DWL+1AZ/PtoaRvoHylxoMwzAMwzCtj/Kk/CdW/ZAi/reXlvQ3IB2AIGhDA95eTp98uoaWL5lJw7sbk46oFy0PVLwRWfYrzWlT/yVbIpKl0W//GUTmQh3SMehAfYZMpPf2RNAjKqOk35bSa7o6BB196r/0GEVL6r3gyuXRlc/HUmddHdLRbUu97MfT7E3nKZ2TUerl9TS2rYAAIXWZ8hVdz+aIy7tCn4/tTLo6OqTbthfZj59Nm86nU1XqZVo/ti0JABJ2mUJfXc8mIo4Kr22nSd0taMwnh+jQmtHUubsTbQuSkMpXbB/9Rdf+9xN9NLQNCQDS0bWh2V/70rX7ZYoNOJIEbqJxNmPo48MH6aNhvchxSyDVXU4lhW8cSAY6OmRo9zlFNHovtIwSrxwkj2lWJNIRUucJa2nf+VhSvBIrx0nots96esNCSEJLJ9roE0kFNcevTqWzG6eRvd04muv6H3pvgRt9E5Tb+Fqkv9OSKZ50R/n8ZQl0zH0C2bTVJz2z7jRy2WGKq7k0Tes4KUX84ELDrNqSubUDTf3Ig5YM60HD531Gh25kE1E1pZ7dSNPs7WjcXFf6z3sLyO2bIMrliDjJbfJZ/wZZCIVk6bSRfCILastblnCM3CfYUFt9PTLrPpKWHY6jMiKqvL6BRvQaRG+4fEIenuto2TIvuprT6CoZhmEYhmFaHR0i+nv+mGjF73jXcjaOP+qJlX/GY9fomj92xaH4QRTupMvQ0dYOr3ZUNTdetbKMaNy+X4a2Yjv061J/nr4qZciIvo37ZW0htusHrZtX5iLhVgJydTrjNXtbdHzKv83Fl6ThdlQahNb2sOuu9E0AL8W9m/cg6PM6bMxb/EsWhmEYhmEYphV7/gP88gh8s+x76C6fh7tzpmBvlh08o8Lw+Wsafy6GYRiGYRiGYZgmaLEBfs3PPjJPp4Wag2EYhmEYhvmHYvM/GIZhGIZhGKYVabEn+AzDMAzDMAzD/P3YE3yGYRiGYRiGaUXYAJ9hGIZhGIZhWhE2wGcYhmEYhmGYVoQN8BmGYRiGYRimFWEDfIZhGIZhGIZpRdgAn2EYhmEYhmFaETbAZxiGYRiGYZhWhA3wGYZhGIZhGKYVYQN8hmEYhmEYhmlF2ACfYRiGYRiGYVoRNsBnGIZhGIZhmFaEDfAZhmEYhmEYphVhA3yGYRiGYRiGaUXYAJ9hGIZhGIZhWhE2wGcYhmEYhmGYVoQN8BmGYRiGYRimFWEDfIZhGIZhGIZpRdgAn2EYhmEYhmFaETbAZxiGYRiGYZhWhA3wGYZhGIZhGKYVYQP8VoFHSUoskot4xb/LkBZ1BxkVSpv9o3GQ3ovFgzLl5X8jvgQpscmobban0ZLH+htw0nuIfaEa58XCl6QgNrkIL2nz1sNy1dN6ulioQGbsXeQ+2c5qlaVF4U5LNmJZGqLuZKAFj/gUnjxG+eJURIbcQFzOE+z8nLV4GzJ/u5Yb4PO5+PXDcRg1ZgImvfkW3nKagDGjRmP8pLfw1ltOmDBmFEZP2YaQKuUdmafBZfyJnS5D0OM1Z+xPlAEA+NT9WDh8BFyP5DzhTUChKgXnvvwYqzyP4mY+D3CZiIrKAqe83QuOS/sTOxcORo8BS3A87UUoPYeMP3fCZUgPvOa8H4pme0Iteay/AZeGP3cuxOAeA7DkeNpLF1vPHJeBP3e6YEiP1+C8PxEvW/PW90xz1T/BU8UCj6KoY/jY0QY241r4PsynYv/C4RjhegQ5LdKIPFL3L8TwEa440jIHfCpPFqMcHvh+Arcd53DjzGdwEvfHu0cfKG/04tDQhpXXNmJEnzFY45/XjOtnXgQtN8AnCR5IbbD8iB/+8LuI/30+CLnhd9BhyW+4ePES/vjNC46UjuzmZSVGC2G3CXB3HYv2RLXLBNbL8MuNUPy0qPNTNDCP/DPH8KdMD+m/umP0wJH4t+snOJVhBKHypi84odUEfLR4NNqiro7+XkJ0m+AO17HtUa/ZntATHIvPx63I+y/GYFpohQkfLcbotnhhWueFIuyGCe6uGNueXvr6eXa56h/iqWJBAHO7eVg1Xdz0PNFUAmss++UGQn9ahM4t0ogCWC/7BTdCf8Kiljkg+PxbiLz/ZBnvSWKUzz2B1avi8foad7jv8MUva4fBVFapvNmLQ20bVuHW2T+A2dvx+b86Nvn6mRdDC7aXCHaL1uDtHvrKKwAAoo6jsebj6XhFeQXz1ITm5jDTqb/EGFZ2A9HNoP6yJ2A3D59t+BKnbsfg8o55GD3lU6yeYq681UtBaGwK4xaM9qcnhLm5GRo02xNr3rHKwr/DpsP3mvkE8BkSGsP0xWqcF4vQHOYNO/hL65nlqn+Kp4oFAcxMjZucJ5rD2MoOA1uyEY2tYDewG1rmiGUI/24TDt970ozX/BitCruCkDJjmBkAELSH4+dHsXfxq8qbvVBUtiGXjrSun+DEltFo03AN8xJoubuqUAwnp1chUl5ej4njZIw3qvt3eVYsrgcG41ZaSYOvfsrSY5Ek4YGqXMSHhiIhr3HHVLdveUYM7ubyAFeElMhQRKXXzOutQm5CKELuZDWe18dJkRJ5DcFhichT/uqSL8L98CBci05HsSQL2VqmCZdlxiAk+Abu5lWiKjcFqSU8sqMvw9/PD/7XElHEA1zWLVzy84PfpTA8KK+/dzmyYq8jMPgW0kq0fRkmQ2FyBIKCo5DxWHkdUJEZg4R637XxRfcRHnQN0enFkGRlo8FllGch9noggm+loe60AnSw0EPWXxLw+p0hHmyPQa92hmmDiJFBci8cAVcDcTOlSOmJcDnSYxORz1Ug604EEgsbruWzo3HZ3w9+/teQKK8U3LrkBz+/SwirVynaYkEmuYfwgKsIvJmCIk0PaHR0FDc2giz/LsLC4tFoWqRMgnvhAbgaeBMpSgdrfv2pIStEckQQgqMyoKLZWvBYqtqGR37Ybix6dyciUqPxh38A4vJrTsJBmhKJa8FhSGzcCVB0PxxB16KRXixBloZOoLGe1PYzHegoRh0ky8fdsDDEKzdOeTpiE/PBVWThTkQi6sKpiX2GL8GD+BSU8BykyWEIDk9Wihf18cpJUxB5LRhhiXmoKTZfeBfB/n7w8/ODn38Ikop5ACVIvn4Jfn7+CEkqqjuymlylbZ2sMBkRQcGIUtXB1ZSrRnl6LBLzOVRk3UFEYmFd31QXX1rzHA9JfCD8/eTXfCk8FeUAUJ6K8Et+8PMPRLxE+QpqtEyu4kseID6lBDwnRXJYMMKTlXOOphgDUJaO2CQJeFQhNz4UoQl5jT/kqquf8gzE3M0FDw5FKZEIjUqvLVdVbgJCQ+4gSzmfaGkjddepirZY0BRH9QlqOlo9Tc6hmvJARSZiEpSmsFRkI+56EEKi01Bcs4LPRvRlf/j5+eNaYhF4cMi6dUkeU2EP5DEl3xmZMQmNpouou0619wk+H2G7F+HdnRFIjf4D/gFxqE156tpaBeUYVXs+VCI94hL+CLuPYq4ACVf8cCk0GSU1O2qKT5U5rhwZMfJ3JriiFESGRqFuSJOLhNAQ3FEOPA33MQCoykvEjcBAhCdLG/YfVW2I9hg6sjPSb6oor9b+VIKUW3HIadTJmOel5Qb4zcFnw3+rK1Z7ByHm5q9YPUqMMRuvID83AkdWjoeN+E14+RzAMqfJmLdgMgb1nwHvZEUoqtu3IBLHVr8Bce+x8PA9hc3z58LlvVkYbjsMq/0jcfSDKZi5+H3MHmaL0Ztv1CaSorBv4eK8Dr6x6Ug6uxqj+zrBMyBfHuRVMdjt4o4TGTJUJBzE/GHv4OdUNdFaHo/DbpOxYMclxCcG45u5dujRdyb2J/Jo170rcn9ZhumuB5AgA4TtuqFj0m7Mn/YxfLMUQ69sf2x1XQ3voBjc/HU1RonHYOMViepkXR6L/QucsPRANDKTz2GDuzfu1VSPNAo+n0yCTa8x2BIs7/hVMbvh4n4CGbIKJBycj2Hv/Az5ZfDI9t8K19XeCIq5iV9Xj4J4zEZcyc9FxJGVGG8jxptePjiwzAmT5y3A5EH9McM7WZ4UuBQcWzQMs767g4KcUHg5iTFqyw2Ug0de2EGsGG8D8UQP7NvxDkaNGI4hi49CUu8SBO26o2vuL1g23RUH5JWCbh2TsHv+NHzsm4XqfG2xwCHl2CIMm/Ud7hTkINTLCeJRW3CjwQcmZYTcC+4YYTcCjqP6w9p2Or6LLAUAcCnHsGjYLHx3pwA5oV5wEo/CFsXBml1/agY65bH7scBpKQ5EZyL53Aa4e9+rl2Bb8Fjq2oYvQpbEEG1NePCVZSgqKka5DEBRGL51ccY631ikJ53F6tF94eQZoLgRViFmtwvcT2RAVpGAg/OH4Z2fUxsPjDTWk/p+FlB7twUo9wLcR9hhhOMo9Le2xfTvIlHK5yHs4AqMtxFjosc+7HhnFEYMH4LFRyVN7DMcMoL3YOkQK/SdtwfHt0zC4KET8cZwW4gneOJ6saZ4LULYty5wXueL2PQknF09Gn2dPBGQz0Ng3B76iT9iydTp2H7bHF2MBQCM0MkkArt2RkLUzkhtrpLw6vOYvLnLEbt/AZyWHkB0ZjLObXCHd00HBwAN5eLzwnBwxXjYiCfCY98OvDNqBIYPWYyjEg3x1aQ8J4ChSRkufz4HU+btRWrHDvKnqwbtIby+DRvOl8HcRMXtpCVyVWUGgvcsxRCrvpi35zi2TBqMoRPfwHBbMSZ4Xkex4lTqYozn87XnM3X9L78AkcdW4w1xb4z18MWpzfMx1+U9zBpui2Gr/RF59ANMmbkY788eBtvRm+vlH/VtpPY6lasc0B4LGuNIm+bkUDV5gJciyucTTLLphTFbgmsfnhXf+Aozpm5GWLU+ii98iGG2r2P8pMmY9UUMXumai1+WTYfrgQTIIES7bh2RtHs+pn3siyyOhzTKB59MskGvMVugCAu116ltzMAXZUFi2BYmPI/KsiIUFZdDpq6tVVSacozyWu9LhKqyYhSVVQNUjbLiIhQ9qgDHa4pPVTnudcz33IvVb4jRe6wHfE9txvy5Lnhv1nDYDlsN/8ij+GDKTCx+fzaG2Y7GZkWjabqPgc9H4PaFcPnvFaTlxWDPNDEc3M8gW6a6DdWXtyn9CagK+gyThg3BAu9MxRLmuaNnpPLaKhKLTGn2yTKlNRzl+syn8evCqFLx77RdY0lP1442RVWT7P7XNFLPjBxWnKGUSiIq+o3md9SnUV/fJ5mWfbms78lR34iGrQ+ibBkRVd6mzwfpUpvhn9IfD6uJqJqiPh9E+j3dKaCCiKQX6X2xLa0MeqwoWxmFrLYlPYu5dDKHo8rQNdRv0KcU9lh+rpzj22hPfHXdpdQqoT9X9iO7tdep5morQ9fQq/r9aH1ENRHJKGHbEDLos4auywtOldfXUB/D4fTlXzIiLpd85o+ndWGKlVwa7RqrR7p2myiq0enKKGTtAOq5+AxJFUtKzy8hS91Xae0NRa1k/0CO+mY059cyIqqk0DX9aNCnYSS/jBw6vm0PxVcTcbk+NH/8Oqo77S4aq6dLdpuiqFp2n74eqUdmDivojLwh6Lf5HUl/1Nd0X0Yku/sFDTWypy2x8nqNWN+PDAbVlJejtF3jSM+wP634I4+k8VfI/46EuJpLUJAlbKMhBn1oTV2l0Jo+hjT8y79IRqQ5FmR36YuhRmS/JZaqiag6Yj31MxhEmxpXGFHNej1LmrY7giQyotLYn2i2tS7pO3hSTLWM7n4xlIzst5D8ciJofT8DGrQpiqqftP6Uzk9lIbR2QE9afKa21ej8EkvSfXUt3ahs2WNpbBsui753NCDLpRepgoiIpHTxfTHZrgySXx8RlYWsJls9C5p7Moe4ylBa028QfSrvBMTlHKdte+Ibl0lDPWnqZxZzT1JOZQSt76dHltN2U4S8cein2dakq+9AnjHV8v4wTo8M+6+gP/KkFH/Fn+7kZzejz1RS6Jo+pGsxgTb7P6RqKqOEn2aSpVCP7D3uULWaeJVcfJ/EtiuprtghtNpWT15mjoiqY2nr64ZkufgMFREREUdZhz6ktX4lpDnPVWpYV01lIWtpQM/FVNe852mJpS69uvYGVRKRVEu5uLRdNE7PkPqv+IPypPF0xf8O5Werj6+yJuc5orKglSTWt6W1ofLoIS6HjiyYS/vSlXs3tWiuospQWtNHlywmbCb/h9VEZQn000xLEurZk8edao0xdjKHI9KSzzT2Py6LvnfUJ6Nh6ylIfmOh258PIt02w+nTPx7K80/U5zRIvye5Byh6lcY20nCdSjTHgqYYU3EwInp0aCoZtJ1Hvz0moubkUE15gMumHxz1yWzOr/L7X3UsbX3dhBy2xpOMiKj6Nn02QJ96LQ+Ul1OWQNuGGFCfNdcV5a6k62v6kOHwL+kvGRERR9k/OJK+2Rz6tUz+b03XqfE+QSQfFxhY0tKL8rbR2NbyRQ00jFEt9yXFPmW/TCcDc2fyrRkQaItPVTlOUk1Z3zuSvtEwWh+UTfIhzec0SLcNDf/0D5IPaaLo80H61NM9gCpI032Mo+wTzmTj9AOlcURE1RT39Vhq12URnS5V0YbayqulPxERUWks/d+uffRnpqrcwDwPKh65PGvlCDztj8x757HTywteXjtw/LETPDwXwt4QEJqYwFhoikFOTuihB8BYjN7dBCguKgRp2VdgYgwjHT30GOyAzkIAemLYWImAboMx0lIEQARrqy7QKZZCSkDhuZ9wMsMGA+1q5p0ZYajzDIgLzuOEXxFElmJYpX2DaWMW4YtT8dB13oiP+qqYhFR8AfuOlWDoJHvUzEAStmkDVQ+0VCoPxGn/TNw7vxNeXl7w2nEcj5084LnQHobK25b6Y+/hFPQfNx41s+ENeljDot6brwJTU5jUfhMrgqXYCmnfTMOYRV/gVLwunDd+hL4ioDzwNPwz7+H8Ti94eXlhx/HHcPLwxEJ5Q8DEWAjTQU5wkjcExL27QVBchEIChGI3HAk+DnfrDAQe3IFDYVLwlY9RwUP+tM9QDwIzBziO7gDzvo5wGtCu2V8XaYwFoRhuR4Jx3N0aGYEHseNQGKR8JR7LC6Ca0AKvOw5GOyFg3O897Px4FHRig3GtQAdityMIPu4O64xAHNxxCGFSHpWPK8A/af0pKfXfi8Mp/TFufG2roYe1Re0Lyy15LM1to6TwHH46mQGbgXa1812NhjpjhrgA50/4oUhkCbFVGr6ZNgaLvjiFeF1nbPyor4qpeOrrSVM/Kzh/An5FACCExeuOGCxvHLy382OM0olF8LUC8AJDGOoJYObgiNEdzNHX0QkDDIKb3mcggKGhAYQdRmC6oyVEMIKtyxa4DiLEBgUhl1cVr8CFn04iw2Yg6oo9FM4zxHVlFvXFErc3UH7aG76ZPMDdg094J8yZYKIlz2laVwr/vYeR0n8c6pq3B6xrO3ghzmkpl8DQEHoCMzg4jkYH875wdBoAg2D18dXkPAfAaKQ7PhqViSPfnJJPG0jzxQXdmZjdTUXvbsFcBYEhDA2E6DBiOhwtRYCRLVy2uGIQxSIoKBcFGmLshF+R1nymsf8JTGBspAO9HoPhIL+xQGxjBRG6YfBIS4gAiKyt0EWnGFIpNaGNNFxnA9piQVMc1TuMOs3JoZrygMAUpnWNCMhSkZJRVTcdSNQDPboBWampKqYSqiKAqalJvXcFNF+nxvtEg+MqjqaprVVoGKPNPx+gOQeekHfaxjmunQgmxkbQ0euBwQ6dIR/S2EA+pBkJ+ZDGGlZddFAslYIg1HAfk8LPxx/6dg6Kl2hFeG1NICSZhzHDuHEbai2vlv4EADDuh3dWvo/xXVTkBua5eP41z5cgX/IY+rYzsHb9eqyv+W/dSkzrI6o3V1pBRwihDkA8NX9f6ECg0/DXOXQEAsh/RoBDbvpDlPNVqKo3hU1kbQVLQRWKpI+A7ktw9PI+OJsGYfucwegzYgVOpzee08Zl3UdqqQh6uo3nNzYFX5IPyWN92M5YW3dN69dj3cpp6KOU9LmMRPxVBAhFGppOp25OMyBA9yVHcXmfM0yDtmPO4D4YseI00jkeJfkSPNa3xYy19epy/TqsnNYHonrzohUHhVDeEPL6FIjwOHo3XN0OImvge3CbYAFBg+z2ZHXRgHJ71o8FCCB6HI3drm44mDUQ77lNgEXDAmghQIeePWCuw0FWDQhEjxG92xVuB7Mw8D03TLAQKOLmSeuvPg4ZiX+hCEKobraWPFZT2qYOl5uOh+U8qhp2AlhZClBVJMUjdMeSo5exz9kUQdvnYHCfEVhxOr3x3Ge19aS5nwmqiiB91HhAIejQEz3MdcDJquULlMKpOX1GJVEvvNbbGKiuRCWh8Qm4XKQ/LAdfVVXvnR0RrK0s65VZAIs5bphlGgDvA3EoiziJ+/3mw05PS57r/Vj9OptsJMo7uOrk3KRyKV+N5vjSa2KeAwAIe2LhqtkwuPAN9sVWIP5YADrNnYJ2ytu1aK5quEsNUa/XIG/CcuRoiLEi6SPwGvOZ5vppnAsBncY3Fgig+HUbrW2Epl0nl6E5FjTFWJM6QTNyqEBTHtCBTv0K0huKKZM6IenqJTzgAFTeRWJaWzhOHQuTuq000qmf+7Vdp8b7hDJtba1CgxjVdl9SRXMOlMdno04LKOqh4QIBdBoGHmqHNNBwH+MkyCuoQFGhVM2HkPpt2JTyKvcJpfEB80JQmTeeKYEZulgYIdH3AK5K6xZzKX64EKNyEmKdp9m3ESG69O4FMy4ekbfqJh3yVZWoEnTFQDsLUEYcHnZzwe6riYg/twED0vfCffsVKP/YlY55W7TBQ0SGPVAx8JETioQqgp9AHCAw6wILo0T4HriKusvikOJ3AcqXpdPuFbQTVSDuVrRSOQh843GSfEAY9xDdXHbjamI8zm0YgPS97th+pRpmXSxglOiLAw0rE34XYlTOsa6v9OIqTN8gwezvt2KefcfaxNiszi0UQQiCcl4kUleL9ZRexKrpGyCZ/T22zrNHxycoQHl+AR53H4TBncpxcdV0bJDMxvdb58G+wcFaov500O6VdhBVxOFWtFL0EA8eghY8VvPaRtilN3qZcYiPvFX3ghtfhcoqAboOtIMFZSDuYTe47L6KxPhz2DAgHXvdt+OKcidQW08yjf1M0HUg7CxUpKHyfBQ87o5BgzupTFLN6TO1iOrNz69GeQWPjrb90EXV774Ku6B3LzNw8ZGoKzaPqsqqhmU2mQQ3FzHiD30DT59ijJ3bU/5NiqZcFWekfl2sGV5pJ0JF3C00bl6+6eVqQHN8VTYxz9Vo47QS7w+4i5++9MQPt1/Du/V/OaGelstVdXsT1duxuhwVfEfY9uuGbhpibKCdhcoYqqO5ftSFk1pa24i0XicAQKed5ljQFGNqO0E9zcmhXFPzAABBB8zYtRcu+lfx7dZd2PnFaRh+4oejS60V3zIKIb8dNkr8qu+fT3udDbRwWzeJ9rGG5vhsqlL19zFhJ3S3NESu36+4VFizPQ+JnzeOJynX+vMqL/OsPbN2ouoqVJEMVZXKmdwYExfPQ49UbziPmw/Pn31x6ogXln4aCuOeIvAcBxnx9To/gUDgeR68ln3B8eCVbh4EgOr98C8RATwPDkCbKcvh1l+KU7sOIqkKAHjkXA5Exsjl+GC0PrgMX3zlfRvlMID1Wxvw+WxrGOkbNPqgLej4L7w9zhDhX87HB3svIeLWnzh86E9k1/YbITpadoZeZhj+uJ2LvLsXsPfwdUhk+ch4UIAS4UQsntcDqd7OGDffEz/7nsIRr6X4NNQYPZUeKQg6TMWCKa8g5cAqbDifjipUIu12HPI4KTLTclBcDoDnwFNNPXDI8P0K3rfLAQNrvLXhc8y2NoK+gQ6MJy7GvB6p8HYeh/meP8P31BF4Lf0UocY9IeI5cDICX+9DCZH8xsLzPIrvpyC3NB1JD0pRkRGEczeywZUXIzs6HHGlkNe8rFpjwhR2tERnvUyE/XEbuXl3cWHvYVyXyJCf8QAFJRUaY0FWfB8puaVIT3qA0ooMBJ27gWyuHMXZ0QiXF6AxKkdxkeKOVBGLA8fu41+fr8BwUTHup+SiND0JD0orkBF0DjeyOZQXZyM6PObJ6q/BiQXoMHUBprySggOrNuB8ehVQmYbbcXngpJlIyymGTosdS4ocTW1TbgADfeBRdhYK88MRkjYBy936Q3pqFw7KOwH4nMsIzBiJ5R+Mhj6XAd+vvCG//Lew4fPZsDbSh4FyJ9AQZ5r62cjlH2C0PgAQyouLFAPBCsQeOIb7//ocK4bryQ9PgKy6XjQZN73P1ODz05CqCA0+6yzOxvSD2wcTFFOTlOO1DaYsd0N/6SnsOpgk/wUUPgeXAzPqlRkARLBbsgyjJSdwiqZiSvua5ZpyVRv162wsMHXBFLyScgCrNpyHvHlvIy6PgzQzDTnFuk0qF0GGhtWlPr50mpjnaon6wnXlFFT/37eIH/4u7NXUd0vmKjke+WmpkDchj6yzZxHTzw0fTDDQGGMfjNYHNOYzzfUjAgeeVwyqa8hvLHVjYSIQePAcmhA72q5TQdBBSyzoqI8jNZ2A4zj5gwAe4JuTQzXmAR4cT/XqR4qL6zcjY+a32L7OHau2fIUtCwbVTtOCsCMsO+shM+wP3M7Nw90Le3H4ugSy/Aw8KChBBQCe40GKBxaa+5K2MQMgMDCAPh4hO6sQ+eEhuD9SU1ur0CBGofV8AFBVVQ2qqkLN8EdrfMoP0zDHAeDkgVfvwQTJz1cXeJAPaTiA13Qfy8Cbi+egW85RvP/2Svzo+zuO7/wQLr4ijLARNmpDreXV0p8AgEs/hTXvuGBPpNKv/DDPj/Kk/KdXSfcDDtP2t3uRro6AOo77mPaeiyVpg/csyijhmDtNsGlL+npm1H3kMjocV0ZUFEOnNjhSR6EuiefupIvxSXTt4HIaYS4gI7ul9FNIpvp9SxPo7OY3yVIoop6zdtC52DSK/n0rTesuJFHPmeT1vzv0INKXNr1lSUJRD5rp5UfJlUTVqWdp4zR7shs3l1z/8x4tcPuGgnLlha28voFG9BpEb7h8Qh6e62jZMi+6mqP6hRFZ1h+0eaotdTAxI+vxq8jXbzM5GNa8ZEtEj0Jo28TuZGZmSXazv6KAi2vJvvdYWuRxjG4WcERlCXTMfQLZtNUnPbPuNHLZYYpTfj9ZgZNG0A8uw8iqrTlZO0yljzyW0LAew2neZ4foxv04Orf5TeoiFJH1jO10IekRXd8wgnoNeoNcPvEgz3XLaJnXVflLgkRUlnCM3CfYUFt9PTLrPpKWHY6jMiqimFMbyLGjkHTFc2nnxXhKunaQlo8wJ4GRHS39KYQyMk7T8iGdybRtLxqzdC8F/OJCVuY9acpX1+nBbR9a/4YFCYWW5LTRhyILVNcZ0SMK2TaRupuZkaXdbPoq4CKtte9NYxd50LGAYM2xEHyLTi8fQp1N21KvMUtpb8Av5GJlTj2nfEU35G88NlT2F53d9i6NfX0MTXf5kJa7fkBbz91XvFjKUebp5TSksym17TWGlu4NoF9crMi85xT66kbeE9SfKhxJI34gl2FW1NbcmhymfkQeS4ZRj+Hz6LNDNyiba7ljZaptmxtURDJKPvRvErdtT+IZOymshIiqU+nsxmlkbzeO5rr+h95b4EbfBOXKX4quvE4bRvSiQW+40CcenrRu2TLyuprT6IVpokqN9aSun8m7Whn9dXYbvTv2dRoz3YU+XO5KH2w9R/cfExEnods+6+kNCyEJLZ1oo08k1YZTk/tMNUV9PpD0LIbRnKUf0qqPP6R3ZzrTZ+fSSEYcSdTGazWlnt1I0+ztaNxcV/rPewvI7ZsgRZnrk9LvS6aQ5x3lV/TU5Cpt6zgpRfzgQsOs2pK5tQNN/ciDlgzrQcPnfUaHbmRrLBcnuU0+698gC6GQLJ02kk9kQW1bqYuv5uS5WhVBtNJ+Ku3X8gJdi+Wq6ij6fKAeWQybQ0s/XEUff/guzXT+jM6l1bzRpz7GqAn5LFNt/yulhLOb6U1LIYl6zqId52IpLfp32jqtOwlFPWmm1//ozoNI8t30FlkKRdRjphf5JVdqbCNtfaUBrbGgIY6UPE48T5ucOpNQaEUztp+huKLMpudQtXmglBLObaY3uwhJZD2Dtl9IIuIy6cS7VqSvAwJ0SEegSwZmHan3WDc6elf+ZuujkG00sbsZmVna0eyvAujiWnvqPXYReRy7SWlx52jzm11IKLKmGdsvUFIFqb/OpowZZMl06N9iatteTDN2hlGJhr7QSGlCwxiNjNRyvjRKufojLR/VngSCjjR+rTf9342HJNMUn2pyXGnCWdr8piUJRT1p1o5zFJsWTb9vnUbdhSLqOdOL/nfnAUX6bqK3LIUk6jGTvPzu0QO197EieR0ed6cJ4g5k2saSHObtpGt5HJGqNtRU3ib2p+qbW2hIeyty+a1AuVaZ50SH6j/eZloMl7ANwxx+xcSgKHzxusrnAgzDPBcyRG9ywPAzUxF6ayvsWHd8anz6Prhs74DvvGehrfLKZ0EWjU0Ow3FmaihubbVT/aSVeTHwmTjr6Y2St11gxxdAWlyK8lIpsu78iiPZrvDbMxGq/xwmwzAt6ZlN0WEYhnnRKE8YZJqDQ2mhFBV8KUL3XobFu5Ofz+C+AdaCLzYemUfdsfJOT/xrQE/0HTQEI8dOwMTJszDbyQGvv6ZmGgzDMC2ODfCfEVlBAYplpSh6pGkWOsMwz54MhYWPwBVLIFX+a4xMk8litmOcRUd07PwqlhcuxKqRSn/W/lmSFaLwEYdiibTRX4RlXiwi884w/HMFhk54Fys2emL7ts345P0F+M/vPbFsaa/an/NlGObZYlN0ngEu8zqOnriEJEk1dNv2xATn9zDOmqU1hnn+KpF8+TD+LzgVxTIRzK3HYc5iR/RUvLvLNIMsDZf2HUfcK5OwcI4DOjyvx0OVybh8+P8QnFoMmcgc1uPmYLFjT7AmfHFVZobj/NlAxGaVQ9jWCoMnTse/+rdng3uGeY7YAJ9hGIZhGIZhWpHn9QyGYRiGYRiGYZjngA3wGYZhGIZhGKYVYQN8hmEYhmEYhmlF2ACfYRiGYRiGYVoRNsBnGIZhGIZhmFaEDfAZhmEYhmEYphVhA3yGYRiGYRiGaUXYAJ9hGIZhGIZhWhE2wGcYhmEYhmGYVoQN8BmGYRiGYRimFWEDfIZhGIZhGIZpRdgAn2EYhmEYhmFaETbAZxiGYRiGYZhWhA3wGYZhGIZhGKYVYQN8hmEYhmEYhmlF2ACfYRiGYRiGYVoRNsBnGIZhGIZhmFaEDfAZhmEYhmEYphVhA3yGYRiGYRiGaUXYAJ9hGIZhGIZhWhE2wGcYhmEYhmGYVoQN8F9CfEkKYpOLwCuvaO34EqTEJqPoH3fhTEvgpPcQ+6BMefFzxKMkJRbJtQFchrSoO8ioUNrsOSlLi8Kdv+vkysrSEHUnA09eGuW6bZ6XIae2bHv9vbH3QlG+rzx1LDbX08XuS0257pkWxQb4NcqTcPnAFrznNAojR47CmDemYJazM2a9PQvz3/8U//UJQ1aV8k7PGZeBP3e6YEiP1+C8PxEy5fWtFoeMP3fCZUgPvOa8H4n/nAtnWgKXhj93LsTgHgOw5HgaOOX1zwGX8Sd2ugxBj9ecsV8RwHzqfiwcPgKuR3Ke/8CST8X+hcMxwvUIcpROXnltI0b0GYM1/nnPqVw8UvcvxPARrjiiXJgmUFW3Tfay5FQN7fUk/tbYe060x7Gq+8rTxWJzPVXsvtRU1T3T4oipp4zOLOpIwjbvkE+JYtHjTAo9tIJGddQl88Ef0KlUmdI+z1llCH0s1qdX196gSuV1rVolhXwsJv1X19KNf9aFMy2h4k/60FqfHLbG09/VgytDPiax/qu0tjaASyn1djSlP1ba8DkpTb1N0Y1OXknX1zjQ8I3BVKS05pkqTaXb0emkXJqmaly3zfCS5FTV7fWk/t7Ye/aaGscq7itPGYvN9VSx+1JTUfdMi2JP8BsQwbyNKXR0hBDW1IxBFwx3+Rb+5z7Dq3954z2X75DwdzwCrCE0h7mZjvLSfwAhzM3N8E+8cqYFCI1havz3pjuhuTkadl1jWNkNRDeD+sueH2MrOwxUPjmXjrSun+DEltFo03DNs2VsBbuB3fCkVdG4bpvhJcmpKtvrif29sffMNTmOVdxXnjIWm+upYvelpqLumRb1997xnkRFKgIPfw0Pjx04+GcKypXXPyPGQ1bDY15XlF77Ft9dqX/WcmTFXkdg8C2klWj7Sq8KeYk3EBgYjmRpw08JMsk9hAdcReDNFBSp+AAhK0xGRFAwojIeK68CZBLcCw/A1cCbSFG1cy0eJQ/ikVLCg5MmIyw4HMlK25enxyIxn0NF1h1EJBbWTWfgpEiJvIbgsETk1UxV4gtxN9gffn5+8PPzR0hSMXgAJcnXccnPD/4hSXVz68qzEHs9EMG30tComjStkxUiOSIIwVEZUHHlqstVozwdsYn54CqycCciEYVqq0Z9uwAcpCmRuBYchsRGJyhDemwSJDxQlRuP0NAE5DX6qlHT/nJVeYm4ERiI8GRpo+kj5VmxuB4YjFtpJQ2+Zi7PiMHdXB7gipASGYqo9Jq55VXITQhFyJ0sFXNINZWFR9H9cARdi0Z6sQRZ2ermqjfejs+OxmV/P/j5X0NiEQ9wWbh1yQ9+fpcQ9kB9Dy1Lj0WSvPIQHxqKhMaVB06agshrwQhLzINyiZtXBzrQUdxJSJaPu2FhiM9RqiG18dKcPq5MhsLkCAQFR0FV163IjEFC/akAT1QGTfGrIb4qMhGToDxFoz2GjuyM9Jsq+lNZOmKTJOBRhdz4UIQm5DV/SktVHhJvBCIwPBkNi1qBzJgE5PBoRjxprtunyqkaPXkeVRXPfOFdBPv7yfOofwiSinkAJUi+fkmRV4vkGzZqr6bkH/Wx0Sj2IIPkXjgCrgbiZkpRo1wEAOAliA+syfmXEJ4qb4/y1HB5zg+Mh6T+IflsRF/2h5+fP64lFoEHh6xbl+Dn54dLYQ/q7t9PEltqYwma4xja7it1sVh/WXbcdQSFRCOtWLn/QUtuVUVz7Gru7/U9eSyqvHe2mns6UJYZg5DgG7ibV4mq3BSklvDIjr4Mfz8/+F9LhDy13MIlPz/4XQqD8q1K3b33ZfJyDfDLIvCFkz0c3/sEW7asw5KJDpjoGYpS5e2eCWOMmjgCbSgbIQFxAAA+2x9bXVfDOygGN39djVHiMdh4RaIyGPj8QGxf6IL/XklDXsweTBM7wP1MNnhwSDm2CMNmfYc7BTkI9XKCeNQW3KgNtnLE7l8Ap6UHEJ2ZjHMb3OF9ry6quZRjWDRsFr67U4CcUC84iUdhS93OddtlBGPP0iGw6jsPe45vwaTBQzHxjeGwFU+A5/Vi8HlhOLhiPGzEE+GxbwfeGTUCw4csxlEJUBT2LVyc18E3Nh1JZ1djdF8neAbkgxcYo71+In5cMhXTt9+GeRdjCAAYdTJBxK6diBS1g5GAR7b/Vriu9kZQzE38unoUxGM24oqEB6BpHVAeux8LnJbiQHQmks9tgLv3vQY3HbXl4vMQdnAFxtuIMdFjH3a8Mwojhg/B4qOSenvLqW8XAEVh+NbFGet8Y5GedBarR/eFk2cA8nke+RFHsHK8DcRvesHnwDI4TZ6HBZMHof8MbyTXFFLt/rUnR+D2hXD57xWk5cVgzzQxHNzPIJuX3xj9t7pitXcQYm7+itWjxBiz8QryCyJxbPUbEPceCw/fU9g8fy5c3puF4bbDsNo/Ekc/mIKZi9/H7GG2GL35Rt0NVGNZqhCz2wXuJzIgq0jAwfnD8M7PqSpusKq349t1R9fcX7BsuisOJMgAYTt065iE3fOn4WPfrEYDBT4/AkdWjoeN+E14+RzAMqfJmLdgMgb1nwHvuspD2LcucF7ni9j0JJxdPRp9nTwRkM+DL3zCOgBAuRfgPsIOIxxHob+1LaZ/F4lSDfHSnD7eSHks9i9wwtID0chMPocN7t6o6bq8NAo+n0yCTa8x2BJcATxhGTTGr7r4kkkR5fMJJtn0wpgtwbUfgtT3p3xEHFmJ8TZivOnlgwPLnDB53gJMHtQfM7yTG7WvajzyA7djoct/cSUtDzF7pkHs4I4z2TJIo3zwySQb9BqzBcEVgKAp8aShbvGUOVWTJ8+j6uNZYNwe+ok/YsnU6dh+2xxdjAUAjNDJJAK7dkZCZF6p1F5Nyz/qYkOmHHsAwKXg2KJhmPXdHRTkhMLLSYxRWxr2HQCAwBAmZZfx+ZwpmLc3FR07yJ9zG7QX4vq2DThfZg6T+qMKQTt075qLX5ZNh+uBBMggRLtuHZG0ez6mfeyLrOoniS11sSTvlWrjWLG3+vsK3ygWAQDFN/DVjKnYHFYN/eIL+HCYLV4fPwmTZ21DQLm23KqCxtht+rjiyWNRQx21gns6yuNx2G0yFuy4hPjEYHwz1w49+s7E/kQe7bp3Re4vyzDd9QDkqaUbOibtxvxpH8M3q6bjqL73Nvjg+rJQnrPz4uIo5+cpZKoDAur+0zGeRD8+5JQ3fkKVFLS8F4nMncm3THkdUWXwSuotEpDFkvNEXC75zB9P68IUk8e4NNo1Vo907TZRVLXSjlw2nXC2Iacf0ogjIqqOo6/HtqMui05TqewufTHUiOy3xFI1EVVHrKd+BoNok+IgZSFraUDPxXRGqjhW6XlaYqmrmC8qo7tfDCUj+y0UK9+Z1vczoEGboki5CERElaFrqI+uBU3Y7E8Pq4nKEn6imZZC0rP3oDvVRFzaLhqnZ0j9V/xBedJ4uuJ/hySSi/S+2JZWBtXMSCyjkNW2pGcxl07mcERUTbFbXydDy8V0RjHZkcs6RB+u9aMSIuJyfWj++HVUV027aKyeLtltiqJKDeuqy0Jo7YCetLjuwun8EkvSrZmvJ9VSLi6Ndo3TI8P+K+iPPCnFX/GnOxKlONHULiSli++LyXZlUO1czLKQ1WSrZ0FzT+YQRzK6//VI0jNzoBVnUqiSiIp+m08d9UfR1/dlRFr35yj7hDPZOP1AafKTU9zXY6ldl0V0upSjXJ/5NH5dmGJOMEdpu8aSnq4dbYqqJi7re3LUN6Jh64MoW0ZElbfp80G61Gb4p/THw2oiqqaozweRfk93Cqgg7WWpDKU1/QbRp2HytVzOcdq2J75xDGnYTpawjYYY9KE11xWNWXmd1vQxpOFf/qVyzrvs/tc0Us+MHFacoRR55dH8jvo06uv7JCMi6cX3SWy7kuqaN4RW2+qRxdyTlMNR8+ugOoLW99Mjy2m7KUIiIyqNpZ9mW5OuvgN5xlSrjpf87Kb38UbKKGTtAOq5+AzVdd0lZKlbN9eWy/6BHPXNaM6vimTT3DJUaopfTfElj/0fHPXJbM6vVEZN6E+y+/T1SD0yc1hBZ+QNRr/N70j6o76m+6oaWAmXfYKcbZzoB3lhqDruaxrbrgstkheGsn9wJH2zOVRTFZrjSUvdPlVO1e5J8mjKec3xTNWxtPV1Q7JcfEYxZ5yjrEMf0lo/xctgyu2lLf9ozG2NY0929wsaamRPW+Q3EopY348MBqmL8zIKWikmfdu1FFohX8LlHKEFc/dRuqpbsSyBtg0xoD5rrivqt5Kur+lDhsO/pL9k1OzY0hhL2uJY232lUSzK728mDlspXib/9+3PBpB+r+UUWEnac6tiWR0tsducccUTxmKrvqdTCf25sh/Zrb2u6CfyOnpVvx+tj6gmIhklbBtCBn3WUF1qWUN9DIfTl3/JiEjzvfdl8xI9weeRnZaBCmq4lCozkPqw8bPGZ4FKS1FOApiatwXKA3HaPxP3zu+El5cXvHYcx2MnD3gutIeh8o5SP/j468POobP8KxPRa1gTKEHm4RkwForhdiQYx92tkRF4EDsOhUHKV+JxBQ+gFP57DyOl/ziMN1ccy6AHrC2Ein8IIXY7guDj7rDOCMTBHYcQJuVR+bii0ad9ABAYGsJA2AEjpjvCUgQY2bpgi+sgUGwQgnJ5CAwNoScwg4PjaHQw7wtHpwHAhZ9wMsMGA+1qZiQaYajzDIgLzuOEXxEAEfouccMb5afh7ZsJHhzu+YSj05wJMAFQHnga/pn3cH6nF7y8vLDj+GM4eXhiob2hxnWl/ntxOKU/xtVdOHpYW6DmygvPaSmXwBCGegKYOThidAdz9HV0woB2SuGuqV0Kz+GnkxmwGWhXOxfTaKgzZogLcP6EH4oghImJMYSmg+Dk1AN6AIzFvdFNUIyiQgK07i+Fn48/9O0c0Fl+cry2JhCSzMOYYVyOwNP+yLx3Hju9vODltQPHHzvBw3Mh7A0BgYkxjHT00GOwAzoLAeiJYWMlAroNxkhLEQARrK26QKdYCilBe1lElhBbpeGbaWOw6ItTiNd1xsaP+kKk2LZWU7drAqGJCYyFphjk5IQe8spD724CFBcVglCIcz+dRIbNQNQ171A4zxCj4PwJ+BU9QR3IzwqL1x0xuJ0QMO6H93Z+jFE6sQi+VgBeVbwYBDe9jysr9cfewynoP2486rquNWq7LgCBqSlM6k9AbW4ZNMWvxvgCIDCFab2Ta+1PQhOYGAthOsgJTvIGg7h3NwiKi1ColJNVkfr5wF/fDg7ywkD02hoESjJxWF4YmJqaNH0urra6faqcql3z82hXhBzQHM8Q9cUStzdQftobvpk8wN2DT3gnzJlgojhpw/aCtvyjMTYax55Q7IYjwcfhbp2BwIM7cChMCr7yMSpU3UhghJHuH2FU5hF8cyoXPDik+V6A7szZ6PYkI4pmxpamWNIWx9ruK41jUYbUlAxUCXQUy0To0aMbkJWK1MdNyK21x1HQFrvNGVc8USy28nt68QXsO1aCoZPsYaRYJGzTpuG3Shppvve+bJp82X8/EWyG2KOjUh4WvGKPoX30Gi58JmRIjoxCHrWFw/D+4EvyIXmsD9sZa7F+/fra/9atnIY+SiMeTpKHgooiFNaNNOoRQPQ4Grtd3XAwayDec5sAC4FiOy4DiX8VAUKR2oYSiB4jercr3A5mYeB7bphgIYCqs6gmQq/XesMY1aislO/V8CbLITf9Icr5KlTVm64ssraCpaAKRdJH4AEILObAbZYpArwPIK4sAifv98N8Oz0APEryJXisb4sZa+vqaP36dVg5rTceq11ng+zEv1AEIUQqL7xp5dI2YtDULlxuOh6W86hqeAJYWQpQVSTFIx7QqZnUraAjFEIHBJ6asH+1BHkFFSgqlDZuL74E+ZLH0LedgbX1Ymv9upWY1kcE6NTcbGroQKAj/0qrdolAAJB8idayoDuWHL2Mfc6mCNo+B4P7jMCK0+mNvx4XNHG7plC+Bh0hhDoAySsP6Q/LwVdV1ZtDL4K1lSUEVUWQyiu/WXWgiqBDT/Qw1wEnq5YvUIqX5vRxZVxGIuRdV2UAy+nUvRdQt6zhPzWVwaZYffyC0xBfgOKdhJqTNaU/KZdVB0J5g6k5fn0cJHkFqCgqrPdhqyGdRu2pnva6fbqc2nxa8mhT4hkCWMxxwyzTAHgfiENZxEnc7zcfdrW3tvrtpVii/O/6+UdDbgNUxJ5AhMfRu+HqdhBZA9+D2wQL1FSZKsKeC7FqtgEufLMPsRXxOBbQCXOntFPerImaE1uaYklbHEuRpvG+ItcwFvUwdMokdEq6iksPOACVuJuYhraOUzHWpAm5VekDkrbY1dTfteUcOS2xqLWOXvJ7etZ9pJaKoKerZUN1tN17XzIqq/pFZfLWNuxbMQTtRTryJNDWHh/u+xIzaj4QPkO85BK+PXwHwn5L8NFkUwjMusDCKBG+B65CWrsVhxS/C4hR+kJB2Kk7LA1z4ffrJRTWLOQl8PM+jqTii1g1fQMks7/H1nn26FgTQwRApx1eaSdCRdwtRFfWHQ8AiJc/jbq4ajo2SGbj+63zYN9gZ3UIVC/pVJdXgO9oi35dVD3BEqJL714w4+IReatuNiZfVYkqQVcMtLNQBJAJJrm5QBx/CN94+qB47Fz0FAKAAGZdLGCU6IsDV+tqCVwK/C7EwUjtuliYvdIOooo43Gp84eCbXC7NNLVLcqfe6GXGIT7yVt08VL4KlVUCdB1oBwstJxB20bK/bid0tzRErt+vuFR3ckj8vHH8L2N0sTBCou8BNKwaP1xQDq4m0FoWykDcw25w2X0VifHnsGFAOva6b8cVpaoHp2E7oQhCxeCiPqInGP4Lu6B3LzNw8ZGoa14eVZVVEHQdCDttld9U5fkoeNwdgwZ3UhkvzenjynTavYJ2ogrE3YpGw2ok8CqfiqqmqQzx7dXHbxI0xFeScpu0TH9ST4hO3S1hmOuHX+sKA17iB+/jSao/IGqIJ611W/o0ObWpmpFHmxrPJpPg5iJG/KFv4OlTjLFze9Z7stw8mnJbo+YHUHpxFaZvkGD291sxz75j7bdy6u8kbeC08n0MuPsTvvT8Abdfexfjax6ZNiKESKj48F4fkeq210hTLCWjk8Y47oJXNN5XVBGgw4xd2Ouij6vfbsWunV/gtOEn8Du6FNbCJuRWpY6jLXY19Xf1OacZsdjkvv5y3tN1zNuiDR4iMuyB2tgSyoNRKbYJxAEQmLXovffv1pQ6e3EILDBlZyjuJ4UhIOAGklLCsXu6ZQteBKGqSvm1bUCWHYDtc5fiaMUb+OLw5xhuAMB4IhbP64FUb2eMm++Jn31P4YjXUnwaaoyeyh/02ryJxXO6Iefo+3h75Y/w/f04dn7oAl/RCPQsvY+U3FKkJz1AaUUGgs7dQDZXjuLsaIQnGGLqgil4JeUAVm04j/QqoDLtNuLyOEgz05AjzcH9lFyUpifhQWkFMoLO4UY2h/LibESHy18EboTPR1qq4rVkPgtnz8agn9sHmKD4VowgQ3W9OG4zZTnc+ktxatdBJFUBAI+cy4HIGLkcH4zWr91OZLcEy0ZLcOIUYeqU9rXLjScuxrweqfB2Hof5nj/D99QReC39FKHGPdFG7TobWExdgCmvpODAqg04L79w3I7LAyfNRFpOMXSbUi4CZPUvRpmGdrFpNwXL3fpDemoXDspPAD7nMgIzRmL5B6OhDx4cJwPx9QYhRPJkxfNAG237t8Gbi+egW85RvP/2Svzo+zuO7/wQLr4ijLAxw8TF89Aj1RvO4+bD82dfnDrihaWfhsK4pwjgePBKA0UCQPWeVhMRwPPyJKetLFwGfL/yxu1ywMD6LWz4fDasjfRhoPwQRMN2wo6W6KyXibA/biM37y4u7D2M6xIZ8jMeoKBE6ddqAPAcBxnx9W76BAKB53nwaIMpy93QX3oKuw4myX9thM/B5cAMjFz+AUbro/l1oNiivLhIcWOtQOyBY7j/r8+xYrjiMalyvGjs4+W4uWcRpvzbE5cUL/fVJ+gwFQumvIKUA6uw4Xw6qlCJtNtxyOOkyEzLQXE5AJ4DT0oD/uaUob2G+BVqii8hAB4cT7WDWq39nOfAyQh8vRujPNx5efnLb2LPoin4t+cl+UviStq8uRhzuuXg6PtvY+WPvvj9+E586OIL0QgbCAHwHA+qN8jSFE+FBhM11q005ylyanE5ym/uwaIp/4bnpWylq6inWXm0CfEMABDBbskyjJacwCmainpptFF7QWv+0RQbyrHHo/h+CnJL05H0oBQVGUE4dyMbXHkxsqPDEafmVyxEfV2xcko1/u/beAx/1179VD1hR1h21kNm2B+4nZuHuxf24vB1CWT5GXhQUIIKbbGlRFMstdMYx4booOW+Iu+WDWNRenE9NmfMxLfb18F91RZ8tWUBBtU8VNSWW2sKraA1L+ho6O/qKrhZsdiEvq7wMt7TBR3/hbfHGSL8y/n4YO8lRNz6E4cP/Yns2puAEB0tO0MvMwx/3M5F3t0L2Hv4OiSyfGQ8KEBJhbHme+/LRnlS/j9WWSJdObiFplmJSEfXguyn/ZsWL11CLs5TaOyI8eS8dj+FZCm9ZFGWQMfcJ5BNW33SM+tOI5cdpjgVL+cSybc97j6BxB1MqY2lA83beY3yOCLiMun08iHU2bQt9RqzlPYG/EIuVubUc8pXdKOIiDgpRfzgQsOs2pK5tQNN/ciDlgzrQcPnfUaHbmRS5unlNKSzKbXtNYaW7g2gX1ysyLznFPrqRuM/71Ed9TkN1LOgYXOW0oerPqYP351Jzp+dozQZESe5TT7r3yALoZAsnTaST2RB7QtC1alnaeM0e7IbN5dc//MeLXD7hoJylV9uIZL+voSmeN5p9HJmWcIxcp9gQ2319cis+0hadjiu9gUY9es4kkb8QC7DrKituTU5TP2IPJYMox7D59Fnh25QNqehXJyEbvuspzcshCS0dKKNPpFU0Li4curahYioOpXObpxG9nbjaK7rf+i9BW70TVAucURUFHOKNjh2JKGumObuvEjxSdfo4PIRZC4wIrulP1FIJqdxf8XJKeG4O00QdyDTNpbkMG8nXas9eRklHHOnCTZtSV/PjLqPXEaH48qIShPo7OY3yVIoop6zdtC52DSK/n0rTesuJFHPmeT1vzv0INKXNr1lSUJRD5rp5UfJlZqvhSqv04YRvWjQGy70iYcnrVu2jLyuqnhBTON2jyhk20TqbmZGlnaz6auAi7TWvjeNXeRBx24WNDxOUQyd2uBIHYW6JJ67ky7GJ9G1g8tphLmAjOyW0k8hmURUTalnN9I0ezsaN9eV/vPeAnL7JohyOXrCOiijv85uo3fHvk5jprvQh8td6YOt5+j+Y9IcL+r6OJdJh2Z2JvNXOtJIz9iG16fASSPoB5dhZNXWnKwdptJHHktoWI/hNO+zQ3Tjfhyd2/wmdRGKyHrGdrpwN6v5ZVCsUxu/auOrlBLObaY3uwhJZD2Dtl9IItLYz4so5tQGcuwoJF3xXNp5MZ6Srh2k5SPMSWBkR0t/CqGMjEM0s7M5vdJxJHnGKmcAubKE4+Q+QUwdTNuQpcM82nktj+TNeY42v9mFhCJrmrH9AiVVkNZ40li3mRlPl1MPzaTO5q9Qx5GeypdA9MR5VEM8NyCl35dMIc879euwcXs1Kf+oi43ShIaxl1RBXOZpWj6kM5m27UVjlu6lgF9cyMq8J0356obGPxRVEbSS7Kfup8xG19HQo5BtNLG7GZlZ2tHsrwLo4lp76j12EXkcC6Dg/9McW6qOrS6WSGMck9b7yv045VjkKPPEu2Slr0MASEdHQLoGZtSx91hyO3pX/iKmptyqgsbYzZa3m9r+ruTJYlFbHdV5Ge/psqw/aPNUW+pgYkbW41eRr99mcjCsecmWiB6F0LaJ3cnMzJLsZn9FARfXkn3vsbTI4xjdLODU33tfQjpU/5EX06rJojfBYfgZTA29ha12L+GnUYZ5wVSFbMAHt5bi5xU9lVf9A1UhZMMHuLXUGyvk3+e/vKpCsOGDW/ji5xXKa1gercUjfZ8Ltnf4Dt6z2iqvbCV4ZJ71hHfJ23Cx41EgLUZpeSmkWXfw65FsuPrtwUTlx/TPEYtF7biEbRjm8CsmBkXhi9f/WXXUcrNbmJeHiq89GYZpHl4Siv3n2+PdhWxwD/CQhO7H+fbvYuHLPrjnJQjdfx7t312ovKahf2oe5UpRKK0AXxqKvZct8O7k1jq4B/jMo3BfeQc9/zUAPfsOwpCRYzFh4mTMmu0Eh9dfUz9t5nn7p8YioxEb4P+DyAoL8YgrhkTa+D0DhmGagZciNprHFI/VGNd6xzdNxktjEc1PgcfqcXi5q4OHNDYa/BQPrFbTsP/sPCpDzPZxsOjYEZ1fXY7ChaswsuZXDVsjkTk6G/6JFUMn4N0VG+G5fRs2f/I+Fvznd/RcthS9/ubPsv/sWGwaWUEBimWlKHqkfu5+a8Wm6PxDVCZfxuH/C0ZqsQwic2uMm7MYjj2fx8+LMgzDtA4sjwKytEvYdzwOr0xaiDkOHVr/U8LKTISfP4vA2CyUC9vCavBETP9Xf7T/mwf3LBa14zKv4+iJS0iSVEO3bU9McH4P46z/5oZ7jtgAn2EYhmEYhmFakVb/4ZthGIZhGIZh/knYAL9VKENa1B1kNP65caYeviQFsclFL+X7SM+s7BWZiL2bW++4FciMvYvcFj8RwzAMwzDPCxvgP2NVoZsxus8orDyfo3Vwxqftx+w+AzF3f6L8j6E0EZ+6HwuHj4DrEe3n+EfiMvDnThcM6fEanPcn4qV61eZZlZ0vQtSxj+FoY4Nx20JQBR5FUcfwsaMNbMZtQ0hzApBhGIZhmBcKG+A/U1WIOuuH6re3Y/OUzloqm0eO31kkOHyKHUteRXNelRFYL8MvN0Lx0yJt5/iHEnbDBHdXjG1PGv70+gvqWZVdYA67easwXVxzXAHM7eZh1XQx2Fs5DMMwDPNyY+PBZ4l7iAddVsNn29gm/HRcOeL5yTjsPQ9WzX7J2xhWdgPRrTX/XNnTEprD3ExHeenL4VmVXWAGU+P6xxXAzNQYz+BMDMMwDMM8R2yAr4Qvuo/woGuITi+GJCsbZfVXlmch9noggm+loaT+XJjydMQm5oOryMKdiEQUcvLFsiIZevR/BWm3U1CkWNYQj+zoy/D384P/tYd43e0/GPzoFi75+cHvUhgelNdsV4b02CRIeKAqNx6hoQnIU5qrUZEZg4SchhN0qvIScSMwEOHJUjQ6PSdFSuQ1BIclIk/LdAy+5AHiU0rAc1IkhwUjPLlI6XgySO6FI+BqIG6mKK1TVzeSewgPuIrAm+rqpr4q5CXeQGBgOJKlSmfWchxZYTIigoIRlfFYeRUgk+BeeACuBt5EiqqdAfDZ0bjs7wc//2tILOIBLgu3LvnBz+8SwuoaCGXpsUiSNxDiQ0ORoNxAADhpCiKvBSMsMa9JU7A0lh1AeVYsrgcG41ZaidapWaq3FUBHaTQvUF6goKnsGvsMwzAMwzDPHRvg11MVsxsu7ieQIatAwsH5GPbOz0iVQT4Q998K19XeCIq5iV9Xj4J4zEZcyc9B2MEVGG8jxkSPfdjxziiMGD4Ei4/mIeXYIgyb9R3uFOQg1MsJ4lFbcKNuPKggQLvuXZH7yzJMdz2ABBkgbNcNHZN2Y/60j+GbVY38iCNYOd4G4je94HNgGZwmz8OCyYPQf4Y3kjmAl0bB55NJsOk1BluCFW/Z8vkI3L4QLv+9grS8GOyZJoaD+xlkK0Z2RWHfwsV5HXxj05F0djVG93WCZ0B+40Eil4HgPUsxxKov5u05ji2TBmPoxDcw3FaMCZ7XUQwAXAqOLRqGWd/dQUFOKLycxBi15QbK+bynrBs5Pj8Q2xe64L9X0pAXswfTxA5wP5MNHpyW45Qjdv8COC09gOjMZJzb4A7ve3WDeC7lGBYNm4Xv7hQgJ9QLTuJR2KKiEIJ23dE19xcsm+6KA/IGQreOSdg9fxo+9s1CdX4EjqwcDxvxm/DyOYBlTpMxb8FkDOo/A97JNecrQti3LnBe54vY9CScXT0afZ08EZDfqMYVNJcdfDb8t7pitXcQYm7+itWjxBiz8Qokqg7XnG1V0lx29X2GYRiGYZi/DTEKlRS6ph8N+jSMHhMRcTl0fNseiq8m4nJ9aP74dRRWKd+SS9tFY/V0yW5TFFVzabRrnB4Z9l9Bf+RJKf6KP93Ji6cvhhqR/ZZYqiai6oj11M9gEG2KqlY6JxGRjBK2DSGDPmvouuL4ldfXUB/D4fTlXzIiktH9r0eSnpkDrTiTQpVEVPTbfOqoP4q+vi8jIiIu+wdy1DejOb+WERFH2SecycbpB0rjiIiqKe7rsdSuyyI6XUpE0ov0vtiWVgY9Vpy/jEJW25KexVw6mcPVlqpWZSit6aNLFhM2k//DaqKyBPpppiUJ9ezJ4041ye5+QUON7GlLbDURVVPE+n5kMGgTRVUT0dPWDZdNJ5xtyOmHNJJfShx9PbYddVl0mkpldzUepyxkLQ3ouZjOSBXHKj1PSyx16dW1N6iSZHT3i6FkZL+F5MWOoPX9DGjQpihSUQqSJWyjIQZ9aE1dA9GaPoY0/Mu/SEZEsvtf00g9M3JYcYZS5A1E8zvq06iv75OMiKQX3yex7Uqqq/IQWm2rRxZzT5KqKtdcdo5yfebT+HVhJC8NR2m7xpKerp2KOtS27SM6NNWA2s77TR7zRPTo0FQyaDuPflMs0Fx29X2GYRiGYZi/D3uCX0sES7EV0r6ZhjGLvsCpeF04b/wIfUVAeeBp+Gfew/mdXvDy8sKO44/h5OGJhfaGgMAQhnoCmDk4YnQHc/R1dMKADq/C7UgwjrtbIyPwIHYcCoOUr8TjiiY/Nq1HCBMTYwhNB8HJqQf0ABiLe6OboBhFhYrXI01NYVI7s0IKPx9/6Ns5oLMAAER4bU0gJJmHMcMYKDz3E05m2GCgXc2EfSMMdZ4BccF5nPArqjlIHYEhDA2E6DBiOhwtRYCRLVy2uGIQxSIoKBc6YjccCT4Od+sMBB7cgUNhUvCVj1HBK/Z9mrqR+sHHXx92DoqXh0WvYU2gBJmHZ8BYKNZwnFL47z2MlP7jMN5ccSyDHrC2qHm5QQix2xEEH3eHdUYgDu44hDApj8rHFY2/xWgCoYkJjIWmGOTkhB7yBkLvbgIUFxWCUIhzP51Ehs1A1FX5UDjPEKPg/Ak0rnJtZS9H4Gl/ZN47j51eXvDy2oHjj53g4bkQ9ob1DtPsbVXRVnb1fYZhGIZhmL8PG+DXEqD7kqO4vM8ZpkHbMWdwH4xYcRrpHI+SfAke69tixtr1WL++5r91WDmtD0QAGr+VKIDocTR2u7rhYNZAvOc2ARaCJ/9pEh2ledE6QiF0QOBrDqmjUzeXmpMgr6ACRYVSFb+6wiE3/SHK+SpU1fvNfJG1FSwFVSiSPmrSAFfU6zX0NgaqKytBAhEeR++Gq9tBZA18D24TLNDgUp+ibjhJHgoqilAoVbVew3G4DCT+VQQIRWoDXCB6jOjdrnA7mIWB77lhgoVARX01kY5Ow8vUEUKoAxBPAJeL9Ifl4KuqUFflIlhbWUJQVQTpI6Ua11Z2vgT5ksfQt52BtbWxuB7r163EtD5KI+vmbKuK1rJDTZ9pcBSGYRiGYZ4zlWOIfyYOGXEP0c1lN64mxuPchgFI3+uO7VeqYdbFAkaJvjhwVVpv8xT4XYhR/bvkpRexavoGSGZ/j63z7NGxZiylZgQpFAkB4pVWE+hJBkrCTuhuaYhcv19xqbBmIQ+JnzeOJwFdeveCGRePyFt18835qkpUCbpioJ2F2oAgqjcQrS5HBd8Rtv264PHFVZi+QYLZ32/FPPuO8g886i+1WXUj7NQdloa58Pv1EuouRQI/7+NIKtZwHJ12eKWdCBVxtxBdWXc8ACBe/oT/4qrp2CCZje+3zoO9pkIAgFAEYf0PVArUlAYSdkHvXmbg4iNRV+U8qiqrIOg6EHYWSjWurewCM3SxMEKi7wE0DEc/XIhRisbmbKuK1rKTmj6jVHCGYRiGYZ4rdeO5fyAOGb5fwft2OWBgjbc2fI7Z1kbQN9CB8cTFmNcjFd7O4zDf82f4njoCr6WfItS4p3xAS4Csum7AxBffR0puKdKTHqC0IgNB524gmytHcXY0wuNK658UgBAdLTtDLzMMf9zORd7dC9h7+DoksnxkPChASQUPjpOB+HoDTCKAePC8YtDNc+CJIP9nG7y5eA665RzF+2+vxI++v+P4zg/h4ivCCBsh2kxZDrf+UpzadRBJVQDAI+dyIDJGLscHo/XritUAj/y0VMhLziPr7FnE9HPDBxP0UHw/Bbml6Uh6UIqKjCCcu5ENrrwY2dHhiCt9yrpp8yYWz+mGnKPv4+2VP8L39+PY+aELfEUj0LNUw3ESDDF1wRS8knIAqzacR3oVUJl2G3F5HKSZaciR5uB+Si5K05PwoLQCGUHncCObQ3lxNqLD4xqWAYCwoyU662Ui7I/byM27iwt7D+O6RIb8jAcoKKkAz3GQES9/Yg/IP5yBwPM8eLTBlOVu6C89hV0Hk+S/QMPn4HJgBkYu/wCNqlzQQXPZi3UwcfE89Ej1hvO4+fD82Renjnhh6aehMO6p/FTeWMu2HDhO/sGh5uMbJ19QG0uay66+z4CX4PIWZ/x7WwDqfbZgGIZhGOY5EHp4eHgoL/xn4pBx9Vt4fHMKUQ8eIDboBqTD12HzPBuY6PfA2Dd64lH0Zfx+wgdnrueg6+Kd2DbNCHG/foPvjl5DYpoUfBdbDOzbBcam3dCmIADHftyFg1fy0efdydC/+j8EZHXH24vHo6vS79Ub9OgK/sYh7PxyHy5m9MKif7+CiLAStG3XFp30/4LPvkMIvpsHro0N+rbPxcV9++BzIxGF1AX9+uojZt8u7A9MQm61IcSDh6D/sEmY1KsYN8/74JeTfyDZdAq27vwPBproALrdMOZf/VF2+Tt8eSAAtyL84f/wdWzZsxz2po3m0wB8DgL2/4yoEg6p0TcQdPE4TtzpjQ3en2FMOyFMurVBQcAx/LjrIK7k98G7k/Vx9X8ByOrqiMF5J7HvqerGAL0dJ6FX8U2c9/kFJ/9IhumUrdj5n4Ew1XicCbC1n4ixHdJw6ecvse373xBe2AFtSx6Aa2eBdr1GYOprFQg49iN2HbyC/D7vYrL+VfwvIAvd316MkY0bCF35Gzi080vsu5iBXov+jVciwlDSth3adtLHfZ99OBh8F3lcG9j0bY/ci/uwz+cGEgsJXfo5YOiIyfhX/zJc/u5LHAi4hQh/fzx8fQv2LLdH4yrXgelrGsrecyCGjJ6MN3o+QvTl33HC5wyu53TF4p3bMKOrrvLBoNdjrJptOSRd+Bo7vQORmF0Fw5798Tpu4uud3ghMzEaVYU/0H9QHlr3GaCi7hj5D2bj09Sb8kjUA850d0JY9SmAYhmGY50aHiP3dSkYDWTQ2OQzHmamhuLXVrnYKDsMwDMMwDPNiYs/VmCZqyuu3DMMwDMMwzN+NDfAZzWSFKHzEoVgibfQXTBmGYRiGYZgXD5uiw6hXmYzLh/8PwanFkInMYT1uDhY79oSe8nYMwzAMwzDMC4MN8BmGYRiGYRimFWFTdBiGYRiGYRimFWEDfIZhGIZhGIZpRdgAn2EYhmEYhmFaETbAfyGUIS3qDjIqlJe/5CoyEXs3t94PbFYgM/Yuctkvbv59GrWJFnwJUmKTUdTkHer7O9q7lfalf6iytCjcaVZjto7250tSEJtc1PR+2lo8Vb75m5SlIepOBl7ykGNaITbABwDwyLt5El99NBPjR43BzC2BkDZYX4WUwMP4YumbGDv1Q/z3WEiDtU+LT92PhcNHwPVITutI6HwRoo59DEcbG4zbFoIq8CiKOoaPHW1gM24bQtjvbT5/jdpEGw4Zf+6Ey5AeeM15PxJlyus1+fvau9X1pX8yPhX7Fw7HCNcjyGliY7707c9l4M+dLhjS4zU4709Es7rdS+1p8k3TcanBOPrNR5g+ZhRGv/VvvO/mBjc3N7i5uWLR25Mw/t29SGjWuXmk7l+I4SNccaSpQcowzwsxdarv04EZFiQUWdKsIykkU1pd9r/3aMSqYKpUWv70Sin1djSlP1Zerh6XF0k3k5VL+ALh0um78frUdt5vJL8sjtK/G0/6befRb824TkaBy6PIm8mNYrJZGrWJNpUU8rGY9F9dSzeaHfR/V3s3vy8xL67S1NsU3azGbEb7t0SfehYqQ+hjsT69uvbGM7jXvMieJt80Q0UAfdRDSPpTD9GjBssT6NslGymwov7CJihNpdvR6U3Mqc8TR3mRN6mlhgkv/JiDaYQ9wa9P1B1D7XujU7ti/G/5fGwPL22wWtjGHJ3MTJ/B1x7GsLIbiG4GysvVKUP4d5tw+F6zHjU8XwIzmBrr1F8AM1Nj1F/CNF1Z+HfYdPje0z3Ra9Qm2ghhbm72hG32d7V3c/sS8yIztrLDwGY1ZtPbv0X61LMgNIe52fPvOX+/p8k3zSA0QRsTFXdx/T5Y8NFMdBUpr9DC2Ap2A7uhCSH3fJWF47tNh9Eyw4SXYMzBNKIiyl9wFakIPPw1PDx24OCfKShXXv+0dNpj5tc/YI55JLa9uwKns7V97cZBmhKJa8FhSMxTnovAo+h+OIKuRSO9WIKs7DKl9XUqMmOQUO8rvrL0WCRJeKAqF/GhoUjIU3QsPh9huxfh3Z0RSI3+A/4Bcciv3a0cWbHXERh8C2kl9ctdjvTYRORzFci6E4HEQq5uTVYsrgcG41ZaSYOvtPmi+wgPuobo9GJIsrJRW3KZBPfCA3A18CZSiuqO05gAOkqZWqC8QEG5DHzhXQT7+8HPzw9+/iFIKuYBlCD5+iX4+fkjJKlIvqOmspSnIzYxH1xFFu5EJKLeJQN8NqIv+8PPzx/XEovAg0PWrUvw8/PDpbAHdTFVlo7YJAl4VCE3PhShCXlaBwNVeYm4ERiI8GQplGuHk6Yg8lowwhLzGk+RUXsuHvlhu7Ho3Z2ISI3GH/4BiMvnNbap+vM0bhOVZIVIjghCcFQGHiuvA4DyLMReD0TwrTQ0CDMlqtpbJrmH8ICrCLyZgoZN1sS+wpfgQXwKSngO0uQwBIcnKx2ncV8C1JS5+B6uX1LEWb3//EOSFHOAZZDcC0fA1UDcTClq2J58Ee6HB+FadDqKJVlQV1y5MmTGhCD4xl3kVVYhNyUVJU2NQagpuypqY6geToqUyGsIDktE43TVxGtqtB2P7OjL8Pfzg/+1RBTxAJd1C5f8/OB3KQwPai+mHBkx8ncyuKIURIZGIb3mHFW5SAgNwZ0spZnMFZmISag/3aYM6bFJkKfGeISGJqAmNdZQbv/GuayZfUpTnlFBbQ7QchxZYTIigoIRlaGi12nZtw6PkgfxSCnhwUmTERYcjmSl7cvTY5GYz6Ei6w4iEgvryqgqNvhC3A32V/QNf4QkFYMHUJJ8HZca9JXGebwBTTGsLd+oKlcNTXm+mcpjY5Dbzx69hIoFjeJcaYdaFciMSag3jaz5cc6XPEB8Sgl4TorksGCEJyvlGzSvHgpywrB70bvYGZGK6D/8ERCXL28TDXHUsmMOFarykHgjEIHhyZAqX5yma3vavAYt51Z7DWrywUvk5Rrgl0XgCyd7OL73CbZsWYclEx0w0TMUDZ+zPz1BlznwPrEednlH4LpwN+IqlbdQKArDty7OWOcbi/Sks1g9ui+cPAMUwV+FmN0ucD+RAVlFAg7OH4Z3fk5tFJi8NAo+n0yCTa8x2BJcAT4/AkdWjoeN+E14+RzAMqfJmLdgMgb1nwHvZA58URYkhm1hwvOoLCtCUXE5ZAD4bH9sdV0N76AY3Px1NUaJx2DjlXzkhB3EivE2EE/0wL4d72DUiOEYsvgoJHw2/Le6YrV3EGJu/orVo8QYs/GK/MYZsxsu7ieQIatAwsH5GPbOz0iVAVzKMSwaNgvf3SlATqgXnMSjsOXGU3zEUlMGqWF76Cf+iCVTp2P7bXN0MRYAMEInkwjs2hkJUTsj9WXh8xB2cAXG24gx0WMfdrwzCiOGD8Hio5K68wraoXvXXPyybDpcDyRABiHadeuIpN3zMe1jX2RV5yPiyEqMtxHjTS8fHFjmhMnzFmDyoP6Y4Z3cOPFCngQDty+Ey3+vIC0vBnumieHgfgbyz4dFCPvWBc7rfBGbnoSzq0ejr5MnAvJ5gNdyLr4IWRJDtDXhwVeWoahIiofhatpU03maqDx2PxY4LcWB6Ewkn9sAd+979a6XR7b/Vriu9kZQzE38unoUxGM24oqkKcfnkHJsEYbN+g53CnIQ6uUE8agtkIdPU/oKh4zgPVg6xAp95+3B8S2TMHjoRLwx3BbiCZ64Xty4L8mpL3PV3SPY7h2OzMIiFBUVoSByH1ynzcL683kQUgqOLRqGWd/dQUFOKLycxBi15YZ84F0Vg90u7jiRIUNFwkHMH/YOfk5V7tly5fGH4TZ5AXZcikdi8DeYa9cDfWfuRyKvJQY5aCx7A9piSLFZUdi3cHFeB9/YdCSdXY3RfZ3gGaC48Tf1mlRux6Nd967I/WUZprseQIIMELbrho5JuzF/2sfwzapGYeQxrH5DjN5jPeB7ajPmz3XBe7OGw3bYavhHHsUHU2Zi8fuzMcx2NDbfKAd4KaJ8PsEkm14YsyUYFeCRH3EEK8fbQPymF3wOLIPT5HlYMHkQ+s/wRjKnuv1V5rKqpvepPHV5RhUNOUBtvgIAlCN2/wI4LT2A6MxknNvgDu97db1O8751uIxg7Fk6BFZ952HP8S2YNHgoJr4xHLbiCfC8Xgw+LwwHV4yHjXgiPPbtwDujRmD4kMU4KtEQGwJjtNdPxI9LpmL69tsw72IMAQCjTiaI2LUTkaJ2MILqPC4PU80xrDnfaChXU/J8M8iK78Lnu2O4WzM4VBnnyv2BhzTKB59MskGvMVsQXME3P865DATvWYohVn0xb89xbJk0GEMnvoHhtmJM8LyOYsWZmlcPr2PB/gcwbGsCnq9EWVERistlauOoZcccksYf7sAjP3A7Frr8F1fS8hCzZxrEDu44o3h4qv7aWiCvaTm36mvQMG6qvaaXhPKcnRcXRzk/TyFTHRBQ95+O8ST68SGnvPETqqa4bTPJ/XIFEcko5cg71FVkSP1XXiYJR1QR8DHN3BxF1UREJKWL74vJdmVQ7dy7spDVZKtnQXNP5hBXGUpr+g2iT8MUM9BzjtO2PfGKfRvisn8gR30zmvNrGRERye5/TSP1zMhhxRlKqSSiot9ofkd9GvX1fZIREZf1PTkaWNLSi4rJglwu+cwfT+vCFBMXuTTaNVaPdO02UVQ1R2m7xpGeYX9a8UceSeOvkP+dfMr2mU/j14Up5nhylLZrLOnp2tGmqDIKXdOPBn0aJr8uLoeOb9tD8dUyuvvFUDKy30Kx1URUHUHr+xnQoE019aHsER2aatBgvvejQ1PJoHZONke5astQTVQdS1tfNyTLxWeoSLE+69CHtNavhIi0lIVLo13j9Miw/wr6I09K8Vf86Y5EKUZkCbRtiAH1WXNdcf5Kur6mDxkO/5L+khGR7D59PVKPzBxW0Bl5I9Bv8zuS/qiv6X6jaYgcZZ9wJhunHyiNI3kcfT2W2nVZRKdLiaQX3yex7UoKqgsUWm2rRxZzT1IO14RzcVn0vaMBWS69SPIWV9WmEpJoO4+KNmmgLITWDuhJi89IFQtK6fwSS9JVzInlcn1o/vh1VBdmu2isni7ZqYmBBu0tu0tfDDUi+y2xJG+y9dTPYJC8rZvcVyopdE0f0rWYQJv9H1I1lVHCTzPJUqhH9h53qFpFX9JU5sdx5+l8ouIsJaH0mb0JmY/+kqIqiGR3v6ChRva0RR5gFLG+HxkM2kTy4q6hfoM+JXlxOco5vo32xDcuLZX8SSv72dHa6/KyyMv/Kun3W08R1dpjUFPZG51NWwxJL9L7YltaWRccFLLalvQs5tLJHK7J16R+OxklbBtCBn3W0HVFeSuvr6E+hsPpy79k8v77vSPpGw2j9UHZJCOiytuf0yDdNjT80z/oYTURVUfR54P0qad7gDzOuWz6wVGfzOb8SorMSPe/Hkl6Zg604kwKyVPjfOqoP4q+VnTKhu1fqSaXNbVP5VG8pjzTgKYcoDlflYWspQE9F1NdtztPSyx1FXPwNe+rrDJ0DfXRtaAJm/3pYTVRWcJPNNNSSHr2HnSnWh5D4/QMqf+KPyhPGk9X/O+QRKI5NoiqKXbr62RouZjOyJMxcVmH6MO1flSiJY9rjGEt+UZbzDYpz6tSfZM29tclUY83aMn779P7779PS+dNoN6W8+j/FF1VfZwr4yj7B0fSN5tD8pTzBHFeGUpr+uiSxYTN5C9vNPpppiUJ9ezJ4071E9ZDNWV970gGlktJPkzQHEctO+ZQFFOByz5BzjZO9IO8Y1B13Nc0tl0XWiS/OWq+tqfMaxrPrfEaVOUDCTUhul4oL9ETfB7ZaRmooIZLqTIDqQ+VP1m3BCF6LPwJx9f0xYPvXbD0SErDJ7eF5/DTyQzYDLSrnXtnNNQZM8QFOH/CD0UiS4it0vDNtDFY9MUpxOs6Y+NHfaFqep/A1BQm9WYzCE1MYCw0xSAnJ/TQA2AsRu9uAhQXFULp8uXKA3HaPxP3zu+El5cXvHYcx2MnD3gutIchBDA01IPAzAGOozvAvK8jnAYYIPi0PzLvncdOLy94ee3A8cdO8PBcCHtDESzFVkj7ZhrGLPoCp+J14bzxI/QVCSF2O4Lg4+6wzgjEwR2HECblUfm4QsUn9qYoR6DaMgAQ9cUStzdQftobvpk8wN2DT3gnzJlgAkBLWQSGMNQTwMzBEaM7mKOvoxMGtGtmqAtNYGIshOkgJzjJGwHi3t0gKC5CYaNGkMLPxx/6dg7oLAAAEV5bEwhJ5mHMMC7EuZ9OIsNmIOzqAgXOM8QoOH8CfkXNPRcAlW0KXNB2Hi1K/fficEp/jBtvrlhigB7WFqj5xro88DT8M+/h/E4veHl5Ycfxx3Dy8MRCe8N6R1FDKIbbkWAcd7dGRuBB7DgUBilficcVPNDkviKAoaEBhB1GYLqjJUQwgq3LFrgOIsQGBSGXb9yXNJVZ9NpkTO4jAngJ/D9djP8+HI+vDq3BIH1AKHbDkeDjcLfOQODBHTgUJgVf+Rjy4ophlfYNpo1ZhC9OxUPXeSM+6tu4tMUX9uFYyVBMsjdSLBGiTRuTJn9tqqnsjWiJocJzP+Fkhg0G1gUHhjrPgLjgPE74FTX5mpq6XWMCmBgbQUevBwY7dIYQgJ7YBlYioNvgkbAUARBZw6qLDoqlUnmeE5jCtH5jQggTE2MITQfByakH5KmxN7oJilGk6CgN219dLqt3yFqq+lQHvKopzzSgKQdoylel8N97GCn9x6Gu2/WAtUVNr9O0b2MCQ0MYCDtgxHRHWIoAI1sXbHEdBIoNQlAuD4GhIfQEZnBwHI0O5n3hKE8cGmMDEKHvEje8UX4a3r6Z4MHhnk84Os2ZABMteVxTDGvLN9pi9mnzvLDffOzatw/79u3DT8cv4ddVA2pzTtPjXABTU5N67w08SZwbwtBAiA4jpsNR3mhw2eKKQRSLoKBcFLRIPWiOo5YdczQk9fOBv74dHOQdA6LX1iBQkonDM4y1t/FT5jVN59Z8DaryQbsm5+4XxUtUXhFshtijY03vVxC8Yo+hffQaLmwx5hiz9SR2TSacW/FvbLtd97Uol5uOh+U8qqrqzaUTWcPKUoCqIikeoTuWHL2Mfc6mCNo+B4P7jMCK0+mqp3fo6DScG62j0/BFIx0hhDoA8Sq7GviSfEge68N2xlqsX7++9r91K6ehjwiA8mtLfAnyJY+hbzsDa+ttv37dSkzro4fuS47i8j5nmAZtx5zBfTBixWmkc4BA9BjRu13hdjALA99zwwQLgerO3xQayyACIIDFHDfMMg2A94E4lEWcxP1+82GnaGqtZWk8/buZlNoEOhDKG6HxNXMS5BVUoKhQkbAbrMtF+sNy8FVV9X4nWQRrK0sIqoogfcQ371y1lC6wSefRhENG4l8oghAilVmBR0m+BI/1bTFjbb32Wr8OK6f1UTEYVyaA6HE0dru64WDWQLznNgEWAsXVCZrRV5SJeuG13sZAdSUqSbkvNaXMPDJ93bHsQCXm/OCNJTUTcAUiPI7eDVe3g8ga+B7cJligrrhLcPTyPjibBmH7nMHoM2IFTqcrl5ZD1v1UlIr0oPtEsdiUstenKYY45KY/RDlfhYbpygqWgioUSR8BTbqmpl67ajrK72ToCCD/QrZ2AQQCgGoX6TTap9G/hULogFCbGhu0v0BtLlOtcUNpzTM1NOUATcfhMpD4VxEgFKm9Gavdt0lE6PVabxijGpWV8r0aXqX22OABCCzmwG2WKQK8DyCuLAIn7/fDfDs9LXlcoCGGbZCtMd80rVwqmuwJiTDg3YUYqRgnNifOdZTu18oxqj3OGxP1eg3ytFaOnBaqB41x1OJjjhocJHkFqCgqhLTRoZrSxk+T16TIV3vuplxDEyr1Baeya72oTN7ahn0rhqC9SEfe0G3t8eG+LzGj5gHAsyCywXsHj2J5zzh8vfE4HioCRdilN3qZcYiPvFX3QhxfhcoqAboOtIMFZSDuYTe47L6KxPhz2DAgHXvdt+OKuvn8T0Fg1gUWRonwPXC13u/3c0jxu4AYVV9uCMzQxcIIib4HcLXeD/5zKX64EFOJjLiH6OayG1cT43FuwwCk73XH9isSXFw1HRsks/H91nmw71jTi1X0nKbQWAZFoU0mwc1FjPhD38DTpxhj5/ZUPN0pbYGyCCESqkhgRE0bWNYn7ITulobI9fsVlwprFvKQ+HnjeHIn9O5lBi4+ErfqAgVVlVUQdB0IO4sW6oLCLk95Hh20e6UdRBVxuBWtFKTEg4cAZl0sYJToiwMNGwx+F2IavVvSSOlFrJq+AZLZ32PrPHs0aDKumX2FqN7Ty2qUV/DoaNsPXZQ+/KMJZZYlecN1+f9g9p+f8e0sCwjAQ5onQdHFVZi+QYLZ32/FPPuOtQNqeXHj8LCbC3ZfTUT8uQ0YkL4X7tuvoGFxdWDetg3wMBJhD9RFlKYY1F72phOiS+9eMOPiEVkXHOCrKlEl6IqBdhagJl2T5msXyi9GqRcSSN3lP3OcmlymfFXqNCPPaMoBScXqj6PTDq+0E6Ei7hYadzu+eWWoRaB6n+eryyvAd7RFv8YdpEmxIc8cJpjk5gJx/CF84+mD4rFz0VOoLY/zGmI4FmYa801Ty9VyhJ0s0IEe4OzpcJRriPNnhRo2Gir4jrDt1w3dWqQeniSO1Gv6mEOITt0tYZjrh1/rOgZ4iR+8jyej01Ndm7YY6QoLtedOAjX5Gl5emuvvRSOwwJSdobifFIaAgBtISgnH7umWLXoRVVXltU86agjaTYDXyf9iUptKVNWsajMFy936Q3pqFw4myd/M4XMuIzBjJJZ/MBr6XAZ8v/LG7XLAwPotbPh8NqyN9GGg6kMhz4EnAq/o3zzHQUZ8vRs/gUDgeV7+NMXAAPp4hOysQuSHhyBGZyIWz+uBVG9njJvviZ99T+GI11J8GmqMniL5/pBV1xsUGGPi4nnokeoN53Hz4fmzL04d8cLST0Nh3FMHGb5fwVtecLy14XPMtjaCvt4j3E/JRWl6Eh6UViAj6BxuZHMoL85GdHhc7ZHrcOA4+U2qJm1x8gWK69RUhprkI4LdkmUYLTmBUzQVU9orFvPF2stCgKxaQy8VdoRlZz1khv2B27l5uHthLw5fl0CWn4EHBSWo4DlwMgJfb8BCpLieRg/D2+DNxXPQLeco3n97JX70/R3Hd34IF18RRti0w5TlbugvPYVdB5Pkv2rD5+ByYAZGLv8Ao/Xl7a/xXAIDGOgDj7KzUJgfjpCYchVt2kb7eVS0SR0BOkxdgCmvpODAqg04n14FVKbhdlweOGkm0nKKoTNxMeb1SIW38zjM9/wZvqeOwGvppwg17qniiXLD9uaL7yMltxTpSQ9QWpGBoHM3kM2Vozg7GuExSU3vKwD4/DSkKt6s57PO4mxMP7h9MEE+VU6pLxlrKnN5JL58bz2u91qHQ9sd0RaQT7U4cxnZ91OQW5qOpAelqMgIwrkb2eDKi5EdHY6YJF985X0b5TCA9Vsb8PlsaxjpGyg97xGg47/exjjDcHw5/wPsvRSBW38exqE/s+s+QGqJQaGmsjc4l/YYajNlOdz6S3Fq10HI0xWPnMuByBi5HB+M1geX0ZRrgobthOho2Rl6mWH443Yu8u5ewN7D1yGR5SPjQQFKKgCO5xWDtxokz2216Vb+/3m+poZ4cDwpBrqKf3MyEF/vib38IsHXJc967c+pzmUGOk3rU03JM7U05ICepeqPczMXUxdMwSspB7Bqw3nIu91txOVxkGamIUeao37fRmVQ4PORVtdBcPZsDPq5fYAJiqfTBBnqp0ZtsVFDZLcEy0ZLcOIUYWptMtacx9X3PxtYaMk3uk0pV6M8z0NyeQuc/70NAQ3/WmUdXoYqGQEcp/QwpxKJB7bgcpUYIrVx3hjP8aB6cd38OAcAHvlpqYofDOGRdfYsYvq54YMJBk1rn0b1IICBPMCRVZiP8OAbuKshjlp+zFGnzZuLMadbDo6+/zZW/uiL34/vxIcuvhCNsEE7bdf2lHlN07mFxtquQfke+xJSnpT/jyVLp+sn/ksLXjMmq6mb6cDlJMWLXTU4yvNbRfO313u5qTqVzm6cRvZ242iu63/ovQVu9E1QrvxFjMrrtGFELxr0hgt94uFJ65YtI6+rOY1f0ihNoHOb36QuQhFZz9hOFyIj6dQGR+oo1CXx3J10MT6Jrh1cTiPMBWRkt5R+CskkkiXToX+LqW17Mc3YGUYlRERlCXTMfQLZtNUnPbPuNHLZYYor40hy24fWv2FBQqElOW30ociCmhKUUcIxd5pg05b09cyo+8hldDhO/mLa9Q0jqNegN8jlEw/yXLeMlnldpRyOo8zTy2lIZ1Nq22sMLd0bQL+4WJF5zyn01Q3Fm1e1HlPi+U3k1FlIQqsZtP1MHD1OPE+bnDqTUGhFM7afobhHmspQn5R+XzKFPO/Uf3NHQ1muP6DbPuvpDQshCS2daKNPJNVespJHIdtoYnczMrO0o9lfBdDFtfbUe+wi8jgWQMH/t4EcOwpJVzyXdl6Mp6RrB2n5CHMSGNnR0p9CKLPRMcso4bg7TRB3INM2luQwbyddy6vZqJpSz26kafZ2NG6uK/3nvQXk9k0Q5XJEREUUc0rbuWSUfOjfJG7bnsQzvqZLIeraVNN5GrdJYxxJI34gl2FW1NbcmhymfkQeS4ZRj+Hz6LNDNyibIypLOEbuE2yorb4emXUfScsOxyn1E7lG7V2USaeXD6HOpm2p15iltDfgF3KxMqeeU76iG3lN7CtUTVGfDyQ9i2E0Z+mHtOrjD+ndmc702bk0+R8rUu5LSfIXwlSXuYJC1w8gA4E52c9bQ59++il9+ukntHLRGHr13z5Uknmalg/pTKZte9GYpXsp4BcXsjLvSVO+ukF51zfQiF6D6A2XT8jDcx0tW+ZFV+VvMSuRUdYfm2mqbQcyMbOm8at8yW+zAxnWvGSrMQZvUkGT67spMURUnXqWNk6zJ7txc8n1P+/RArdvKEgeHFTZxGvSuN2jENo2sTuZmVmS3eyvKODiWrLvPZYWeRyj4ND/0eY3LUko6kmzdpyj2LRo+n3rNOouFFHPmV70vzsPKNJ3E71lKSRRj5nk5RdD0ec205tdhCSynkHbLyRRUcwp2uDYkYS6Ypq78yLFJ12jg8tHkLnAiOyW/kQhf8Uptf8jNbmMiKgpfUpDnmmU80hDDtByHE5KET+40DCrtmRu7UBTP/KgJcN60PB5n9GhG5ma91VSHfU5DdSzoGFzltKHqz6mD9+dSc6fnaM0GREnuU0+698gC6GQLJ02kk9kQW0f0xQb9Ul/X0JTPOUvtNfRnMfVx7D2fKO2XJxETZ6XUfIPb1KnzlNoX0qjX0MgWcqf9JPH2yTW1yFB20E0c4n8Jdv3319C7775GrV75R06LtES5/WUJpyjzW92IaHImmZsv0BR0WebGefJVFkdRZ8P1COLYXNo6Yer6OMP36WZzp/RubS68je/HohkyYfo3+K21F48g3aGFauPo8vXW3DMUVvkBsoSjpP7BDF1MG1Dlg7zaOe1vCbE3tPnNW3nVn0NmsZNLxcdIk0zwRiGYV4UMkRvcsDwM1MRemsr7Bo9xn7RcUjYNgwOv05EUNQXeP2lKz/zopNFb4LD8DOYGnoLW1++DvLPJIvGJofhODM1FLe22jX+do5hnlBLzm5hGIZ5LhpPMWIYphbrIC8h1mhMy2IDfIZhXhIyFBY+AlcsgVTVXyt84clQUFAMWWkRHr3UEzuZF5WssBCPuGJIXs4O8s8kK0ThIw7FEmnjv3DOME9B6OHh4aG8kGEY5sVSieTLR/BHXlcMfs0EhemELgN6oq2qHwZ5IXHIvH4c/g87YlBfU0gzdNB1kDXM2SMWpoVUJl/GkT/y0HXwazApTP9/9s47LIpr/eNfdpdeRI1EJAoirsEKQhSxg8rP2GMUL0bF2LhJsESNiondEPUaE02uorHFFrnxeq1gi4BIE6UjGESKdGEXKbKwM+/vj6UsyzbUJGrm8zw8j+7MOec9bztnZs6ZAXXqC9vXJ0D+nkgycO3oVRS/0x+9TMqQQ53Q17Zt47cAODheBG4NPgcHBwcHBwcHB8cbBHf/iIODg4ODg4ODg+MNgpvgK1KTh6T7Ra/8dpeq7Dgk5Mp9vk0RtgKZSRkQP09HWlu2tec3owZ5SfdR9FxltYetyERShrjRrir1x5YjKzYckcmFcl+EfZOpQnZcApSpguM1pCobcQm5rfBdzv5/HizKs2IRHpmMwhfQd1V2ItJKXlLCfNHxriobiWklz1+eg4PjD4Ob4DfAihF3/HO429lhxJbwV3uzC5uF/bMHwXXBURS2yKwMcn/bCe8BXdHLcz/SWrWZr7VlW3u+PCzEccfxubsd7EZsQfgfpXAmF7/t9MaArr3guT9N9tEKFfpjHgXiC59tuBB5Dl96CNHno2NQ+RHSNwQ2az9mD3LFgqOF3CD92sMia/9sDHJdgKMtE4NSOPu/GMyDHzC5R3/MPvpQ/QdxmEcI/MIH2y5E4tyXHhD2+QjHWplc2OIoHPQdDrseY7A96gUT5ouOd2wxog76YrhdD4zZHtX68n8QbNFpfDpiCIa5jcHY99+Hh9swDBk6EmPefx/ve7hh2JChGP88/eXgeA3hJvgN8Mzh6LUMk4T0nB9v/iNhUXI3Fg8bxgOeDRb+HImIA3PQsYUF+ejs5osFw9vLfTlPW1pbtrXny8ODuaMXlk0SPkfZVsDvDDffBRjeXs6uyvTHFuHk8mVIeW8FfH23IfDnlXAxlf6hnyZvAVuCu7EPFb6u+MfCs1mInyMjcGBORy4ZvPbwYLPwZ0RGHMCclolBKa2y/1/gn682LHKDLuDh4LXwn9VNzfvLWRSdXI5lKe9hha8vtgX+jJUuppC2MrnwLFzgvXQ8uikeeB5edLzjWcDFeynGvxRhXh5U+ggiu8U4GnQVQZf/h68cihCd0AHzfr2My1eu4ld/d1BOgfqLMY7Ww+WGVxKNOf1vBc8MpsbKPkb9F1MVje/XHcEDuaxkbO2Ifp3rvz3eAj7Mzc2UflZbM60t29rz5eHBzNT4Ocu2Ar45zM2at9JCf7VRuB5eBWMzAwA8tHf/Csf2zsW7f+LrDKqiv8e6Iw/+5MHHGNaO/aDSlTheL4yt4divM7Q3p/b2/2v881WmHKn8qTj+w1RYqR1JaxF1PRxVxmYwAMBr746vju3F3OdILnxTU7y0IepFxzu+6YuV/yMQOGLOig/QVV/xAAAIYDF0BT6f9JbiAY4XhMsNryZq09LfDx50lOQraekDRN+8gZA7mRBrukStLUZaZAhCojMganauFKUPonHzRgjuZIoVrnSrkJOUjlIWqC1KQUREKorrI4UticLuOR9hZ0wW4q8G42Zy/XrHmjwkpio8VpeWISMmFGFxuXgm/7vsoJr2NZVVgqbzq/ORdDsEYXezUaHm2T9PicLV6ZsVP0R06C3E55SjNL8AVc0PN0NaloGY0DDE5SqRUE5/kpwYXLkahYflDJ6kXkfQlQhkVDScWI38pNsICbuL7GYdqUZOUhpKmBrkJ8QgraxJ0Or8JNwOCcPd7Ipm9qnKSUK6zMhIiYhAaoORwaIkajfmfLQTMVnxuBp8E8mNa2xVtc9C/DAaobfikVNeivwCFZpgK/AoJRMVLANRRhTCojNa6LQmLxGpiks6lNmv/AFuXwlCUFDzv+Dw9Pr9F2p8jBXjYXQobsXnoLw0H6rElVGFvMRwhEXeR7GkFkWZWahgCxB/LRhBQcG4lSYGCwb5d68gKCgIV6IeobpZeVU6U6AqB0nppWBRi6KUCESkFrccoBgRMmNvISwqDcWKz/W17pOirSpQEH8NwUFBCL6VBjELMPl3cSUoCEFXovCosTPVyE2U7U9hxJmIjYhDTkMbtUVIjQhHQr7iYu4a5CWmyi09U51bGkso2L9ljKn2z+qcJKSVMKjJT0BMWpnM5tJSPIi+iRshd5Cp6Gz1sKUpCAmu96Er0ciqBoBqZEVfQVBQMEJSShWL1KPatqrjSzVVeYkID4vE/WIJaosykVXBamkbANCHw/BeEMW2lKURSQ5irlxF1MNyME9ScT3oCiKakovKXAEAtcVpiAwJQXSGqCmWdHSabojUFiL5tpJ+aqF/GcrHO4CBKDMWt8KikNbC6eXRkStfi8Lk20piSE1OgLrxEmptrQq+0AMe76p+lgKYwH3cSBg1/FdZnoOWuaGmAMm3QxEen43yFuJp6LciLyKHIoo6bU3ubLUcqnODunFcGS8Wi+pjCdC+rufJI68q3ARfLQwyj8+By9TvkfCkEBH+HhAO2YhIBceSwaIkZCtme/8L17OLkbhnIoTOvjhXwAJMJo7PccHU7xPwpDAC/h5CDNkYiWqwKIk5iqUj7SAc649TBxfCY5wXZo1zQJ/JAchgWIjzS2HY1gQsK0GVWIzyyieIO/UFxth1w7CNYY2b6aqT9mOWx3wcjM9DxgU/+AY8aEoqKtvXoqwS1J/PoiB4MxYsD0Bo4h2cXj4EwmFrcb20Zci1RL2+axN3w9v3JHKlNUg9NBMuH/6ELKWxV42k/bPgMf8g4vMycMHPFwEP6iVkRS30R7VVKBdXoQ6EuqpyiMVPUcOwYAuCsXnBcgSEJuLO6eUYIhyGtddLUBh1CEtG2kE4egP2bfsQQ1wHYcDcYyhlCxC8eQGWB4Qi8c5pLB8ixLC111FSFIOjS0fCTjgW/qcOYqHHOHjNGgeHPpMRkMEArBj5pYZoa8KClVRBLC5HtRQq2pcl2cTd3vA9mQtpTSoOzXTBhz9lKSR+BrlhezB/gDV6eu3BiY1j0H/gaIwaZA+h2ybcLgdYURxOfTEGdt2GYWNYgyeptl/t/aPYGhCNvDIxxGIxnsTuw4KJU7HmYjH4pMbHahOx29sXJ3OlqEk9hJkuH+In5YZDdcoR+IybhW1XUpAW9i1mOHZFzyn7kca2Q5d3ivDzwklYcDAVUvDRrrMF0nfPxMTPA5HfYF6VOpODLUHM0aUYaSfEWP9TOLjQA+O8ZmGcQx9MDsho9GVx1Hfw9lyNwKQcpJ9fjqE9PbDpZv0FttZ9UmarHJh1eQdFPy/EpAUHkSoF+O06wyJ9N2ZO/ByB+XUoiz2O5aOE6D58AwLPrMfMGd74eOog2LssR3DsMXwyfgrmLpoGF/uhWB9ZDYCFKO4Uvhhjh27DNiKsRlNuUW5/pTFW29I/KwujcGjJSNgJR2PDvm34cIgrBg2Yi6N3j2OOy1R8n/AEhRH+8BAOwUYlCZNnaIKqa19h+ngv7M2yQAcDADBAe/5tbPG7iCpzE8UiKm0rLdEQX8qoTsERn3GYte0KUtLC8O0MR3TtOQX701i0U2sbWX2qZGmR5agWVeViVNUBVFeFcrEYT2sYsCpyRSkr88+QrbPh/a/ryC5OxJ6JQjj7nkOBXOW1j37Bsukz4bNwEhz7TMGB+vWbTKZ2+leJOArfeXtidWASctLPY/nQnvDYdBNq9/TWPsIvy6Zjps9CTHLsgykH6pdqqB131IyXrdHvc6Miz5UUaZUbyiO3Y/KE9Yiq00f5pU/hYv8eRo4Zh6lbbqJabb8VeTE5mqNCp0XmWuTO55RD6dilfhxvwQvGItTFUiM8jXWxz5NHXnWIQ46ndHiCAbX1+pWeERFJ79PXA43IaWMS1RFRXcwa6m3gQOvi6hQLElNwkjztPOjHbIaIiOqSd9Dwdp1oztlKkt7/mgYaOdHGpDoiqqOYNb3JwGEdyaqR0sMdg0nPzJmWnMskCRGJf51JFvpDaMdDKRExlP+DOxlYzafLNY2N0Y/u+mQ2/TRVERFVhdPKvrY095yo/oRKujjPinTfXUmRElLfvoayLdBwPlN0imaOXE1R9WWZ7F00XE+XHNfFUUutET09PIEM2nrRr8806VtCESt6k8OqKJltmEI6sWUPpSiptCp8JfW1nUtNIl6keVa69O7KSJKQEv0REVX9TJMMzMkzsP4XpohOzRxJq5s6QruG65Gu4zqKq2Moe9cI0jPsQ0uuFpMo5ToFJ5RQwamZNHJ1lKwNYih713DS03WkdXF1JH24gwbrmZHzknOUKTMyzbTQpyE7HpKUiIjJpx/cDchq/mWq0dR+VQSt6O1Aq6KeyQ4VnqAte1KU6FdCESt6kK6lG60Pfkx1VEWpB6aQFV+PnDYkUB0RMQU/kru+GU0/Leu3Ovs9S75IF9PqW6mIoC+dTMh86DcUV6PexyQRK6i3wyqSictQ4YkttEeZ4Sp+o6W9HWnl7QarSChixbuk33sNxdQRkTSVtgwwoB4rbtfrWEK3V/Qgw0Hf0O9SDTpTbE76kHYM1iMz5yV0TmYQ+nWmBekP2UEPpUQkukyLhPa0NFSmY6IqCl9uT3qWM+iXQkb7PklU2UpKqVsGkEGPFXS7XlzJ7RXUw3AQfSPrDOX/4E76Ri60JrSApEQkufcVOei2oUGrrtLjOiKqi6OvHPTJ1vemzGeIoYIf3UnfbDrJzKkptyjaX02MKfpnvW+M0DOkPkuuUrEoha4H36PILQPJyGkjydwghtb0NiAHFbFPVaG0VKhP9isjGuUvPDqLZuzLIVkWlUODbTXGVzMq6Lelvclx5e3G+JdErKB39XvTGpmjqbeNBllaUkU/TzIgc8/A+vYYKlKZKyRUcNKT7Dx+JNlQUkfJO4ZTu05z6GwlERXvIw8DUxq0NpSKGSKq+B/NsTSg4d9mEUNSuv91K/SvON6RiC4vEpL90tD6/xNVhS8nez1LmvFLYUubUDHt8zAg00FrKVQmDP1vjiUZDP+Wshj1OUHdeNl6/apCQreWCUlgOo1+aUz0MtTluTpNuaEuiTa/Z0LOm1NkvlV3j77sq0/dFoeQhNT3W5EXkkMBtTrVkDtfSA7F3KB2HFfkBWNRbSwptqeprtbmkVcf7g6+OvhC+BwNwwlfG+SGHMK2w1EQsRI8q2l5H0EUdArB+o5wrt/cJui1AiGleTgy2Rh8oQ+Ohp2Ar00uQg5tw+EoEVjJM8iq4cPExBh8Uwd4eHSFHgBjYXd05pVDXKZi+xPPFKYmTc9WK4P34khmH4wYaV7/iwG62lg2fg1PXfuayiqi6fzqkLMIznuAizv94e/vj20nnsFjwybMdjKUq0UFavUtgJXQGtnfTsSwOV/jTIouPNd+hp4tnsZWInjvEWT2GYEmEbvCxlKuRwr6U0p1CM4G5+HBxZ3w9/eH/7YTeOaxAZtmO8EQPBga6oFn5gz3oR1g3tMdHn0NEHY2GHkPLmKnvz/8/bfhxDMPbNg0G06GAN/EBMZ8Uzh4eKCrzMjo3pmHcnGZ8k1u6toXWEFonY1vJw7DnK/PIEXXE2s/66lkkx8PhoYG4HdwxSR3KwhgBHvvjVjgQEgKDUURC/BMTSGvCnX2E/Qah3E9BABbiuBVc/GvxyOx/fAKOOir9zGBlRDW2d9i4rA5+PpMCnQ91+KzloZD+aV9OF4xEGOcGh6g89GmjYn2jxnV6UzxXL4JTIz5MHXwgIfMIBB27wxeuRhlBJRdOIBfcu3Qz7FhcboRBnpOhvDJRZwMEmvdJ2htK0V4MDE2go5eV/R37gg+AD2hHawFQOf+g2ElACCwgXUnHZSLRPU+xIOpqYncnhbNuaW5/bWNMRk8Q0Po8czg7D4UHcx7wt3DEQM+OYqwE76wyQ3BoW2HESViIXlWo/zOq9Fg+H42BHlHv8WZIhZgshF4SRdTpnVuaXMNtm1VfJVfwr7jFRg4xqlxqQa/TRuYtGhUBRpk0Uw1QlTmChGCTgVD39G5/gUAAvRaEYLSvCOYbNxQ3gjvDhyADjwABl3QxQIQi0RgwYfQpxX6V6TsAg78kgu7fo6NeziMBnpisvAJLp4Mgljh9AaM3h2IATJh0EUmDESs+pygbrx8cf1qRl2e05QbIM1CZm5t0/JSQVd07QzkZ2XhmYbxVpEXkkMBtTrVwMuUQ/04rsCLxqLaWFI8VzOtyiOvAVqr8e8JD4Jn8di9wAeH8vvhYx83WPKUmZlBafET1IjLIFJ2mCfAs/jdWOBzCPn9PoaPmyXkq9FRWAipw+dDBwRWWV1A/drHhjIMctN+hxh8CFRZU2X7WpRthqbzWVSUlOKZvj0mr1yDNWsa/lZj6cQeWk1qVOubhy7zjuHaPk+Yhm7F9P494LrkLHIUn5wxuUj7XQzwBWqcW15/ymErSlD6TB/2k1fK9WMNVi+diB4CAIpbg9kKlJQ+g779ZKyUO3/N6qWY2EPQfO0sAOjwwdcBSIWR1bav1wXzjl3DPk9ThG6djv49XLHkbI6Kx7YKCLqhV3djoE4CCdWv6W0UTBv7scgL9MXCgxJM/zEA87rVXzip9DGA12Uejl3bB0/TUGyd3h89XJfgbEvDIf9hFioFetBVbxqVqNVZC+eT77fs/3yZQUBgUJTzGNVsLWrllrgLbKxhxauFWPQU0KpPAHjPb6sWPqrDg06zYUYHPB6avYVKR8HPFOtokVua2V/LGJND0VQ8wTPE714An0P56PexD9wseWoGRj5sZy/DNINL+HZfEmpSjuPm2zMwvp3ieVrYthXxxeQ/RFalAHrP6WgaZdGEulxhV47iJzUQlzVctGmCDx4fYKR1QKv13xymKAePq1nUNnd6WFvxUCsW4amS+ZkifJkwqIO6nKB+vHxh/WpEU55TlxsA6A3E+DFvI/3GFdlrlCX3kZbdFu4ThsME6vqtyAvK0Qz1OlXPy5QDGsbx5rxoLKqNpedxllbkkdcB1XMgDqDyMpZN8kPptB+w2csJFg3+0sLWfLzdxQqGRUE4faWs8Ve2NAgBJ9JRfnkZJvmVYtoPm+HlZNE40W1RzXOhg3ZvtYOgJhl34xXeu0YsWACVKtvXXLY5ms7nwayTJYzSAnHwhqjpGJOJoEuJmjcHqdU3g9zkx+jsvRs30lJwwa8vcvb6Yut1BTl02uGtdgLUJN9FSxFb9kgVPLNOsDRKQ+DBG2jqCYPMoEtIVNYRnhk6WRohLfAgmnc9CJeUFlCP2vYluUh+3Bneu28gLeUC/PrmYK/vViiqohEiOVvWobqGhYV9b3Rq8ZhGs/2k6QFYsPh/MPvnT/huqiV4YCEqLoVYpY8BTG4yHnf2xu4baUi54Ie+OXvhu/W6witIdWDetg3wOBZRKt8PzoeAryTZEoHRpLNWmYCPTt27wYxJQezdpoWjbK0Etbx30M/REqRVn2QXnKpsxZd1RiEPEEhV9/9wtIwxlVTi8rJJ8Cudhh82e8FJdcJsoo0Hli7qi/sHvsGmH++h10dyGyDleHm2BXTM26INHiM26pHKCy11tnlhWdTlipT26GJliKKg02gaSliUBgXgRLoqaRt4Dv3Lwe/UHd3MGKTE3m1aL87WQlLLwzv9HGHZytmC6nFH/XhJL6pfjWjOc2rhdcDkXXvhrX8D323ehZ1fn4XhF0E4Nt8GfLX9VuQF5WiGep0yanPny5RD0zjenBeNRbWxpMRZ1Nb1BtLKkH3TYcAwsokgC4Atf4jMokrkpD9CZU0uQi9EooCpRnlBPKKTK5uVbDN2LqZ3LsSxRR9g6b8D8d8TO/GpdyAErraofJiJosocpD+qRE1uKC5EFoCpLkdBfDSSK1kwjBTEyt1VI5JNmFkWAA8GBvrA0wLkl5UgOjwR1WDBsFQ/YeWhw4RZGP9WJg4u88PFnFpAko17ycVgRHnILhShUGX7d1Dkpq5sucLGIE1tlUNn9Fx4dc1CgOcIzNz0EwLPHIX//FWIMLZVegefkSkcLKtJ3+XIDdyOgHvVgIEN3vf7CtNsjKBvoHDlz+uACbPG463Mg1jmdxEyEe8huZiBKC8bheWyDYlN+qunthZ1VItaSf1vxqMx16srsgI8MWLmJvwUeAZH/edjVYQxbAWQZStpnVzyM8bouV7omhUAzxEzsemnQJw56o/5qyJgbCsAyzCQEiuXYAkEAlvva+AZQGbmfJSVRCP84WDV7evkInB7AGSqeB9+X02DjZE+FFXRAFuSjax6d2Xzz+N8Ym/4fOImewzPMmCJ0KAKY3X2q47FNx+vwe1uq3F4qzvaAgBECDp3DQUqfSwaiemB2B5wD9UwgM37fvhqmg2M9A0U7v7yYPF/H2CEYTS+mfkJ9l6Jwd3fjuDwbwVNiZ9vAauOesiLuop7RcW4f2kvjtwuhbQkF4+eVKBGo83kYBkwUgIrl+xlYSfzxTbjF8Onjwhndh1Cei0AsCi8FoLcwYvxyVB9MLna9Ek2wVduKz4srDpCLy8KV+8Vofj+Jew9chul0hLkPnqCihqAYVmFC22S+U3j6CT7N8s2jU4sw4Iay2jKLYr2Z1THmKJ/JsoyA0GKuoYgYMvxMLMIlTnpeFRZg9zQC4gsYFBdXoD46OT6kxQRoOeCpRhf9x98lzIIHzkpGqoeDbbVGF9y8Cz+Dx+MMET0NzPxyd4riLn7G44c/g0FTY6m3jZ89bK0pBa1dYTaWkm9LOpyRXuMnTsdnQuPYdEHS/HvwP/ixM5P4R0ogKsdv74/LZ/usiwLttX6bz7eoc14LPbpA9GZXTgkc3qwhdcQkjsYiz8ZihZvnqyPlRaTRlbmX+VqckLuUFXjpR34am3NovTaRnj+Ywtuyk3olEOoq60FSWvRkNYbUJvnNOQGQITLa9Yjd8p32LraF8s2bsfGWQ6QrQhV32+FacMLytEc1XMQO/A15E7+i8ihkBvCIu+rGcebK+CFY7FGXSwpBqOmulqXR14LFBfl/315RmkX15FHRz7xrSfT1nPJREwenV08gDqatqVuw+bT3ps/k7e1OdmO306RYsXyRFWpJ8jXTUgdTNuQlbMX7bxVTAwRMXlnafGAjmTathsNm7+Xbv7sTdbmtjR+eyRlJ54hP3cL4usKacbOy5SSfosOLXYlc54ROc4/QOF5DEkzDtM/hG2pvXAy7YwqpNQL62lsJz4JbCbT1kvpRMSQKOZH8naxprbmNuQ84TPaMM+Fug7yoi8PR1Jerur2xRrKFrTYWaX5/KrU4+TrZkdt9fXIrMtgWngkuWkzqxzP0i7SOo+OxOdb0+St5yhZrE7fErrt50rdHEaR9xcbaNPqhbTQ/wYVtpCPiBgRxfzoTS7WbcncxpkmfLaB5rl0pUFeX9LhyIct9FeXeYP+vXgItefxyGLkSgr4TyQ9lhJRVSod93Uju7b6pGfWhQYvPELJVQyV3jtFa0ZZEp9vRR5rT1HskwYhqij1uC+52bUlfT0z6jJ4IR1JriISJ9IZP3ey4OuScMZOupySTrcOLSZXcx4ZOc6nA+F5RCSljMP/IGHb9iScvJOiKlS1T0SS2+Tn2o0cRnnTFxs20eqFC8n/hrJNcHUU91U/0rN0oenzP6Vln39KH03xpC8vZMs2DFWm0oX1Y6kTX0A2k7fSpXTZVkfl9quhiDV9yYBnTk5eK2jVqlW0atUXtHTOMHr3H6eoQo2PF9/2I9duDjTK+wvasGk1LVzoTzeUGk5K+VfX0wT7DmRiZkMjlwVS0HpnMmzYZEtET8O30OguZmRm5UjTtt+kyyudqPvwObTh+B16wqjRWTPElHjGj9wt+KQrnEE7L6dQ+q1DtNjVnHhGjjT/QDjlMUR1Wedp7UQnchwxgxb882Oa5fMthRbJ5JZo2yd1tnoaTltGdyEzMytynLadbl5eSU7dh9OcDccpLOJ/tH6sFfEFtjR12wVKyo6n/26eSF34ArKd4k//S3hEsYHr6H0rPgm6TiH/oAwqS71A68d2Ir7AhiZvvUSxsRpyy+/JCvZ/qibGmvtnRPY9OrVmFFny+WTlsZZOxT4hhhjKO7uYBnQ0pbbdhtH8vTfpZ29rMrcdT9uVJcxGaih0qRNN2J+nxIflUGVbreKrOdL8q7R+gj11MDEjm5HLKDBoPTkbNmzsU2+bO08Y1bIoUpdJN/69mIa05xHPYiStDPgPRcqSi/JcQSQ7dsKX3IQdyLSNFTl77aRbxQyROIH+s2qkrJ+eO+hichqFHVxCg835ZOy0iA5F5bdC/0rGOyKiuiw6v3YiOTmOoBkL/kkfz/Khb0OLlNhFTAn/WUUjLfikK/SkHReTKS3sIC0ZbE58YydadCiK8tWOO6rHSyI1tiYpZfw4lt7uOJ72ZarZ9ih5SDePbKUPuumSDs+CRny+ly4kiZr1Q3me0yI31OXRyY+sSV8HBOiQDk+XDMwsqPtwHzp2X6J2vFe0wgvJ0dIoanWqKXc+vxwKY1e5unFcQeCXEYtqY0kBdXVlxrc6j7zq6BD9od8R5eDg+MuQIn6dMwadm4CIu5vhqHhD45WHQeoWFzifHo3QuK/x3msnP4dWsDnY570VHb4PwFTZY6E/HSZ1C1ycT2N0aBy+5hyNQx1sHs5vCkDFB95wZJ9AVF6J6koR8hNO42jBAgTtGd3yaQeH1nCx+PLgluhwcPwNeC0fL3K80TCVZRDVsKiM2Itrlh9h3F80uefg0B4Wecd8sTTBFv/X1xY9HQZg8HA3jB43FdM8nPFeL+VLUTk4/gq4CT4HxxuLFGVlT8GUl0Kk7oOUryxSPHlSDmmlGE9b7pfieJ2RJmLrCEtYWHTEu4vLMHvZ4MZXM/4VSJ88Qbm0EmLO0Tg0IDDvCMPflmCg20dYsnYTtm5Zjy8WzcI//2uLhfO7qXzFNId2cLH48uBv2LBhg+KPHBwcrzsSZFw7iqvF76B/LxOU5RA69bVF29dm9GGQd/sEgh9bwKGnKUS5OnjHwQbm3C2JNwNee9hYt0f7nlOx9l+r4Pb2X2dYJu82TgQ/hoVDT5iKcqHzjgNsOEfjUIoOTN4dh/mz3WAteIanlbXQMbPGoH8sxfJ/OKM95zYvBBeLLxduDT4HBwcHBwcHBwfHGwR3acTBwcHBwcHBwcHxBsFN8Dk4ODg4ODg4ODjeILgJ/gtThey4BOTKfd2b4zlgK5CZlAEx97oXtbAVmUjKEL/Sb8Wpyo5DQmsCoiobcQm5aEWJvw2t1uWbRE0eku4XvTxff0P9TDEnvLY+ozgGqLQXi/KsWIRHJqOw5cHXmJfTr6rsRKSVvLSoeanU5CXhfpGWsmntDxyq4Cb4LwibtR+zB7liwdHClzcQ/a1gkPvbTngP6IpenvuRxm2cVw6Ti992emNA117w3J/W+s+H/1mwWdg/exBcFxxFoVYBwSJr/2wMcl2Ao9oV+PvQal2+IbBixB3/HO52dhixJRwv5wVQr5ufSXBrrSt6DFuB4GIV8irLCa+lzygbA1TYi3mEwC98sO1CJM596QFhn49w7FHTl5xfW15Cv9jiKBz0HQ67HmOwPerlRI0mmKwwHPv2M0waNgRD3/8HFvn4wMfHBz4+CzDngzEY+dFepEoBVhyH45+7w85uBLaEa5KtFf7wPNRm4sI3n2PZpmO4U8ICTB7i4vKbvpj+JqH45SuO1lJJWffiKeeZ4u8c2iOh8M+FpP/uSoqUKB7jaEQSTp8L9endlZH0KqupMusexbcmICqz6F58DmlTgimOpTsZar5g+YbRal2+KTA59P1IfWrr9atWfqEVrfCzvxzJbVrhPIjWhin59Kc8SnLC6+kzSsaAFvZiqPDnKdTp/f1USkTMk+u06SMfOnT/T8wHTDHF3smQfQn8pfHy+iXN2E6D9d+muef/RPvX3KTPuvJJf8Jhetrs91T6bt5aCpF9IJ2YnO9ppH5b8vpVG9m08YfngaHiwI20dPMq+qBnG9K3dKEZc71o7TmR4olvBNwd/BfGGNaO/dD5r3yJ82sPH+bmZtBR/JmjOXxzmJu9+loytnZEv9YEhLE1HPt11uI96FWI/n4djjx4ZZ9fvHRarcs3BZ4ZTI1fsq9r7Wd/PUxONt754iQ2Dm2jeKg5SnLC6+kzSsaAFvaqRdT1cFQZm8EAAK+9O746thdz3/3z3v1bFf091h158JKfoL68fvFNTfGyw0YjfBO0MVEyldTvgVmfTcE79V/+4pm1RjZt/OE5cfTCl37f4My9RFzb5oWh41dh+XhzxbPeCJRY5e9NdW6ibI0YI0ZmbATicqrqj9SiKDUC4Qn5LdaA1eQlIlXusRErfojo0FuIzylHaX4BGmpAdS4S7xeBBQNxZiwi4nIaj9UWpSIiPAH5ipWDgSgzFrfCopBWrO7RFouKRynIrGDBiDIQFRaNDHHzh07VOUlIK2FQk5+AmLSypkdSjAiZsbcQFpWGxibYMtwPC0ZQUBCCgoIRnl4OFkBFxm1cCQpCcHh609q46nwk3Q5B2N1sVCg+PVN3TFqGjJhQhMXl4pnCIUCFXA1U5yAprQRMTT4SYtJQpuT5WlVOEtJLWaC2CCkREUgtbpmWGVEmYm+FISqtuMVSAJV2lIetwKOUTFSwDEQZUQiLzoBM7SwK4q8hOCgIwbfSIGYBJv8urgQFIehKFB5VN6+mOj8Jt0PCcDe7osVSL2lZBmJCwxCXq1RLass2worxMDoUt+JzUF6aj4IqLeV7Hp+tyUNiqtyStaocJKWXgkUtilIiEJFarDBA1iAvMbXZkoIWumdLELV7Dj7aGYOs+KsIvpkM2TLTauQkpaGEqUF+QgzSGhxBWooH0TdxI+QOMrWNA61tVoWcpHTIXCsFERGpUHQtaekDRN+8gZA7mfX+oAzNMdtCl1AVU+V4cPtKfbzK/QWHI70+ULWTqZ7aYqRFhiAkOgMixXPVxaVGW7dEuf/yoKNhMtD6XK3oZyzED6MReiseOeWlyC9oivDW161BLy2oRXFaJEJCopHRQsEA2g/E4I45uKMkL0FTTlDmMzUFSL4divD4bJQrSxKtkr0a+Um3ERJ2F9nNkrrmuGiB2jFAzl6SHMRcuYqoh+VgnqTietAVRGRUNJ6p3IfUxLrSGFLnvyxKonZjzkc7EZMVj6vBN5Est85dVfst8pjcMeD5+wUAtcVpiAwJQXSGqKlfOjpNk+LaQiTfVjLuqcmNLceJ5odbQ3VSIop6O6Fbw3UKT042VWjrD/Wo069y3fHQwVIP+b+XgtXvCGF/Jzi82xGmijPhVsXDq4tit/62sGWxOL58FITdh2ND4BmsnzkD3h9PxSB7FywPjsWxT8ZjytxFmOZij6HrI1ENgBXF4dQXY2DXbRg2hsnSfW3ibnj7nkSutAaph2bC5cOfkFVbhtjjyzFK2B3DNwTizPqZmOH9MaYOsofL8mDEHvsE46fMxaJpLrAfuh6RDRMJcRS+8/bE6sAk5KSfx/KhPeGx6Wb9xKYJJjcMe+YPgHVPL+w5sRFj+g/E6FGDYC90w6bb5WCLo3BoyUjYCUdjw75t+HCIKwYNmItjpYA46jt4e65GYFIO0s8vx9CeHth0swQszxjt9dPw73kTMGnrPZh3MgYPgNHbJojZtROxgnYw4rEoCN6MBcsDEJp4B6eXD4Fw2FpcL2VlkyWVx4DqpP2Y5TEfB+PzkHHBD74BD5qtgVMpF1uMqENLMNJOiNEb9mHbh0PgOmgA5h4rbSzLlsTg6NKRsBOOhf+pg1joMQ5es8bBoc9kBGQ0tCJG1Hfe8FwdiKScdJxfPhQ9PTbhZr1yldqxWZ5kkBu2B/MHWKOn1x6c2DgG/QeOxqhB9hC6bcLtch7adXkHRT8vxKQFB5EqBfjtOsMifTdmTvwcgfn1crAFCN68AMsDQpF45zSWDxFi2NrrkKmpGkn7Z8Fj/kHE52Xggp8vAh7IaUltWTlqE7Hb2xcnc6WoST2EmS4f4qcsVr18j0ta77OsCHGnvsAYu24YtjEMNWwJYo4uxUg7Icb6n8LBhR4Y5zUL4xz6YHJABhiwEMWdwhdj7NBt2EbUh5BS3Wc+yUepYVuYsCwkVWKIyytRGHUIS0baQTh6A/Zt+xBDXAdhwNxjKM48jjkuU/F9whMURvjDQzgEGyOr1caBDE02q0NJzFEsHWkH4Vh/nDq4EB7jvDBrnAP6TA6AzLUYZB6fA5ep3yPhSSEi/D0gHLKxKabr0RSzLXQJqI+p2vs4ujUA0XllEIvFED+Jxb4FEzF1zUUU80krmWSwKAnZitne/8L17GIk7pkIobMvzhXInEp1XGqytRK09V8FWp+rlflZLRJ3e8P3ZC6kNak4NNMFH/6UhdpW1y1DpV6aiw4AYEtCsHW2N/51PRvFiXswUegM33MF9eeqz0tqc4JSnwHKI7dj8oT1iKrTR/mlT+Fi/x5GjhmHqVtuorq1shcEY/OC5QgITcSd08sxRDgMa6+XoEhjXLRE9RigxF5Ui6pyMarqAKqrQrlYjKc1DFgVPlRSqCrWVcRQSZF6/2XFyC81RFsTFqykCmJxOaql6n1YWR5rPoa0vl+yobUEIVtnw/tf15FdnIg9E4Vw9j2H+hAFANQ++gXLps+Ez8JJcOwzBQceyjTLqMiNskLKxglFgbVDWn4fp74/jvutmBy3yh9UjBNZ6mwi1S5HtSYeXnkU1+z8nWHyfyB3fSNyWRNKBVIiktyjrxx0qc2gVXT1cR0R1VHcVw6kb+tLNxvWlRX8SO76ZjT9dBURSShiRW9yWBUlWyfGFNKJLXsopY6ImHz6wV2fjFzWUKiscrr3lQPpthlEq64+pjoiqov7ihz0bcn3Zg0RiejyIiHZLw1tXHNWFb6c7PUsacYvhcTIyU1EJIlYQT10LcltfTA9riOqSj1AU6z4pOe0gRLqiJjsXTRCz5D6LLlKxaIUuh6cQKWll2mR0J6Whja2QOHL7UnPcgb9UsgQUR0lbX6PDK3m0rn6paBM/mH6dGUQVRARU3SKZo5cTVH1a+SY7F00XE+XHNfFkUTNsbqqcFrZ15bmNq57q6SL86xIt2G9nUiDXEw27RqhR4Z9ltDVYhGlXA+mhNLmGpE+3EGD9czIeck5ypQQkfhXmmmhT0N2PCQpEYkuLyKh/VJqaiKcltvrkeWMX6iQUWPHZkgoYkUP0rV0o/XBj6mOqij1wBSy4uuR04YEqiMppW4ZQAY9VtDtej1Ibq+gHoaD6JvfpUTEUNGpmTRydVT9+lmGsncNJz1dR1oXV0dV4Supr+1calLTRZpnpVu/3lZ9WXkkESuot8MqipJ1hgpPbKE9KXVEmuRrtc8SEVNAP7rrk9n001RFRCR9SDsG65GZ8xI6JzME/TrTgvSH7KCHUpk8BT+6k77ZdDpdRWpjiMn/gdwNrGj+5fq2iKHsXSNIz7APLblaTKKU6xScUEwpXw8kI6eNlFRHRHUxtKa3ATmsi6O6ej9sEQfNXEeDTkhKD3cMJj0zZ1pyLpNkrjWTLPSH0I6HUiLpffp6oBE5bUyS6SdmDfU2cGhhE9IiZhV1qS7e6uqS6eLFNJK1UkERXzqRiflQ+iauplUyMQUnydPOg37MlimlLnkHDW/XieacrdQclxptLY8m/31KhycYqFyD3/pcreBnkgha0duBVsmCgpjCE7RlT4rMR1pbtya9yMMU0ElPO/L4MVuWw+uSacfwdtRpzlmq1JiXSENOaOkzVJdEm98zIefNKbJ143X36Mu++tRtcYjs/FbJXkSnZo6k1U0OSLuG65Gu4zqKq9MQF4poGgMU7SUrRD9PMiBzz0BZ3zT4kLJYLylQE0Oa/JfJpx/cDchq/mWSZSB17VepzGMtaU2/JFRw0pPsPH4kWYjWUfKO4dSu0xw6W0lExfvIw8CUBq0NpWKGiCr+R3MsDWj4t1nEkJTuq8mNqscJDdTdobV9dEnQdRTNW7SIFi1aRPO93Ki7lRf9p9F2RPT0ME0wULEGv9X+oGqcUKe7Os05qjXx8BrA3cGXg2diDCMdPXTt74yOfAB6QthZC4DO/THYSgBAABvrTtApF0FU//1fnqkpTBqfOwlgJbRG9rcTMWzO1ziTogvPtZ+hpwAAzwTGRjrQ69ofzrLKIbSzhgCd0X+wFQQABDbW6KRTDpGIgLILOPBLLuz6OTauOTMa6InJwie4eDII4oYm6+EZGsKA3wGuk9xhJQCM7L2xcYEDKCkUoUUseIaG0OOZwdl9KDqY94S7R1/g0gH8kmuHfo6NLWCg52QIn1zEySAxAAF6zvPBqOqzCAjMAwsGD05F4+3pbjABUB1yFsF5D3Bxpz/8/f2x7cQzeGzYhNlOhmqPVQbvxZHMPhgxsmHdmwG62lii4Ule2QUNcvEMYajHg5mzO4Z2MEdPdw/0bdfclfkmJjDmm8LBwwNd9QAYC9G9Mw/l4jIQynDhwC/IteuHpiYGwnOyEE8unkSQWI0dm8GDoaEB+B1cMcndCgIYwd57IxY4EJJCQ6H5bWDVCDkbjLwHF7HT3x/+/ttw4pkHNmyaDSfDSgTvPYLMPiPQpKausLFs0JK6snJNABBYCWGd/S0mDpuDr8+kQNdzLT5r2ZmWtNZnAYBnCtOmgAD4JjAx5sPUwQMeMkNA2L0zeOVilBEA8GBqaiL36FZb3aNe/3rgmTnDfWgHmPd0h0ffDnjX5yjCTvjCJjcEh7YdRpSIheRZDdj6OFGMAwXX0QAfJibG4Js6wMOjK2Su1R2deeUQlxHAF8LnaBhO+NogN+QQth2OgoiV4FlNS2fQFLOKulQXUxD0wrhxPSAAi9LgVZj7r8cYuf0wVjjot0omUdApBOs7wrmjTCmCXisQUpqHI5ONNcelRlvLo73/KqP1uVrBzwRWEFpn49uJwzDn6zNI0fXE2s96QpaqW1e3Rr3IIwrCqWB9ODp3lD0+F/TCipBS5B2ZDGONeUlTTlASf9IsZObWgtew3knQFV07A/lZWXimTa6VpzoEZ4Pz8ODiTvj7+8N/2wk889iATbOdYKgpLhTQNAa0sJdS1PuQslg3CFMTQ63yX2hovzV5TBF19YoQdCoY+o7OkIWoAL1WhKA07wgmGzeUN8K7AwegAw+AQRd0sQDEIhFY8CFUkxufe5yoh997Jnbt24d9+/bhwIkrOL2sL7Qt3Xp/UKVfdbrTPB61Kh5eA1o1tL3xyK9fk/0Ang4gH9s6PB5Acr/o6MitFeWhy7xjuLbPE6ahWzG9fw+4LjmLHAYA5M+TodOycvBAIABMUQ4eV7OorZVb6SmwgbUVD7ViEZ62HJsVEKBbr+4wRh0kElkjzZtnUJTzGNVsLZo3YQ0rXi3EoqeyCZHldPhMNcXNgINIrorBLw97Y6ajHgAWFSWleKZvj8kr12DNmoa/1Vg6sTueqTxmh4K03yEGHwKl3qedXBoyf0tb6vDB1wGIJYApQs7jarC1tXLraAWwsbYCr1YM0VOosaMGBN3Qq7sxUCdBvdpVw1agpPQZ9O0nY2WjjtZgzeqlmGhXgLTfxQBfoDxI1ZXt0Tyt8rrMw7Fr++BpGoqt0/ujh+sSnNWqM63z2fofoNOskGIdOuDLDNFYRqeZrdTFkDJaOgJP8AzxuxfA51A++n3sAzdLXnOR5f79PDTvH6DD50MHBLZ+Iil4Fo/dC3xwKL8fPvZxgyVPkyM0oBiz8rpUF289GgdSNi8QvgsPQjL9RwTM61Y/QGorE4PS4ieoEZc13sCQP6Y5LjXbupFW+K9SFONbi1zdzM94XTDv2DXs8zRF6Nbp6N/DFUvO5sge07eqbm300gRTWownNWKUtVSw5rwkylafEwAFnwGgNxDjx7yN9BtX8IgBILmPtOy2cJ8wHCatlJ2tKEHpM33YT14p539rsHrpRPQQaIoLeRjkqh0DZDTPC0rQwoeal9cUQ63wX2hqX6+VeUwOdfXalaP4SQ3EZSLlMrWADx4fYKR1gIbc+PzjhDIE6PvRbAzWakfs8/iDinGiTo3uegjq46NZrXI2bl08vA6oUSdH62GQm/wYnb1340ZaCi749UXOXl9svS5RPFEj/E7d0c2MQUrs3cZ1nmBrIanl4Z1+jrBUajkCyXlgXXUNWAt79O6kbDc+H526d4MZk4LYu02LcdlaCWp576Cfo2W9c5hgjI83hCmH8e2mUygfPgO2fADgwayTJYzSAnHwhqipWiYTQZeSYaTyWBLM3moHQU0y7sYr6IVYsFrL9QLwO6F7NzMwKbFoaoJFraQWvHf6wdGSWmdHIrnAr0N1DQsL+97oxAf4Ar6SAYJADACeGTpZGiEt8CCaqykIl5LM8FY7AWqS76Klmlj1ZRObr5tkcpPxuLM3dt9IQ8oFP/TN2QvfrdchgQb5/hJeNIYqcXnZJPiVTsMPm73gZNEwWdRuOMSL6qTyMpZN8kPptB+w2csJmpvXNmbVxVuibCOgNB0BCxbjf2b/xE/fTYUlD2BFxSgVaysTH293sYJhURBOXylr/JUtDULAiQy8/TLjshX++4fA5CL5cWd4776BtJQL8Oubg72+W6G1mzXSunzFf7sLrAyLEHT6Cho1zJYiKOAE0qEhL3V6S31OUAavAybv2gtv/Rv4bvMu7Pz6LAy/CMKx+Tbgt1J2nlknWBqlIfDgDTSZjEFm0CW0zmQ6aKd2DNCSVvuQFjHUGtS2L3n+PKau3pT26GJliKKg02gKURalQQE4ka4pQanPjerGieeB/7YlOtAjnD8braGO5/EHFePEb/qqdafUJ+RpXTy8Drxu8v6xMCxYEORzJQEgubtARASwbNOmMZYBSw1lGOQGbkfAvWrAwAbv+32FaTZG0DfQAcCAZRUSsazypnGWCAQWLAOgzXgs9ukD0ZldOJQu26nCFl5DSO5gLP5kKPSbammCLUF2VmX9v/Nx/nwievt8Arf6q2iCFHVyPt5m/GL49BHhzK5DkDXBovBaCHIHL8YnQ5taEDjOw8KhpTh5hjBhfPvG341Hz4VX1ywEeI7AzE0/IfDMUfjPX4UIY1u0UXnMDpYTZmH8W5k4uMwPF3NqAUk27iUXgxHlIbuwHLrayEWAVL4zCrAMAymxsjv2gGwiBQLLsmDRBuMX+6CP6Ax2HUqXvaWCLcS1kFwMXvwJhuqrs2NL2JJsNKn9PM4n9obPJ24wAB8WVh2hlxeFq/eKUHz/EvYeuY1SaQlyHz1BRY0xRs/1QtesAHiOmIlNPwXizFF/zF8VAWM7S0yYNR5vZR7EMr+LkKnpHpKLGYjyslFYrqO6rG3zO6BMbiC2B9xDNQxg874fvppmAyN9A+holK+VPgsAYMGw1FSGZcBICazchJlIVmfTKSyoMZGr1j3PwAD6eIqC/DKURIcjsRoNjtA0OLPleJhZhMqcdDyqrEFu6AVEFjCoLi9AfHSyrH2FOGiOJp2wYBgpiJW7MynrkMy3yh8is6gSOemPUFmTi9ALkShgqlFeEI/o5HonkUdtzDbXpbp4E6Aasd98jDW3u2H14a1wbyurUhR0DtcKtJepzdi5mN65EMcWfYCl/w7Ef0/sxKfegRC42qGdprjUwtZNqPF9WwEABgxTX1axKJ4vVzfzMyYXgdsDIHOz9+H31TTYGOlDlqpbV7e2eRQA0GYs5k7vjMJji/DB0n8j8L8nsPNTbwQKXGHH15CXDDtoyAnVLXwGEOHymvXInfIdtq72xbKN27FxlgMaFkK0Snbj0Zjr1RVZAZ4YMXMTfgo8g6P+87Eqwhi2AvVx0RweOmgYA6oV7QUAqEVtHaG2VlL/myYfahnramNIk//yDGCgDzwtyEdZSTTCE9XlYB2VeawlrelXe4ydOx2dC49h0QdL8e/A/+LEzk/hHSiAqx2/fnxr+dSEZVmwGnKjynGCLcW1jZ74x5abchd2crBS1EoJYBiFzfQSpB3ciGu1Qtl8hWHA1I/BzXkef1A1Tpio0Z1AY45qVTy8Diguyv/bUplK59ePJSu+gGynbqMLSdkU/9/NNLELnwS2U8j/fwn0KDaQ1r1vRXxBV5riH0QZZal0Yf1Y6sQXkM3krXQp/Snd9nOlbg6jyPuLDbRp9UJa6H+DCplKSj2/nsZa8UlgO5W2XUii7Pj/0uaJXYgvsKUp/v+jhEexFLjufbLiC6jrFH8KypAQ1WXR+bUTyclxBM1Y8E/6eJYPfRta1GKDLdVvduynZ0ku0+fTp8s+p08/mkKeX16gbCkRU3qPTq0ZRZZ8Pll5rKVTsU8a66jLOk9rJzqR44gZtOCfH9Msn28ptKhlC6L/zqPxmxLqN/E1UZV6nHzd7Kitvh6ZdRlMC48k128UUneMIVHMj+TtYk1tzW3IecJntGGeC3Ud5EVfHo6kAkaNXEwp3Tu1hkZZ8olv5UFrT8XSE0VxxYl0xs+dLPi6JJyxky6npNOtQ4vJ1ZxHRo7z6UB4HhHVUdb5tTTRyZFGzFhA//x4Fvl8G0qyrktU2FGhHaqjuK/6kZ6lC02f/ykt+/xT+miKJ315IbvpQyhPw2nL6C5kZmZFjtO2083LK8mp+3Cas+E43XnCEFEVpR73JTe7tqSvZ0ZdBi+kI8n1GmREFPOjN7lYtyVzG2ea8NkGmufSlQZ5fUmHIwvUl5VDctuPXLs50CjvL2jDptW0cKE/3WjojEr5fqLA4+ta6bNllHphPY3txCeBzWTaeimWEs/4kbsFn3SFM2jn5RRKv3WIFruaE8/IkeYfCKffky/Q+rGdiC+woclbL1F6jRrdSzPo8D+E1La9kCbvjKDse6dozShL4vOtyGPtKYp9whARQ3lnF9OAjqbUttswmr/3Jv3sbU3mtuPpm+BQlXHQDJU6OU43w/5Dfu4WxNcV0oydlykl/RYdWuxK5jwjcpx/gMJzc+ns4gHU0bQtdRs2n/be/Jm8rc3Jdvx2ilT4ZpG6mCWqVNBlOpGamKqJWEN9DXhk7uRFK1atolWrVtEXS+fQsHf/Qacq8rSWSdbGCfJ1E1IH0zZk5exFO28Va5EvxBptnddC2ar89xmlXVxHHh35xLeeTFvPJTcv9hy5OjFewc+e3iY/127kMMqbvtiwiVYvXEj+NwqJeY66ZalalV6UUJVKJ3zdSNjBlNpYOZPXzluyDZFEGvKSppzwsKXPMHl08iNr0tcBATqkw9MlAzML6j7ch47dl21DbK3sx33dyK6tPumZdaHBC49QchWROPGM+rhoYXz1Y8BDxbxQmUk3/r2YhrTnEc9iJK0M+A9FPpaq9CF1Y57yGNLGf6WUcfgfJGzbnoSTd1JUBalsX+sxpK51/ZJRRaknfMlN2IFM21iRs9dOulXMEIkT6D+rRsrGPc8ddDE5jcIOLqHB5nwydlpEh6LyVebG7ZFi1eOENIN+HPs2dRy/jzIV9ktLM3+jAxs+IKG+DvHaOtCUebJNtosWzaOPxvaidm99SCdKiehZGl1c50Ed+XyynryVziU3+yRW6/1B3TihUnfa2LiV8fCKo0PytyU4Xluk8evgPOgcJkTcxWZHLdawcrwEpIhf54xB5yYg4u5mcGrnaA1czHL84bB5OL8pABUfeMORfQJReSWqK0XITziNowULELRntPKnwRwcHK893BKdNw3Fp18cfwqc2jmeG855OP4QWOQd88XSBFv8X19b9HQYgMHD3TB63FRM83DGe71stX7LCQcHx+sHN8F/Q5CWleEpU45SUSu+LMHxgkhRVvYUTHkpOLVztBYuZjn+aATmHWH42xIMdPsIS9ZuwtYt6/HFoln4539tsXB+w1uWODg43kS4JTpvAJKMazjynzBklUshMLfBiOlz4W6rp3gax0tFgoxrR/CfsCyUSwUwtxmB6XPdwamdQxu4mOX4s5DkRePi+RAk5VeD39Ya/UdPwv/1ac9N7jk43nC4CT4HBwcHBwcHBwfHGwS3RIeDg4ODg4ODg4PjDYKb4GuArchEUob4+fbB1eQh6X7R85VlRHiQ9AhVir//hbyQLhR4mXW9PFhUZCYhQ6yNVAxED5Lw6FUy0AtSlR2HhFy5T/i1oArZcQlQe8pzUJOXhPtF2uicQx1V2YlIK1GtR832fdn8Mf7yetKa3NIKXmSM0QiL8qxYhEcmo/AFbKjJL/8qXu+8o0VssRXITMrAc7nci5TleGXgJviqYHLx205vDOjaC57701r3lTtWjLjjn8Pdzg4jtoTLPliiNQyyf9uJ2f27ou+8E8jW9HG6P4MX0YUiL7OulwiT+xt2eg9A116e2J+mXiom+zfsnN0fXfvOw4lXwkAvATYL+2cPguuCoyhUkdTZrP2YPcgVC44WvpQJBSuOw/HP3WFnNwJbwlsXJRxNsMVROOg7HHY9xmB7lAo9amFfbZDcWgvXHsOwIrhYow+8bH95XWlNbtGaFxpjtIB5hMAvfLDtQiTOfekBYZ+PcOxR63KdVn75F/Am5B31scUg97ed8B7QFb0896N1LvciZTleNbgJvir4neHmuwDD28t9tVNbeOZw9FqGScLnKAs+rN0+w9yhbZV8Sv4v4kV0ochz1MWW3EXsw9YNLq2F39kNvguGo70WW1L41m74bO5QtNW6B68BPBss/DkSEQfmoGNDVmBLcDf2YePXCXk2C/FzZAQOzOn4UhIHz9wRXssmQaiFzjlUw7NwgffS8eimeEAeZfZVg/KYq8Xd81eBaVvx1f9ZaPSBl+0vfykKsdAaWpNbtOaFxhhNsCg6uRzLUt7DCl9fbAv8GStdTCGVKJ6nHq388i/gtcw7rcrFfHR288WC4e3R+i6+SFmOV42WvsHRBN8c5mbKPi2tBTwzmBo/Z1nwYWxq/GoZ50V0oUir6qpC9PfrcOTBH38rgW9uDm3F4hubwviVMtCLY2ztiH6dDRr/XxX9PdYdeSD3lMUY1o79IHfKC8MzM8VzhwlHI3xTzXpUtK9qVMQck4Psd77AyY1D0ab5ERW8fH/5q2gZC62jNblFa15ojFFHLaKuh6PK2AwGAHjt3fHVsb2Y+27r37ujjV/+Fbxueael/2mKLT7Mzc3wfF18kbIcrxJv2BTl5SAty0BMaBjicp8pHgIAVOcn4XZIGO5mVyh5PNYADzpKIkRa+gDRN28g5E4mxGpuB+k0FCYpSu5HISqlEIrL7VTXxUL8MBqht+KRU16K/ILmC8W1k1/Gy9GFDLV1SUvxIPomboTcQWZDZ9gSRO2eg492xiAr/iqCbyajaSknA1FmLG6FRSGtWPExq/r+N0eKsowYhIbFQZlYQDXyk24jJOwusivkeqijU58ACdKS+4iKSlG6TlU7/bCoeJSCzAoWjCgDUWHRyFDiHCrrqs5BUloJmJp8JMSkoYwBUJ2LxPtFYMFAnBmLiLicxv0ctUWpiAhPQL6ivDV5SEwtBAsWJVG7MeejnYjJisfV4JtIrld8TV4iUuXXeChrWwkqfZXXoMcmqnMTZWtjGTEyYyMQl9MoOYpSIxCekN+KWACAWhSnRSIkJBoZIsWDKuyLKuQkpaOUBWqLUhARkYpihdmd6jarkZOUhhKmBvkJMUhTUApbEI9rwUEICr6FNDELMPm4eyUIQUFXEPWouvG8qpwkpMsEQEpEBFIVBZCn0R8B1BYi+baS8xvt24CSOFEbc+0xcHBH5NxJQ4uQU+EHLfwFQG1xGiJDQhCdIWp5R5wRITP2FsKilLShjNpipEWGICQ6Ay1Mq66uqhwkpZeCRS2KUiIQkVqsYvKuOhbU5yBozC2q/UeJXZSibIyRovRBNG7eCMGdTHFz/bJiPIwOxa34HJSX5kNptZIcxFy5iqiH5WCepOJ60BVEZFQ0HlaZg1TZVRu/fCGZWZSmhCA4KAhBQUG4Ep2FagCozkL0lSAEBYcgpVRRUuV5R+kYVA8rfojo0FuIzylHaX6B+r1xKn1STT9V+qNq/1MWW5CWISMmFGFxuWjpcmrah6ayAKrzkXQ7BGF3s9EsVWq0UXOq8hIRHhaJ+8US1BZlIquCRUH8NQQHBSH4VhpkKfEurgQFIehKFORSopp8rYjm/K0+frWNwVcbboLfjGok7Z8Fj/kHEZ+XgQt+vgh4IBcGbAGCNy/A8oBQJN45jeVDhBi29jqU5Y+WMMg8PgcuU79HwpNCRPh7QDhkIyKbOa8CVIRLvq5wdHXHkD42sJ/0PWIroaGuWiTu9obvyVxIa1JxaKYLPvwpS5YsWiX/y9SF+rqYzOOY4zIV3yc8QWGEPzyEQ7AxshqsOB+lhm1hwrKQVIkhLq+W9UMche+8PbE6MAk56eexfGhPeGy6WT8RUdN/RaqTsH+WB+YfjEdexgX4+QageReDsXnBcgSEJuLO6eUYIhyGtddL5QY2QtElX7g6usJ9SB/Y2E/C9zIDaa0fJjcMe+YPgHVPL+w5sRFj+g/E6FGDYC90w6bb5errkhYj6tASjLQTYvSGfdj24RC4uryHKf/8BKOE3TF8QyDOrJ+JGd4fY+oge7gsD0bssU8wfspcLJrmAvuh62U+w4oQd+oLjLHrhmEbw1DDipFfaoi2JixYSRXE4nJUPonDqS/GwK7bMGwMqwFYJW0PGoC5x0qbd1CtrzaHLYvF8eWjIOw+HBsCz2D9zBnw/ngqBtm7YHlwLI59Mh5T5i7CNBd7DF0fKRvINdTPloRg62xv/Ot6NooT92Ci0Bm+5wrAqrRvCYpijmLpSDsIx/rj1MGF8BjnhVnjHNBncgAyGHVtsiiOOoQlI+0gHL0B+7Z9iCGugzBg7jHIa4XXrgveKfoZCyctwMFUKcBvh84W6dg9cyI+D8xHXUkMji4dCTvhWPifOoiFHuPgNWscHPpMRoBMAJXUPvoFy6bPhM/CSXDsMwUHHjIt7Ss7U2mc1KqIOXHUd/D2XI3ApBykn1+OoT09sOlmCVgVfuC972ZzfwEAtgQhW2fD+1/XkV2ciD0ThXD2PYeC+phQ2YZc/5pgURKyFbO9/4Xr2cVI3DMRQmdfnKuvTGVdbAliji7FSDshxvqfwsGFHhjnNQvjHPpgckBGy0mPkliolilETQ7SlFtU+Q9U2kVp/lKEycTxOS6Y+n0CnhRGwN9DiCEb6+OkNhG7vX1xMleKmtRDmOnyIX7KUlIr1aKqXIyqOoDqqlAuFuNpDQNWVQ5iNdsVqvwSL0NmHgxNqnDtq+kY77UXWRYdYAAABu3Bv70FfherYG6ieZqjagwCgNrE3fD2PYlcaQ1SD82Ey4c/oYUYgHqfVNVPTf6oxP9a5OJ6qpP2Y5bHfByMz0PGBT/4Bjxo8mdV7WtTFiwKgjdjwfIAhCbewenlQyActhbXS1ktbVRPdQqO+IzDrG1XkJIWhm9nOKJrzynYn8aiXZd3UPTzQkxacBCylNgZFum7MXPi5wjMl0miPF/Lj8eQ2UBj/tYUvy8Qg68axNFIVfhK6ms7l86J6n+ovEjzrHTp3ZWRJCGGik7NpJGro0hCREQMZe8aTnq6jrQurq5ZPTKe0uEJBtTW61d6RkQkvU9fDzQip41JVEdEdTFrqLeBg4qydRSzpjfpWU2k3TGlJKVKSjowjWx09cl5UyLVqatLEkErejvQqqhnRETEFJ6gLXtSqK6V8r9MXaivS0r3vx5IRk4bKUnWGVrT24Ac1sVRHREx+T+Qu4EVzb9cU19YRJcXCcl+aahMr0RUFb6c7PUsacYvhcSo7L8iVRS+si/Zzj1HTWLNIyvdd2llpISIKaJTM0fS6ihZD4nJpl3D9UjXcR3F1dXrXM+KJu6OoVIpUWXSAZpmo0v6zpsosa51+pFErKAeupbktj6YHtcRVaUeoClWfNJz2kAJmupismnXCD0y7LOErhaLKOV6MCWUPKYf3PXJyGUNhRZIiUhC975yIN02g2jV1ccyn4n7ihz0bcn3Zr1emQL60V2fzKafpioiIiaffnA3IKv5l6lB80zBj+Sub0bTT1fV/6Ck7VKm/ux61PkqEdHTwzTBoC15/Vpvr/wfyF3fiFzWhJJM9Hv0lYMutRm0iq4+riOiOor7yoH0bX3pZo2G+pkCOulpRx4/ZhNDRFSXTDuGt6NOc85SpVr7SunhjsGkZ+ZMS85lkoSIxL/OJAv9IbTjoVR9m8RQ9q4RpGfYh5ZcLSZRynUKTiiVtS+HNHULDTDoQStu17cvuU0rehjSoG9+JykRSR/uoMF6ZuS85BxlygSgmRb6NGTHQ5Iq1EVERMX7yMPAlAatDaVihogq/kdzLA1o+LdZsrYV7asmTlrEnOgyLRLa09LQxoij8OX2pGc5g34pZFT6QXN/YajgpCfZefxI2TJjUPKO4dSu0xw6W6lFGwowBSfJ086DfpRVRnXJO2h4u04052yl5rqkD2nHYD0yc15C52TKpV9nWpD+kB30UJlyW8SChhykKbeo8x81dmlJ8zFGev9rGmjkRBtliZRi1vQmAwdZvpJErKDeDqtIVi1DhSe20J4U5bUSVdHPkwzI3DNQ5itq871EvV01+OXLkrkqdCkJ9e1pZURDPiuko7Nm0L6clr5DpJh31I1BEopY0ZscVkXJbM0U0okte0iZGOp8Ul0/NfpjC/9TkourwmllX1ua2zTI0sV5VqT77kqSuZya9jWUZYpO0cyRq6kpVe6i4Xq65Lgujqq0tlEF/ba0NzmuvF3vUzL7vqvfm9bE1BGRlFK3DCCDHiuoKSWuoB6Gg+ib36Uax+PmaMjfmuK3VTH4aqP50vZvQyWC9x5BZp8RGGle/5NBV9hYNqw7rEbI2WDkPbiInf7+8PffhhPPPLBh02w4GcpVowq+ED5Hw3DC1wa5IYew7XAURKwEz2qU358CAL7le3Dv3w58GKP3xzvx+RAdJIXdwhMdNXUJrCC0zsa3E4dhztdnkKLribWf9YSgVfK/TF1oqosPoc9RhJ3whU1uCA5tO4woEQvJsxrld+7KLuDAL7mw6+cou1MDwGigJyYLn+DiySCIVfZfgcpg7D2SiT4jRqJJLBs0dTEEZ4Pz8ODiTvj7+8N/2wk889iATbOd0NhFviXec++PdnzAuPfH2Pn5EOgkheHWk8pW6AfgGRrCgN8BrpPcYSUAjOy9sXGBAygpFKFFGuriGcJQjwczZ3cM7WCOnu4e6PuWGYyNdKDXtT+cO/IB6EFoZw0BOqP/YCsIAAhsrNFJpxwiUf1OKp4pTE1aPLRuBs/UFM1OUdZ2O4WU0kq/55kYw0hHD137O0MmuhB21gKgc38MthIAEMDGuhN0ykUQkYb6RUE4FawPR+f6jWiCXlgRUoq8I5NhrNa+fJiYGINv6gAPj67QA2As7I7OvHKIy0h9m+DB0FAPPDNnuA/tAPOe7vDo267Vj0r5JiYw5pvCwcMDXWUCoHtnHsrFZWo2VRrh3YED0IEHwKALulgAYpFIFkeK9tU2TgCUXTiAX3Lt0M+xMeIw0HMyhE8u4mSQWKUfNPcXEYJOBUPf0bl+k68AvVaEoDTvCCYba9GGAqKgUwjWd4Rz/Y5hQa8VCCnNw5HJxprr4pvAxJgPUwcPeMiUC2H3zuCVi1GmWrlNaMpBmnKLOv9phV0U4Qt9cDTsBHxtchFyaBsOR4nASp5BVq0Q1tnfYuKwOfj6TAp0Pdfis57a1AoN+V69XWWo9suXJbPRYF98NiQPR789gyIWYLIDcUl3CqZ11iby1I1BAlgJrZH97UQMm/M1zqTownPtZ1AmhjqfVNfP5/FHxVxcGbwXRzL7YETTIIuuNpaNXytW176mstUhZxGc9wAXd/rD398f2048g8eGTZjtZKi9jcovYd/xCgwc4wSj+p/4bdpAi4crMtTma0U05G9N8fsCMfiqoa1633yYXKT9Lgb4AuVKYStQUvoM+vaTsXLNGqxp+Fu9FBN7aGN6HgTP4rF7gQ8O5ffDxz5usOSpiF5l8DrAtqs5dBgp6tTVxeuCeceuYZ+nKUK3Tkf/Hq5YcjYHTGvkf5m60FQXAJ7gGeJ3L4DPoXz0+9gHbpY8lZMYpigHj6tZ1NbKrcIW2MDaiodasQhPoaL/8pUAYHLTIBNLuVRsRQlKn+nDfvLKpv6tWYPVSydCsYsyeOhg2xXmOgykklboRykCdOvVHcaog+TZU811tZiX67RYm6vD02n+ViYdHniQfwOHTtO+D1XotKy3ZduKqPFVZciv2ZX9gJai89D0igfV9TOlxXhSI0ZZw0WMHJrsq6gLHT4fOiCwBLVt1p8t9+/nRFEPOnzwdQCSCaAFfPD4ACOtq/+/gn1V5YmmM+phUJTzGNVsLZqHnDWseLUQi57KLiCUdVneX5hSFD+pgbhMpCS2tWyjEQalxU9QIy6TXeQpHNNcl6If64AvU64S2VqiKQeJstXnFrX+o7VdlMAT4Fn8bizwOYT8fh/Dx80STdXOw7Fr++BpGoqt0/ujh+sSnM3Rqlb1+d6uXI1dlaHgly9LZr4tZi+bBoNL32JfUg1Sjt/E2zPGo53ieSpQPQbx0GXeMVzb5wnT0K2Y3r8HXJecRUsx1Pmk+n62zNda+GOzXMwgN+13iMGHapdT1b6msiwqSkrxTN8ek1fK2X7Naiyd2AN6WtqIyX+IrEoB9HSVJQrNaMrXiqjL35riV9s5xOuAUpP+LdFph7faCVCTfBfxCq8DI5YFeGboZGmEtMCDuCFqOsZkBuFSoharsyovY9kkP5RO+wGbvZxg0eCUKiNYkWqUPHmGLg798Xa1mrqYXCQ/7gzv3TeQlnIBfn1zsNd3K67XtUL+l6kLTXWhEpeXTYJf6TT8sNkLThoUw+/UHd3MGKTE3m1cPwi2FpJaHt7p5whLUtF/hbZ12r2FdoIaJN+NR/NDBFkXO8HSKA2BB2+gqYsMMoMuQbGLDVSXPMGzLg7ob2muvX4aIZDcLKauugashT16v9P2Oep6hXhhv9eAmvr5b3eBlWERgk5fQVnD+WwpggJO4Hfj1tu3ETVtag1fAH7jBUMTRH/SMKIqT7R4FSIfnbp3gxmTgti7TRsn2FoJannvoJ+jpXaDCP9tdLEyRFHQaVxpMgZKgwJwIh2tbIOPt7tYwbAoCKebKgNbGoSAExl4u1V1tR5NOajTW+pzi1r/0douLam8vAyT/Eox7YfN8HKyaLzjKKs2GY87e2P3jTSkXPBD35y98N16XUE+FajL9ynt1dhVsy+/TJnbeCzFor73ceCbTfjxXi98NLLhXrEm1I1BDHKTH6Oz927cSEvBBb++yNnri60tDKLOJ9NRrqafL44O2r3VDoKaZNxtOchC5nKq2tdUlgezTpYwSgvEwebGR9ClREi0tJGOeVu0wWPERj1SOVHmC/hKLmoIxDzfeKwKTfGr7RzideBFc92bA68DJswaj7cyD2KZ30Xk1AKS7HtILmYgystGYbkORs/1QtesAHiOmIlNPwXizFF/zF8VAWNbJZeQYMAwskksC4Atf4jMokrkpD9CZU0uQi9EooCpRnlBPKKT6zdmKkDV5RDXO1VN0kEcf/h/+GrJIAjU1ZWYjsDtAbhXDRjYvA+/r6bBxkgfBjrG2sv/MnWhqS5RIR5mFqEyJx2PKmuQG3oBkQUMqssLEB+dDJ6BAfTxFAX5ZSiJDkei7ngs9ukD0ZldOJQu2/nOFl5DSO5gLP5kKPSZXBX9VxRrAmaNfwuZB5fB72IOaiFB9r1kFDMi5GUXolxnNOZ6dUVWgCdGzNyEnwLP4Kj/fKyKMEZjF6ka5U0GwsHjD/F/Xy3BIL1W6LoBtgTZWQ0bdPNx/nwievt8AjcDLeoiQFonn+UYsGzDBVQ9BIDk7tgTgcCCbcy2LBiWmsrwDGCgDzwtyEdZSTTCE6sBlgFL9ZOUxnoU226ORr9nGDAgsA2VMizYholQPTLRm9I+EQEsC0ZT/blDMXd6ZxQeW4QPlv4bgf89gZ2feiNQ4Ao7M3X2ZcEwUhArNwEnkg14LKu+zeTKBqWo3ZTFt7BCR708RF29h6Li+7i09whul0pRkvsITypqwDIMpMTK3bEnUL2emt/NliH7veUFQ9P5CvZVEyeKMZftthg+fUQ4s+sQZCHHovBaCHIHL8YnQ/Vl9Snzg2b+0gZj505H58JjWPTBUvw78L84sfNTeAcK4GrHR5vxWrQhR5uxczG9cyGOLfoAS/8diP+e2IlPvQMhcLVDO011sQwYKYGVm0zIzMs29+0GFGMh201tDjLUkFtEhWr8R2X+VhQKCmMMi/KHmSiqzEH6o0rU5IbiQmQBmOpyFMRHIzE9ENsD7qEaBrB53w9fTbOBkb6B0gcvQC1q6wi1tZJ631GXg9qrtat6v3yZMgMQ9MSCpeNR95/vkDLoIzipSLUAmucdtlzNGJSI3MDtCJAZBO/7fYVpNkbQV2IQ1T5pi0o1/Ux+qsEfFf2vRS7mocOEWRj/ViYOLvPDRdkgi3vJxWBEecguFKFQZft3UOSmrmw5dEbPhVfXLAR4jsDMTT8h8MxR+M9fhQhjW+jkamcjnsX/4YMRhoj+ZiY+2XsFMXd/w5HDv6Ggcfzhw8KqI/TyonD1XhGK71/C3iO3USotQe6jJ6jgq8vXzdsC1OdvtHk5c4jXAsVF+X9rGBHF/OhNLtZtydzGmSZ8toHmuXSlQV5f0uHIAiKqotTjvuRm15b09cyoy+CFdCS5YcuIPM8o7eI68ujIJ771ZNp6LpmIyaOziwdQR9O21G3YfNp782fytjYn2/HbKVKsWJ6o6vfztOWj4fTesEnk/eliWvDJZrrwsH5LiLq6im+Tn2s3chjlTV9s2ESrFy4k/xuF9Zv8tJX/ZepCU115lHd2MQ3oaEptuw2j+Xtv0s/e1mRuO562R4qJpBl0+B9CatteSJN3RlEFEVFdFp1fO5GcHEfQjAX/pI9n+dC3oUWyPkrU9b85jCiGfvR2Ieu25mTjPIE+2zCPXLoOIq8vD1NkAUNUlUrHfd3Irq0+6Zl1ocELj1BjF6t+p/NbPqLh7w2jSd6f0uIFn9DmCw8bN+20Rj91cV9RPz1Lcpk+nz5d9jl9+tEU8vzyAmU3bvhTURdTSvdOraFRlnziW3nQ2lOx9ISppNTz62msFZ8EtlNp24Ukyo7/L22e2IX4Alua4v8/SngUS4Hr3icrvoC6TvGnoIwySr2wnsZ24pPAZjJtvZRORFLKOPwPErZtT8LJOymqMJUurB9LnfgCspm8lS7dz1fSdvN+EWnw1cI0urjOgzry+WQ9eSudi7lD59ePJSu+gGynbqMLSdkU/9/NNLELnwS2U8j/fwn0KDaQ1r1vRXxBV5riH0QZz9TULyaiqlQ64etGwg6m1MbKmbx23pJt9iPZMWX2FSeeIT93C+LrCmnGzsuUkn6LDi12JXOeETnOP0Dhubkq2vyGgkNP0ZpRlsTnW5HH2lMUq1QpRERPKXzLaOpiZkZWjtNo+83LtNKpOw2fs4GO3wyjM37uZMHXJeGMnXQ5JZ1uHVpMruY8MnKcTwfC85pXJU6g/6waKTvfcwddTE6jsINLaLA5n4ydFtGhqIct7asuTpTEXF3WeVo70YkcR8ygBf/8mGb5fEuhRYwKHySiSgV/Sa+R+fEJX3ITdiDTNlbk7LWTbjUaQ00bKqhKPUG+bkLqYNqGrJy9aOet4sY4V12XmBLP+JG7BZ90hTNo5+UUSr91iBa7mhPPyJHmHwinvBZNKsSCTCGqc5Cm3JKnyn805W95Wo4xTN5ZWjygI5m27UbD5u+lmz97k7W5LY3fHknFt/3ItZsDjfL+gjZsWk0LF/rTDSWbl6kuk278ezENac8jnsVIWhnwH4p8LFWdg4hU21WjXxa+HJnlqQmlpU4TaH9LIzbxTCHvJIvVjEHFdNvPlbo5jCLvLzbQptULaaH/DVIlhiqfVN3Pa3Rboz9qyMXpNUTEkCjmR/J2saa25jbkPOEz2jDPhboO8qIvD0dSXq6q9iNJrKGsbCg8Tr5udtRWX4/MugymhUeSqYqIJK2wkTT/Kq2fYE8dTMzIZuQyCgxaT86GDZtsiehpOG0Z3YXMzKzIcdp2unl5JTl1H05zNhynO080jMdyaMzfeYz6+FWXG18zdEj+1hgHB8efjjR+HZwHncOEiLvY7NjidgQHBwcHhxawOfvgvbUDvg+YiraKBzleKZjULXBxPo3RoXH4+j1u3Psj4JbocHC8KihbHsDBwcHBoQYGlWUi1LCViNh7DZYfjeMm9xwc3ASfg+OvR1pWhqdMOUpFil/T4+Dg4OBQhzRxK0ZYWsCi47tYXDYbywY3vPyQ41VG+uQJyqWVED9Vt1uJ40XgluhwcPyFSDKu4ch/wpBVLoXA3AYjps+Fu62e4mkcHBwcHMqQZuPKvhNIfmsMZk93lr1vn+OVhsm7jWMnryC9tA66bW3h5vkxRtg0vHmf42XBTfA5ODg4ODg4ODg43iC4a10ODg4ODg4ODg6ONwhugq9AVXYi0kq43Y5NVCE7LgG5ch99+1NhK5CZlAExZ5KXAIuKzCRkcMrk4ODg4OB4o+Em+PWwxVE46Dscdj3GYHsUt9mxATZrP2YPcsWCo4V/8kteGOT+thPeA7qil+d+pHH7cF4IJvc37PQegK69PLGfUyYHBwcHB8cbDTfBr4dn4QLvpePRTfHA3xyezUL8HBmBA3M6/snOwkdnN18sGN4e3C6RF4ff2Q2+C4ajPadMDg4ODg6ON54/d872isM3NYXx6/g54j8UY1g79kPnv+TNY3yYm5u1+Ow1x/PBNzeHGadMDg4ODg6ONx5ugi+Pjk7TZLK2EMm3I5BarLCcQVqKB9E3cSPkDjLFTPNjzWBR8SgFmRUsGFEGosKikaFwfnVOEtJKGNTkJyAmrQyNRxkRMmNvISwqDcUKq4XYikdIyawAy4iQERWG6AxxU7kG1JRHdQ6S0krA1OQjISYNZY2Fa1GcFomQkGhkiJrXWJOXiNTC5gt0GFEmYm+FISqtGIpNVOUkIb2UBWqLkBKhRIeQovRBNG7eCMGdTCXyS8uQEROKsLhcPFM8Bg39a4AtQPy1YAQFBeNWmhgsGOTfvYKgoCBciXqE6obzqnKQlF4KFrUoSolARGoxFKWVR6P+VeqXgSgzFrfCopDWKDSLsvthCA4KQlBQEILD01HOAqjIwO0rQQgKDkd643r5auQn3UZI2F1kVygullJ3TIqyjBiEhsUhV7kylcjVQDVyktJQwtQgPyEGaU2d4eDg4ODg4HiF4Sb4Sqh99AuWTZ8Jn4WT4NhnCg48lE1smMzjmOMyFd8nPEFhhD88hEOwMbJxqtgIkxuGPfMHwLqnF/ac2Igx/Qdi9KhBsBe6YdPtcrDFUTi0ZCTshKOxYd82fDjEFYMGzMWxUkAc9R28PVcjMCkH6eeXY2hPD2y6WQKWyUXYnvkYYN0TXntOYOOY/hg4ehQG2Qvhtuk2yuvbVlmeLUbUoSUYaSfE6A37sO3DIXAdNABzj5WCLQnB1tne+Nf1bBQn7sFEoTN8zxVAKorDqS/GwK7bMGwMa9hlK0bUd97wXB2IpJx0nF8+FD09NuFmCQu2JAZHl46EnXAs/E8dxEKPcfCaNQ4OfSYjIKN+cshk4vgcF0z9PgFPCiPg7yHEkI2RjRPu6qT9mOUxHwfj85BxwQ++AQ+aTaBV9k/uHAAArx26vFOEnxdOwoKDqZCCj3adLZC+eyYmfh6I/LoSxBxdipF2Qoz1P4WDCz0wzmsWxjn0weSAjJYXHZr0r0a/EEfhO29PrA5MQk76eSwf2hMem26ihOXBuL0+0v49DxMmbcU9804w5gEwehsmMbuwM1aAdkY8sAXB2LxgOQJCE3Hn9HIMEQ7D2uulYAG1x1CdhP2zPDD/YDzyMi7AzzcAD5orU4VcLIqjDmHJSDsIR2/Avm0fYojrIAyYewylcsU5ODg4ODg4XlGIo4nifeRhYEqD1oZSMUNEFf+jOZYGNPzbLGJISve/HkhGThspqY6I6mJoTW8DclgXR3WK9RCRJGIF9dC1JLf1wfS4jqgq9QBNseKTntMGSqgjYrJ30Qg9Q+qz5CoVi1LoenAClZZepkVCe1oa+qy+lioKX25PepYz6JdChkgSQSt66JKl23oKllVKB6ZYEV/PiTYk1BGJNJRnsmnXCD0y7LOErhaLKOV6MCWU5NFJTzvy+DGbGCKiumTaMbwddZpzliqJiCn4kdz1zWj66SoiIhJdXkRC+6XU1EQ4LbfXI8sZv1AhQyR9uIMG65mR85JzlCkhIvGvNNNCn4bseEhSIpLe/5oGGjnRRpkSKWZNbzJwWEdxdbK6Vva1pbnnRPWVV9LFeVak++5KipSQ5v4pIk2lLQMMqMeK2yQhIiIJ3V7RgwwHfUO/S4lI+pB2DNYjM+cldE4mLP0604L0h+ygh1LFykiz/pXpt7SULi8Skv3SUGpS2XKy17OkGb8UEkNEdUmb6T1DK5p7Tiw7gcmnw5+upKAKImKK6NTMkbQ6StYDYrJp13A90nVcR3ESNcfqqih8ZV+ynXuOGrV5cR5Z6b5LK2XK1CAXQ9m7RpCeYR9acrWYRCnXKTihVOYjHBwcHBwcHK803B38Fhjh3YEDZF/DM+iCLhaAWCQCCz6EPkcRdsIXNrkhOLTtMKJELCTPalrePQbAMzSEAb8DXCe5w0oAGNl7Y+MCB1BSKEKLWPAMDaHHM4Oz+1B0MO8Jd4++wKUD+CXXDv0cGxa8G2Gg52QIn1zEySAxwDOEoQEfHVwnwV1WKbw3LoADJSE0tAhPLmhRXo8HM2d3DO1gjp7uHuircwWngvXh6Fy/iVbQCytCSpF3ZDKMAfBMTWHSuG6pDBcO/IJcu35oamIgPCcL8eTiSQSJAb6JCYz5pnDw8EBXPQDGQnTvzEO5uAwEgC/0wdGwE/C1yUXIoW04HCUCK3mGGhaoDN6LI5l9MGKkeX3lBuhqY4mG79uVaepfa+GbwMSYD1MHD3jIhIWwe2fwysUoU7YXVYP+WWX6xSUc+CUXdv0c0aQyT0wWPsHFk0EQAxD0nAefUdU4GxCIPBZgHpxC9NvT4WYCoDoEZ4Pz8ODiTvj7+8N/2wk889iATbOdYKjuWGUw9h7JRJ8RI9Goza42sGxSpga5eDA01APPzBnuQzvAvKc7PPq24x75cXBwcHBwvAZw47Va+ODxAUZaBwDgCZ4hfvcC+BzKR7+PfeBmyYOyeaByBOjWqzuMUQeJRFaq+X5HBkU5j1HN1qJW7p3zAhtrWPFqIRY9VXohIejWC92NgTpJNQq1Ka+wyZIpLcaTGjHKRCp6oqMDnYYyTBFyHleDra1FUxMC2FhbgVcrhugp23wfAwDo8MHXAYitr58nwLP43Vjgcwj5/T6Gj5sleATZazHTfocYfAiUeuXz6Uc9cn2r/z9fJqzWdm3Sv0RWRlG/RTl4XM2itrnQsLbioVYswlMWAM8S032mwvRmAA4mVyHml4foPdMRegDYihKUPtOH/eSVWLNmTePf6qUT0f2Z6mN2BWn4XQzwlStTO7kUO8PBwcHBwcHxWqB89OdQQiUuL5sEv9Jp+GGzF5wsBPW/q5sKEkhu1llXXQPWwh69OzXcRpWHj07du8GMSUHs3aZ1/WytBLW8d9DP0bLRWNS8UtSwFrDv3RmdtSwvD//tLrAyLELQ6Ssoa/iRLUVQwAmkKy5E53dC925mYFJi0dQEi1pJLXjv9IOjpbIWmlN5eRkm+ZVi2g+b4eVkgSYt6qDdW+0gqEnG3XhJ80LEgm2FfprgQ8CXu7hogKjlGvtWoFz/nRqfNMjD79Qd3cwYpMTebdrYy9ZCUsvDO/0c0aAykzE+8Bam4PC3m3CqfDhm2Mpq45l1gqVRGgIP3oCosVYGmUGXkGyk+liS2VtoJ6hB8t14NNcmgWW1l4uDg4ODg4Pj9YMbxuVgWRYsCIrzQZZlwbLleJhZhMqcdDyqrEFu6AVEFjCoLi9AfHRy8wINsCXIzqqs/3c+zp9PRG+fT+BWvyaCIEWd3Ctb2oxfDJ8+IpzZdQjptQDAovBaCHIHL8YnQ/Xrz2JRkp0FWa0s8s+fR2JvH3ziZqBdeQKkzRodi7nTO6Pw2CJ8sPTfCPzvCez81BuBAlfY8QGwDFiSTQqBNhi/2Ad9RGew61C67O05bCGuheRi8OJPMFQfYBkGUmLlJtUEAtXrlkX5w0wUVeYg/VElanJDcSGyAEx1OQri76DIbRbGv5WJg8v8cDGnFpBk415yMRhRHrILy6GrTf/k4VvAqqMe8qKu4l5RMe5f2osjt0shLcnFoycVqGEZMFICK3fHnggglq3vrzJU6x9Qpt/xWOzTB6Izu3BIJjTYwmsIyR2MxZ8MRaPUAkfMWzgUpSfPgCaMR/uG341HY65XV2QFeGLEzE34KfAMjvrPx6oIY9i2UX3MznICZo1/C5kHl8HvYg5qIUH2vWQUMyLkZReiXFcbuQiQ1jV7qxBbeg0bPf+BLTebLik4ODg4ODg4Xi34GzZs2KD449+S8kSc2fEtDoU/wBPGFLb27VF0+QAOnI5CupiHdxxGYkKvGtw8/m/sOnQdJT0+wjj9G/jfzXx0+WAuBr/T/EXxbOFN7P8pDhVMFuIjQ3H5xEkkdPdDwJfDYC6Ow+lvv8exW2nIFrHoZN8PPTsZQUe3M4b9Xx9UXfse3xy8ibsxwQh+/B427lkMJ1MdgC3Ezf0/Ia6CQVZ8JEIvn8DJhO7wC/gSw9rxAHXljUWIO/0tvj92C2nZIrCd7NGvZycY6Rigu/sYdCu/g4unfsYvVzNgOn4zdv6zH0yq7+Piv77F/pB0FNUZQth/AHo6uOH/+lTh2vff4ODNu4gJDsbj9zZiz2InmD5Nwtld3+FQ2H0UM21g17M9ii7vw75TkUgrI3Tq/R6Gub6DJzeP49+7DuF6SQ98NE4fN/53E/ldPsDHEzwwYXgHZF/5Cd9s+QG/RpehQ9sKPGLawbKdLfo5DcL7Y1X0z1TZchIDdH2HReThnfhm32XkdpuDf7wVg6iKtmjX9m3o/34K+w6H4X4xgzZ2PdG+6DL27TuFyLQyUKfecHbogmbVqtO/uViFfnXRedj/oU/VNXz/zUHcvBuD4ODHeG/jHix2MpVbBKMD8+4meJjYCZ+sGoW3Gy+99dB1+CjYPo3Htf+exKlzt1H4zlzs3DIZ7+iqOaZnil6jh6ND9hX89M0W/PBrNMo6tEXFIwbtLNvBtp8TBr0/VoVcxhDFnca33x/DrbRsiNhOsO/XE52MdMAWXMGOdT8jv+9MeDm3bZSeg4ODg4OD49VBh4j7tOUfgTR+HZwHncOEiLvY7NiwEOUFkcZjnfMgnJsQgbubHRuXt3D8SXD65+Dg4ODg4HgN4Jbo/NGoXOrxIvwhlXJoDad/Dg4ODg4OjlcXboL/ByEtK8NTphylIsWvg74A0jKUPWVQXipq8fVYjj8BTv8cHBwcHBwcrwHcGvw/AEnGNRy9Wox3+veCSVkOqFNf2LZV9o6VViDJwLWjV1H8Tn/0MilDDnVCX9u2St/cwvEHwOmfg4ODg4OD4zWBW4PPwcHBwcHBwcHB8QbBLdHh4ODg4ODg4ODgeIPgJvgcHBwcHBwcHBwcbxDcBJ+Dg4ODg4ODg4PjDYKb4L/GVGXHISG3RvHnV4+qbMQl5OI1kPS5YSsykZQh/vu+QPM5bPyX+i9bgcykDIhfG4OxqMhMQkajwFXIjkuAMvWx5VmIDY9EcqGSgxx/Pq+dr3FwcLwJcBP8etiCKJz+fik+GD4EQ4ZOwCf/Oo5b2Uz9UQkyfjuELfP/D0PdZ+LLAzeQIVGo4M+GzcL+2YPguuAoCl/pgYNF1v7ZGOS6AEdfbUGfDyYXv+30xoCuveC5Pw1SxeN/C57Dxn+Z/zLI/W0nvAd0RS/P/Uh7DQzG5P6Gnd4D0LWXJ/bXC8xm7cfsQa5YcLRQ7qKSwaPAL+Cz7QIiz30JD2EffHTskVxNHH8ur5+vcXBwvDlwb9GRh0nF1kEO2FDui5CknRis1/xwzaUFGPy/ybh1YByMmh/6S6jKjkMGzx79OhsoHnq1qMpGXAYP9v064xWX9PmovY3lfdxxeVIIEra7QMFt/h48h421918WJXfv4amDM7q9lPeS1uL28j5wvzwJIQnb4fIaGKz29nL0cb+MSSEJ2O6iV38HPwM8+35oUB9bdAwf9v8FY5MuYYF5KW5sXYpf31mLvXPfVazuD4MtuYt7Tx3g/HIM9Qbw+vkaBwfHmwF3B18enbfQvq0OdEzNYa5EM7w2bfHOW+0hUDzwF2Fs7ajF5OgVwNgajq2Y+L128M1hbqaj+Ovfi+ewsdb+WxWN79cdwYOXdgeUD3NzM7xOFuObm6O5ixnD2rFpcg8AtVHXEV5lDDMDALz2cP/q2J86uQeqEP39Ohx5eYZ6A3j9fI2Dg+PNQMk09hWnJgshR3Zgw4ZtOPRbJqoVj/+pVCEnKR2lLFBblIKIiFQUK4xt0tIHiL55AyF3MiFuWPGjlGrkJt5HEQsw4kzERsQhp6r+UG0RUiPCkZCvsKa2Jg+JqfKP6FmIH0Yj9FY8cspLkV/QUMFz1A0pSh9E4+aNENzJFEOd6GzFI6RkVoBlRMiICkN0huL5NchLTFVYilGN/KTbCAm7i+yKhgPleHD7CoKCgpr/BYcjvX4Bq/b6ZFHxKAWZFSwYUQaiwqKRUV+ALYjHteAgBAXfQpqYBZh83L0ShKCgK4h61NyjqvOTcDskDHezK1qsr5eWZSAmNAxxuc8UjshQV1YeVvwQ0aG3EJ9TjtL8AjSYBgBQnY+k2yEIu5uNRjUBQHUOktJKwNTkIyEmDWVKddHSH7Tte3VuIu7LHAaZsRGIa3IYFKVGIDwhX2G9fUsbV+UkIV0WHEiJiECqYnAo+i8rxsPoUNyKz0F5aT4KqgC2JAq753yEnTFZiL8ajJvJJWABVOckIa2EQU1+AmLSyur9TYPPSsuQEROKsLhctLSYhrJyaPZ3AIwImbG3EBaVhmLFzx5rZTsAkKIsIwahYXFQ5mI1eYlILWQBSJATcwVXox6inHmC1OtBuBKRgYrGM5XFmuz3nKQ0lDA1yE+IQZqcIKp8V6VN2RJE7Z6Dj3bGICv+KoJvJqOkoaAqH1bin0phK/AoJRMVLANRRhTCojMUYl91PxhRJmJvhSEqrbjx69Ns2X2EBcvllnIWQAUybl9BUFAwwtPFTTWr0EP9QRX90uRrz+sfquyopR45ODj+VrxeE/yqGHzt4QT3j7/Axo2rMW+0M0ZvikCl4nl/OCxKYo5i6Ug7CMf649TBhfAY54VZ4xzQZ3IAMhgAYJB5fA5cpn6PhCeFiPD3gHDIRkS2uCJhURZ7HMtHCdF9+AYEnlmPmTO88fHUQbB3WY7g2GP4ZPwUzF00DS72Q7E+shpgRYg79QXG2HXDsI1h9ROtWiTu9obvyVxIa1JxaKYLPvwpE8WtrRsAmEwcn+OCqd8n4ElhBPw9hBiyMbLlxRSTi7A98zHAuie89pzAxjH9MXD0KAyyF8Jt022Ug4Uo7hS+GGOHbsM2Iqx+RsgWBGPzguUICE3EndPLMUQ4DGuvl4KtvY+jWwMQnVcGsVgM8ZNY7FswEVPXXEQxn7TUJ8DkhmHP/AGw7umFPSc2Ykz/gRg9ahDshW7YdLscvHZd8E7Rz1g4aQEOpkoBfjt0tkjH7pkT8XlgvmyyxhYgePMCLA8IReKd01g+RIhha6+jlAWAaiTtnwWP+QcRn5eBC36+CHggN+NQW7Y5tYm74e17ErnSGqQemgmXD39ClhQAWBQEb8aC5QEITbyD08uHQDhsLa6XFCLq0BKMtBNi9IZ92PbhELgOGoC5x0oVa1biD1lgNfS9riwWx5ePgrD7cGwIPIP1M2fA++OpGGTvguXBsTj2yXhMmbsI01zsMXR9JKqV2JgticHRpSNhJxwL/1MHsdBjHLxmjYNDn8kIyGCU+29tInZ7++JkrhQ1qYcw0+VD/JRVC3F+KQzbmoBlJagSiyF6HI1DS0bCTjgaG/Ztw4dDXDFowFwcK1bvs9VJ+zHLYz4Oxuch44IffAMeNE3KX5q/yxBHfQdvz9UITMpB+vnlGNrTA5tuloBli7W0HYDqJOyf5YH5B+ORl3EBfr4BaHAxVhSHU1+MgV23YdgYVgOAUFtVDnFVHUB1qCoXQ/y0BgyrKtZKUBh1CEtG2kE4egP2bfsQQ1wHYcDcYyhV4bslReptyorzUWrYFiYsC0mVGOLyakhV+XApq9I/m18CMsgN24P5A6zR02sPTmwcg/4DR2PUIHsI3TbhdjmLYlX9gBhR33nDc3UgknLScX75UPT02ISbJSx4xu2hn/ZvzJswCVvvmaOTMQ+AEd42icGunbEQtDPSEMPq+qXB157TP5TbsRSsVnrk4OD4W0KvDQwV/jSeTHVAQNOfjvEY+vdjRvHk54Mpor1j9EjXaRMl1ykeJJLcWkkTV0eShIiIpPRwx2DSM3OmJecySUJE4l9nkoX+ENrxUEokvU9fDzQip41JVEdEdTFrqLeBA62LU1IxMZT/gzvpG7nQmtACkhKR5N5X5KDbhgatukqP64ioLo6+ctAnW9+bVENExBTQj+76ZDb9NFUREUkiaEVvB1oV9UxWY+EJ2rInheqeo27p/a9poJETbUyqI6I6ilnTmwwc1pFS0SURtKKHLlm6rafgx3VEVal0YIoV8fWcaENCHRExVPCjO+mbTafTVTIdn5o5klZHybRITDbtGq5Huo7rKO5ZMl28mEayZioo4ksnMjEfSt/E1bRSn0SSiBXUQ9eS3NYHk0ysAzTFik96ThsooY5ImrqFBhj0oBW36+WQ3KYVPQxp0De/k5QYKjo1k0aujqq3NUPZu4aTnq4jrYuro6rwldTXdi6dE9U3VnmR5lnp0rsrI0mioWxzJBSxojc5rIqiZ0RETCGd2LKHUuqImKJTNHPkampS0y4arqdLjuviqI7Jpl0j9MiwzxK6WiyilOvBlFCqEAMq/UFT34mY/B/IXd+IXNaEUoHMYegrB11qM2gVXZU5DMV95UD6tr50U+aMzW1MRNKHO2iwnhk5LzlHmbLgoJkW+jRkx0OSUkv/lUSsoN4Oq0gmLkOFJ7bQnhSZ/+T/4E4GVvPpco2sbiZ7F43QM6Q+S65SsSiFrgcnUHGKGp+tCqeVfW1pbpPB6OI8K9J9dyVFSl6yv4su0yKhPS0NlemdqIrCl9uTnuUM+qWQkfm7JttRFYWv7Eu2c89Rk4vNIyvdd2llZL1XFfxI7vpmNL1B4URU9fMkMjD3pMCGn9TFWh1D2btGkJ5hH1pytZhEKdcpOKGECtT4riabMvk/kLuBFc2vN5RaH1bjn82RUMSKHqRr6Ubrgx9THVVR6oEpZMXXI6cNCVRHyvpRSqWXF5HQfik1mSGcltvrkeWMX6iQIaK6JNr8niFZzT1HYiKZnx3+lFYGVRBpiGG1/dLga8/lHyUFqu1Ypa0eOTg4/m68RnfwWRRk56JGYUswSXKR9fgl3a/g6UBHRwcAQenOY5YB+A0q48PExBh8Uwd4eHSFHgBjYXd05pVDXEYAXwifo2E44WuD3JBD2HY4CiJWgmc1Sm7jggcTYyPo6HVFf+eO4APQE9rBWgB07j8YVgIAAhtYd9JBuUgkk41nClMTuZWdAisIrbPx7cRhmPP1GaToemLtZz0heI66+UIfHA07AV+bXIQc2obDUSKwkmdQLrohDA346OA6Ce5WAsDIHt4bF8CBkhAaWgQWPJiamjStQa0OwdngPDy4uBP+/v7w33YCzzw2YNNsJxgKemHcuB4QgEVp8CrM/ddjjNx+GCsc9FupT4BnaAgDfge4TnKHTCxvbFzgAEoKRWiR8jJNVCPkbDDyHlzETn9/+Ptvw4lnHtiwaTacDCsRvPcIMvuMwEjz+tMNusLGsmFTobqyck0AAASwEloj+9uJGDbna5xJ0YXn2s/QUwBUh5xFcN4DXNzpD39/f2w78QweGzZhtpOhTOd6PJg5u2NoB3P0dPdA33YKoazSHzTDMzGGkY4euvZ3RkeZw8BO5jAYLHMY2Fh3gk65CCKZMza3MQC+iQmM+aZw8PBAV1lwoHtnHsrFZUr9V2AlhHX2t5g4bA6+PpMCXc+1+Kyncml5hobQ45nB2X0oOpj3hLtHX3R4V7XPVgbvxZHMPhjRZDB0tbFEg8Vepr8/uXAAv+TaoZ9jw+J4Iwz0nAzhk4s4GSTWznaVwdh7JBN9RoxEk4vZoNHFAPBMTSEf/kpRF2vgwdBQDzwzZ7gP7QDznu7w6GuAMDW+q9GmLZpX48Na+ycPhoYG4HdwxSR3KwhgBHvvjVjgQEgKDUURq6wfwKUDvyDXrh+azDAQnpOFeHLxJILEAAQ9Mc9nFKrPBiAwjwWYBzgV/Tamu5lojGF1/dLka2XP4x8GYartqLUeOTg4/m68RhN8AewGOMFC4eUMvLecMLDHy3o1gSGMDHig6ipUKRnc2YpKwNi0MVnLLgaa0OHzoQMCWz/pETyLx+4FPjiU3w8f+7jBkqdsGJShWBd0eJA9rGj8ATwe0PTOo4aLkXp4XTDv2DXs8zRF6Nbp6N/DFUvO5oB5nrp5AjyL340FPoeQ3+9j+LhZQo3oLRB064XuxkCdRAKqb79BAraiBKXP9GE/eSXWrFnT+Ld66UT0qB+V2LxA+C48CMn0HxEwr1u9vlunz5YI0K1XdxijDhKJhnJsBUpKn0HffjJWysm4ZvVSTLQrQNrvYoAvUB486so2dLARHrrMO4Zr+zxhGroV0/v3gOuSs8hhWFSUlOKZvj0mr5SrY81qLEepfDkAAGOPSURBVJ3YQzZ4a5rcqfEHjcjZq/4H8HRkj8waf2nujM1sXP+Dwv/54OsAJAuOFv7L6zIPx67tg6dpKLZO748erktwNke1tC26r9JnGeSm/Q4x+BAoNZi6strR5O/VKMx5jGq2FrVyGxQENtaw4tVCLHoqW8fdQvjmMLlpkLmYKoHr9auhHs2xplCBJt/VaFN5NPjwi/inoBt6yRQOWSgr9IMpQs7jarC1tXL7RASwsbYCr1YM0VMWAA+W030w1fQmAg4moyrmFzzsPROOepr0wFPTLzsUqPU1BkXP4R9q7aj3Anrk4OB4o1Gahl5VTN7fgn1LBqC9QAeADvhtnfDpvm8wueFmyQujh662naGT9wDpLRb2M8hKfIx2Pbo0TvDVUnkZyyb5oXTaD9js5QSLhrmdsrHwZcDkIvlxZ3jvvoG0lAvw65uDvb5bcf053tdfeXkZJvmVYtoPm+HlZNF4N0id6ERyV0R11ahhLWDfu1MLXfHMOsHSKA2BB29A1Pgrg8ygS0iUApCmI2DBYvzP7J/46bupsOQBrKgYpeLn0SehuVg1YC3s0bsTH+ALwG+8GGuCiAF4ZuhkaYS0wIO40SQkmMwgXEoyw1vtBKhJvot4Bd0Sy6ovm6j4pIlBbvJjdPbejRtpKbjg1xc5e32x9XodzDpZwigtEAebV4KgS4nara9V5w/q+v4XweQm43Fnb+y+kYaUC37om7MXvluvQ1v3Ve2zOmj3VjsIapJxt6XBwKotqxrl/t4Znbt3gxmTgti7TSv42VoJannvoJ+jpVYJV6fdW2gnqEHy3XiF/hNYJTceVKEx1hRple9qgqfeh9X5pzKI5Da51qG6hoWFfW90UkwwAMDvhO7dzMCkxKLJDCxqJbXgvdMPjpb1VjAZAx9vIVIOf4tNp8oxfIatLF+p1QOrpl9JMFPra3x0eg7/UGtHSSv1yMHB8bdBWT55deFZYvzOCDxMj8LNm5FIz4zG7klWL7ETenCZtwiDedex++sbKGqc79Qi/6Y/vrjRG95jjOt/Y8EwUhArN1EikiVylgVb/hCZRZXISX+EyppchF6IRAFTjfKCeEQnt7h6AMOyjRMOGSSboDbOMmT/ZtkGoVgwLMkmlZBN6AK3B+BeNWBg8z78vpoGGyN9GOi0tm4W5Q8zUVSZg/RHlajJDcWFyAIw1eUoiI+GEtEBsCjJzqrf7Mwi//x5JPb2wSdussfQLMOCGto3Ho25Xl2RFeCJETM34afAMzjqPx+rIoxhK6hG7DcfY83tblh9eCvc28pqFwWdw7WC1ukTAMCWIDur/hibj/PnE9Hb5xO4GQB8Cyt01MtD1NV7KCq+j0t7j+B2qRQluY/wpIKP0XO90DUrAJ4jZmLTT4E4c9Qf81dFwNjOEhNmjcdbmQexzO8icmoBSfY9JBczEOVlo7BcR3VZW8U7+AxyA7cjQGY0vO/3FabZGEHfQAfGo+fCq2sWAjxHYOamnxB45ij8569ChLGtbAJKgLROzaRLjT+o73sNwLBgFSaTBED+kxkkc5jGO4XNbAyAZRhIiZW7u0sgkCw2ZGc0818mNxDbA+6hGgawed8PX02zgZG+AXTAg4GBPvC0APllJYgOT0Q1AIIUTd1X57N3UOQ2C+PfysTBZX64KDMY7iUXgxHlIbtQhEKVZVvv723GL4ZPHxHO7DqE9FrZ8cJrIcgdvBifDNWXFddgO16HCZg1/i1kHlwGv4s5qIUE2feSUcyIkJddiPJqACwDlprbqLa2DlRbC0nDb2pjDQ2CyF0wGqv1XU025RkYQB9PUZBfhpLocDwcrMaH1finMtiSbDSF8nmcT+wNn0/c6l/LqtiPNhi/2Ad9RGew61C67O05bCGuheRi8OJP0GAGQADHeQsxtPQkztAEjG/f8Lt6PaiOTTtYTlDna+XQfR7/UGdHHVV6ZFF6bSM8/7EFN+WuQzg4OP5GKC7K52Doye0faOGofmTvMJjcx4wm9+FDadSsr+lqTtPWJXHiGfJztyC+rpBm7LxMKem36NBiVzLnGZHj/AMUnptLZxcPoI6mbanbsPm09+bP5G1tTrbjt1OkbFdXI5Wp52n9WCviC2xp6rYLlJQdT//dPJG68AVkO8Wf/pfwiGID19H7VnwSdJ1C/kGJFH9hPY3txCeBzWTaeimdSHKb/Fy7kcMob/piwyZavXAh+d8opKetrjuDnuWdpcUDOpJp2240bP5euvmzN1mb29L47ZH1G9LkqIujr/rpkaXLdJr/6TL6/NOPaIrnl3QhW1rftwu0fmwn4gtsaPLWS5ReQ0RVqXTc143s2uqTnlkXGrzwCCVXEdVErKG+Bjwyd/KiFatW0apVq+iLpXNo2Lv/oFMVeVrrk4ioLu4r6qdnSS7T59Onyz6nTz+aQp5fXqB6sYjoKYVvGU1dzMzIynEabb95mVY6dafhczbQ8TtPiKiKUo/7kptdW9LXM6MugxfSkeT63YuMiGJ+9CYX67ZkbuNMEz7bQPNcutIgry/pcGSB+rLNkNBtP1fq5jCKvL/YQJtWL6SF/jdkmwCJqCr1OPm62VFbfT0y6zKYFh5JpiqmlO6dWkOjLPnEt/Kgtadi6YniHk2SbZxV5g+yU9X0PSyCzq8fS1Z8AdlO3UYXkrIp/r+baWIXPglsp5D//xLoUWwgrXvfiviCrjTFP4gS4xVsXJRIZ/zcyYKvS8IZO+lySjrdOrSYXM15ZOQ4nw6E/06pCv4rue1Hrt0caJT3F7Rh02pauNCfbtQrQppxmP4hbEvthZNpx5Xw/2/vvsOiOtY/gH+30KQTQBCVIq4XO4IFuxIl/mwYo3itqKAkBkvUxJKoYCEx12hivEqMLYom5BpjN1GjGEVARaSoKCJFQOqCwtL2nPf3x1IX2AU1Ceh8nsfnSZZzZue8M+/M7O6cXTqy8m2yFInIym01HbmZQxwRcSr7LEfSiB3k2c+ajI1syHnsh7Rubj+ydZlKn+67Tmmpqs5Voqa/ExGVJ52g1eOcyHHoFPJ+fw7N8PmKQjI5osa2HRFx0gja4dmPrI2NyMZ5LH24bi71s3WhqZ/uo+uPYunk2lHURiQmG/eNdDq+kBIv/pcWDnyLhEJzGrY8kH6+/kRxM3O9ucZRbuQRWvm2JYlEVuS2+gjdrKpIA303X12bphHJE2jfvyVk/JaE3LeE0fOG+jCp6581ldPtz3qQpmU/muy1gJZ8tICmT/CgT08mk5xUXUc5JZ1YTeOcHGnoFG96f84M8vkqhDLrPIGUfpk7hvzvKN+W2kAcKv/a0HWp6WsZ3Av2j3rbUVUc5ZSwYxS1thhDuxKr+ybDMG8O9ku2zMuRR2GNswuOjw3FrfWOzebmLnnUGji7HMfY0FtY79hcasW0eM20v7++5Iha4wyX42MRems9WCozDMM0zqvb3cK84ZqwOfjv1EyrxbR0rGP93VjEGYZhGo8t8JmXI89D3jMOBbnSql+KbA7keXl4xhUgV9qcasW0eM20v7++5MjLewauIBcslRmGYRpPtG7dunXKDzJMo5Qm4PyB35HVthe66OUhhdqgu51xnW/O+buVJpzHgd+z0LZXF+jlpYDadIed8T9dK6bFa6b9/fVVioTzB/B7Vlv06qKHvBRCm+52YKnMMAyjHtuDzzAMwzAMwzCvEbZFh2EYhmEYhmFeI2yBzzAMwzAMwzCvEbbAb3F4PE+MQUL+X/OdEkXJt3EntcbvqDNMkyj3zyIk374D1qX+Sa97G3CQPojB4yLlx5urEqTF3EPmXzOE/zOKknH7Tipe2y7GMC0QW+BXksXj/B4/zHEbiAEDBmLw22Mw0cMDE9+diGnzP8F/joQh/R/+Fgcu9Q9s8ewD2y4e+O5+w7+E+cL4JHw30wX9vQ/g6es0+TAvr/RPrO7fCYOXnUNWA32jvv7JJ32HmS794X3gKfuaw3qUha7FoE4DsfiU+vjwyd9hUqcemPLd/SZ9g8/r3AZc8h/YMrMXbLvPRVBy1U+PN1M88m8fwkeu9rAfugFXm9KIzRqPpO9mwqW/Nw6wiaNRCn59Hz0cRmFj2HPlPzHMq6P8y1dvtiI6PsucRIbv0ZHnFQ8Vp1HovkU00FyDjHp9QEeT/tlfBSy9+hFJtP5Fy6+XKv/plShMiqSolGLlh5k3XOm1ZeTsspqu1Plp19rq9s9CSoqMItal6lNKYZ/0pr4rLlOe8p/q4Cht52jqPDWImj4Evd5tUPLHArLRcqb1cU0OzD+Ao5Svh5GW8VT63+vUHoVJFBmVQi3hkrism3Qj4Z/sK8/p2Kwu5LYtukXEi2m52Dv4tYhhZKgPgUAEUWVktNvAxXMbzp38FP96GIg5nl/j7j/4RpHIyAgGAuVHXx1da0f0aKet/DDzRuOQktwWHx/2wyBD5b/VVrd/6sLasQdYl6oH9wSP2yzFkQ1DYKz8tzpkiONHY3/gVFg3+WsiX+82EOnqQ7fFzGRCGOjr4i8cwv8ZutZw7NEOzb+LFSH86zXY/+Av+AS8scruIrfX1zjo260FxItpyVre9+CXJOHyod3Y/+tVJPJt0MnWGBrKx7wwDsnnduCHO20wcel76FKjYE0rZ7RLPoT9v15Hmct8jLWv/KMM6TERuBWfDYGJBYy0VA3dZci6H4EbsemQG1rCRKd6VpLnPsCN8Cgk5ABGFsbQrjVhyZGXcBMRsVkQCB7g530xsPV8HyPaVsz08lw8uBGOKMXJMK59cg08nj++izSxKQxkjxBx4yFKDC1hUvP4kjREP5DBzEyvehKSpSMm4hbiswUwsTCClgBAwQNcC4lA3MMEJCRU/3uUycO0rSm0BequSVnDsQE4SBMjcTMmBcU65jDVrbnCKUJKzGPIzUwhzopDeHQOtCzNlCZ8VedDzXM31L4ypEYnoMTMDDoFiYiMTILcxBKGmgDKMnE3PArpInNY6ItrlAWAkyIx8iZiUoqhY26KWlXh8/EoIhxxOUIYaRRBSvrQ16zxd/DIiLqAa7cfIOEpB9N2ptDIuIXzV+/gYWIuxG3awlgDjYyJMlUxIAh0NSBLfdJA/FT3z5K0aDyQmcFMrzo3SjJiER75AHkCQ5gbaddZ8HDSRETejEFKsQ7MTXXVf9d8URqiI6KQWKQDc8NCpKQSDIvv4cK123iQ8BScaTuYamTg1vmruPMwEbniNmirCBYAQJYeg4hb8cgWmMDCSKtOfSrx+Y8QER6HHKERNIqkIH19VDVRfXkCALIUxDwqg6leAWIi06BpYQodISCXZqMYcuTkNpQfNdtbhL7vjoJN7ou1d31tgLIs3I+4gdh0OQwtTVA75VT0U3WKUhDzWA4zUzGy4sIRnaMFSzPd2vtBVZUvS0V0QgnMzHRQkBiJyCQ5TCwNoUituwiPSofI3AKVqcWn/4HA/YnoOm8u+iMeETFZEJuaQ69G6slSYvCozBR6BTGITNOEhamOoj4NtVljvGD8yu/8iC9/08K7Syeic1UdVY1RMqTEPEKZqR4KYiKRpmkB01pPVh/1Y/0LxaTBay5BWvQDyMzMULOLNSaP+dw4hFy5hXsPE5CQmAeNNm1hpCFDUvgfuB6TgLQyY9iYt1I+DQBQlnUfETdikS43hKVJRf3RwJzIZyNsuxem+4dCo1NXmMjLYWhtDl0BVIzzAFCCjNhwRD7Ig8DQHEbayp2kiW2n1w69emghMaG4xjwrR+6DGwiPSkAOjGBhrM32TzMvrWX1oaIIbHJzguucj+HntwJzRzhjhH8oCpWP+0voYuCI/jCkDFy9FAsA4DPOYb33UgSGROPGT0sxUDIYqy/k1rvPlc++jI0zPfGfC8nIit6OcRJn+B7PAA8OiYdmod/Er3En5ylCA9wgGeiH67KKE2Ux+G6GG7z2RCEt4SRW+QbiQY1PELjEQ5jVbyK+vpODp6EBcJMMhF/VyTWOS72C7V59YN15KrYH+WFkr74Y8bYLHCTD4X+tAOCluH3kY4y074DBflcqbpbikXFuPbyXBiIk+gZ+WjoQksGrcSGXR9m9A9gYGI60vHzk5+cj5+YueI+biJWnsiASqrkmJQ3HBkB+GLZ5emBFcAxS4k9g6aDOcPO/hGyeR3bEASweZg/JqAAc2TMPbqOnYsbonujmHoiEyhg1eL76566/fbORc/MQlr4tQcch6xB8dC2mTfHEnIkucOi3FOduHsQHYyZg9vxJ6OcwCGtrXHR+2DZ4eqxAcEwK4k8sxaDObvC/lK24zrJofOPpi8OpcpTc3Ytp/d7D90nK7zIJYdK+LTJ/mIfx3ntwVw6ITNrBPP4bTBv3EYLTyxsXEyWqYqAufqr6Jy+9jSMfj4R9h8Hwu1J5+10Brm92x9i1YSjXKsDpBf3g0HsYRo6eiA2XZADyEbbNEx4rghGTEo8TSwehs5s/LlU9oTIZ4vb7YPSML/Bb3H1c+WoKHG07Y8J398GbtEfbzB8wb7w39iiChXbm8fhm2jh8FJwODgD4DJxb742lgSGIvvETlg6UYPDqC8it5+nKor+Bp+9hpMpLcHfvNPR773somqiBPMl+irC9izDMXoIR63bhi/cGor9LH8w+mNXI/Hj59q6/DXhkX96ImZ7/wYXkLERvHweJsy+OZyguWmU/VYXPRsSBxRhmL8GogCPYM88No6fOwOie3eAemKCIt6ry+TzcPLQUb0s6Ysi6YBxdOw1TPOdgoosD+i09h5sHP8CYCbMxf1I/OAxaqxQvQuZpX/R37A/Xgd1g4zAeX98sBJ8Vhr2LhsFeMgLrdn2B9wb2h0uf2TiY20Cb1dfwdbzi+DWYYzyywvZi0TB7SEasw64v3sPA/i7oM/sgcpXLqEHdWP9iMWnomuWQ3j6Cj0fao8NgP1R1sSbksVBHD0XnP8PkMVOxM8kcZtoAoI23RNewYdUpFBnpKZ8C8Nm4vHEmPP9zAclZ0dg+TgJn3+PI4BueE/n8dOTqGEOP51FalI/8AhnkDY7zFfN4wXVsdh+LtWHl0Co4jQX9HNB72EiMnrgBiuGqiW3nuQuXKubZIRuuKu6l4RJxaFY/TPz6DnKehiLATYKBftdRZzhgmKZS3rPTfHH09PsxpC8AAdX/BLoj6b9POOWDX1AphSzsQGIjDwouUv4bUemVxdRRLCTLuaeIuEw6Mm0YrQir2GvMJdPWIZqk4biGbpcrnchl0GEPe3LbkUwcEVF5LH05xITazDpGhfJ7tKlvK3Lyi6FyIiqPWEldtXvSmtvlRFREV5d3J7vZx0laUVThqblkpVG5x1lO9zb1pVZOfhSjOJlWdtWmnmtuk3IViIhKQ5dRJw1LGr72HD0pJyq6u5smWIlI02kd3SlX1HOHqxYZTP6JioiIyzxC04atoOpL3EpDNDXIcc1tKo49RafuVzzL81D61EmPjAZ9TrdLiEjlNSlRFRuS0pn5EnJYHFK1V7Ho6lJy0LSkKT8+JY7k9OjLAaRp4EyLjidSKRHl/28amWsNpC8fyYnUna/quVW2L0fp37qSVqt+tDIkg+REVBr5GfXUMCSXT36nJ+VEVH6bPuupRXa+l6iEiEh6huZLHGhxSFVN6OpSB9K0nEI/PuWoNHQZde35CYUVk6KvB22g7XH1xIvkdHdDH9LutIyuVVSt9Noy6qTjQp8/lBOpjYkSVTFQFz+1/ZOIy9hBrloGNPknRUKVx6yn3nrV+6XLIz+l7lodaOFlxfHSM/NJ4rCYqsN0lZY6aJLllB/paT1p/vyPxdTVcTldq8zX0lBa9i8t6roygsqJSH53A/XR7kTLqoNFyzrpkMvnD0lOHGUemUbDVoRRRW0peesQ0tRwrKevllLosq7U85MwRSy4pxS0YTvFlavOk3IumbYO1SSdbovo9ywpxV04R3ey4hqfH6+gvZXbgMs4TB72brQjWRHQ8tgvaYhJG5p1rFBtP1VL/oi+HKBJBs6L6HhiKRHl0/+mmZPWwC9JkZJqyufS6VtXLWrVbyWFZMiJqJQiP+tJGoYu9MnvTxTxuv0Z9dSyI99LJUSV8dO0onHfRFCunKgwZjdNstEgLWd/ii5XtMdQTR3qtuh3ypLG0YVzdyg7Q0WbVV9NvV42fs/2jSXtqj346nKMo+StQ0lTpxst+j2LpHEX6NydXEWuqqBurG9qTEpVXTNxlLHDlbQMJlNFF2tyHlNRCC2WaJHD8lDFeEkcPT0wg6bsSqnnWjnKOOxB9m47SFGdcor9cgiZtJlFxwpVz4lc+rfkqm1FXmcUz6J6Hi+nmPW9Sc95PSmGq3KK/LQ7aXVYSIrh6gXbrmKeNZ76PyomIvm9TdS3lRP5KSpMESu7knbPetYRDNNELegdfB4ZyakoUfrdXSpNRdIT5Xc6/xpUWAgZCaFvZAzILuPYuTQ8OLUFAQEBCPgiCMVu6+A/0wk6yidKz+LIOS04OlsoPjIRd8Gyy7lI2+8OXZEEPgeuIMjXBqmX9+KLfWGQ8qUoLuGBwnPYuT8R3YYOg1FFUdq2NrCs+gRQBInPAVwJ8oVN6mXs/WIfwqQ8SotL6n23SKijA22RGfqPd4WVGGjl4Ak/756gmBCEZPKAUB/6NT5flV0+hnNpD3BqSwACAgLwRVAx3Nb5Y6aTDsRdRmN0JzHA5+LcJ7PxnyfDsHnfMvTUAqDqmpSpik3eSez+MRX2PRyr9iq26usBd0kOTh0+i3yIoKenC5F+T7i52UITgK6kI9oJC5CfR4C681U9t8r2FUJPtxUEmrbo5WwBEQBNiT2sxUC7XgNgJQYgtoF1GwEKpFIQgLyTu/Fjqj16OFbVBH093CHJOYXDZ/MhtpLAOvkrjBs8C5uOxkHDYzU+rP78vgnUxESZqhioi5/a/gkI9fVrfWQvT0pEapkQgorHxLa2aId0JCUVA8jDyd0/ItW+B6rD1Bce7hLknDqMs/nV5SgU4PSuQ3jedyScKj/BFxnCUK+xw5oMl4+dQ9qDU9gSEICAgC8QVOyGdf4z4VQnicWwklgj+atxGDxrE47GacBj9YfoLFadJxDqQEdTCANnVwwyM0JnVzd0N/tX4/NDLfXtrdwG0rNHcE7LEc4WijiJuyzD5dw07HfXVdtP1RLpQU9XBP2ebnCz1QSgC0nHdhAW5EORkmrKF+pBt5UAmra94GwhAqAJib01xGiHXgOsoEgta7QRFEAqrdGfRZbo7doLJiJAt+scbPloIAQxV/BnDg+hjg40hQZwdh0EM6POcHXrDu0rKtpMjVcaP3U5BiF0dDQhNHCG6yAzGHV2hVt3E7Ufvasb65saE1XXDAihr19jS2eT8xhAqwHw/XAg0g58haOZPMAlI/i0BiZMalfPtUpx9sg5aDk6Q1EdMbosu4zctP1w123anKh6HpcjKTEVZUJBxbWJYWvbDkhPgmK4esG2E+pDv8YYJZL44MCVIPjapOLy3i+wL0wKvrQYLzQcMEwNdXOn2RLDvo8TzJU28QlNndC3U62Nyn8RORJu3kYWGcPZpRv459nILdaCg/tyrFy5surfisXj0El523VuFnJK8pFXc0KqIoS4OArfePtgb3oPzPEZDkuh4jgu9T4e5gMiccPNJBQXI+obb/jsTUePOT4YbilEfc9SPzE6dOkIXZSjtJQACCCoXHmBx/PsXBRrOcB9efX1rVy5AovHdYLiEnmkBfti3p5STN4RiLkdKhun4WtSpio2XGYKnsh4lJXV+HZlsQ2srYQoy5fiGY8a9VUQiEQQgMCT+vOl2Q0/t7r2VX5eCIRQfLhU9QCEQoAIADhkpjyBjC9D7apYw0pYhnzpM6D9XBw8vwse+iHYOLkXOvVfhGMpDeypUUO5bjVjouxl4i9NVt8/IRBULeYBQLPvGIxsHY+Lvz0GB6D03n0kG7ti7BA9gMtEyhMZ+LKyGt+nLYaNtRWEZfmQPlOa8bh0PEoqhFhTo8E98yrxz5GdWwwtB3csr9HGK1csxjjlJIYQ7ecexPldHtAP2YjJvTqh/6JjSOEakSd1Ktf4/GgMte1dqw045GbloCQ/D3WbXH0/Vb/mqN3egAAikQAgHtSo8pXPBwRCgeLz2uoHIASpGOeEMLOzhZGAg7xc8UjtIhvRZg16tfFTl2OKLl+nA70A5bFeuVRVMbFHQYPXrCAQVC6C0fQ8BgCIYDdzCSZpn8ZXu2JQEncIl1pPwRgT5eMAcLnIyilBfp7izRNlTZkTVY/zmug7ZiRax1/Eb485AKW4dz8Zxq5joRiuXrTtlPq4UIziqG/g7bMX6T3mwGe4JV5iOGCYKipm5uZH7/82YNeiPnhLLFBMHMZOWLDrc7hXvn34F+Jzf8O2/Xcg6joXH47Wh9CgDSxb3UfwnouQVh3FIfHsaUQrfaAgat0eVjqZOPvTb8irfJDPxdnAIMQXnMGS8auQO+lbrJ/qBPPK2YUAgYkpTMQliL0VhdLq4gAQeB4ACnFmyXisyp2Eb9dPhVPNkxtEoBrja7msBLy5A7q2Ub79SQiDNpZodT8Yey5WXyG4RJw9HQ05AHl8ILwX/gqD97/HtomWEIKHNCsX8sKGr0mZqtgktO6IDgYc4m7eqt6PyJehtEyItj0cYamm94raqD6/rWXDz/1Qt/Htq54IbTp2gAEXh5u3qndW8mWlKBO2RQ9HS1BqLJ6088Q3F+8j7uQqdE/ZCd+NF5TaXUEkFlUsmGoi0Au8HniZ+LcxVdc/6xKauWPrTk9oXdyG9Vu3YNMxHXx89iC8bESAqA06djAAF3cT1WHiUVZaBmHbHnBUbnCBEYwNgSc3w/C4oWsXiSGq58UNEQcIDdDGshXuB+9B7S5+FqfrNDKH1NgnaOf5DS7ej8PJVd2RstMXGy+Uq82TOpqQH3jF7Q2I0Lq9FXQyz+Kn36paHHzuWQQGJaC1mn6qJuXUUJ8HL1d+NVl2Dorb90Sv1vWVqH5sa9irjZ+6MUq5yzdNY8d6qIlJHN5q8Jrjq+6tqNLUPK5k6IbF87vj3u7P4b8jEl2mD0O9t9aKWqO9lQ4yz/6E6urwyD0biKD4gibNiarncSHM3Ldip6cWLm5bj61bNuGYzsc4e9ALiuHq1bRd4ZklGL8qF5O+XY+pTuZVLzDrrzHDNF4ju2AzIbTEmC2heBQfhkuXriM+MRzfjLd6hRdBKCur++sj8oxL2DjFCwdL3sam/Z/BRRuA7gjMnmqLpEAPDJ3mj++Dj+JAgBc+CdWFnfJbQIajMHtyOzw9OB/vLv4vgn8JwpYFnggW94dd4SMkZhYiJf4xCktSEXLyOjI4GQoyonAjczhmjDFF4p4lWHUqBWUoRXJkLLI4KdKSn6KgsACPEjNRmBKPx4UlSA05iesZHGQFGYgKV9wIXAefjeSkituS+XScOBGNrj4fYLg2APDgeAJVrM50R8zGVNskBHoMxTT/7xF89AACvD5BqK4dxLKb+HzOSlzrsAL7NrpWfM2fFGePX8TzgoavKTxW6ZZoFbGxNxmDhT7dID26FXvjFe3CPz2Py6kDsPCDQdACD46Tg/gaCzgigHjwPA8Yqjlf1XMbqG5fjucVz1N1IaSYUKtGZcV/87xi+jMcsxA+3aQ4unUvFFXh8fT8ZaQOWIgPBmmBSw3G5sBIyKANm/9bhc8m2aCVVt1vlwFEMLeygGZaGH6PzETWvdPYuf8acuXZSH2cg+clamKiTFUM1MRfx2ys6v4pA8Bz4KnGgl96BivXpmLCto1Y4bsEfpv9MKNn5St0Q4xZ6INu0qPYujdecQMa/xTnL6diwMIPMEirstIVhOZ4592h0An/HNM+2InfIm7hj/378EdG9ZJDZG4FC800hP0eicysezi9cz+u5cqRnfoYOc9FGDF7KmyTAuExdBr8vw/G0QMB8PokFLp1kphDavBmBEbKAG0b/N+qzzDJphW0tAWq8wSKriEvr1428k3Jj1fR3kptYDhqNia3e4qD89/F4v8G45egLVjgGQxxf3uYqOmnkN3A9llj8G//31BxT2ltPAdOTuBrvCBRVIeHIiXVlA8OitSqUTgpCqlOLQKBR0VqVTwmQ0F+xcvMkhjsOfQI73y2CC4VH+4S5KjRBKrbTM01vlT8AHAcV9E+UD9GAZUdqNYLD9mN7Zg15t/w/y2jxqNKVI71TYvJWyquWQSA53hQ1XjYxDyuIkZn78UYU/4ztsW5YLqTcg5WMsSo2ZPR7ulBzH93Mf4b/AuCtiyAZ7AY/e0KVc6JQm1taOEZMtLzkB1+FdEC1eO89MxKrE2dgG0bV8B3iR82+81A9XD1Ym2nmGehyFnwKHiUiMzCFMQ/LkRJaghOXs8AJytARlQ4Yp/l4ryfB/694VKNFyAM00jKm/LfWEX36cJePxpnLSaBhiU5jfs3zfaaS54eY2hI/2Hksfw7upqudNdL0V065Duc7I21SNOgPQ2Yt59i67k5l0hxbJDvcJKY6ZOhlTNN3fInZXFExKXRsYV9yELfmDoM9qKdl34gT2sjshuzma7nE3HSCNrh2Y+sjY3IxnksfbhuLvWzdaGpn+6j6xnllHZsIfWx0CfjDoPJa+cl+sHTmozsxtDm63V/kaj89mfUQ9OS+k32ogVLPqIF0yeQx6cnKVlORFRId0+upVFtRCS2caeNp+OJiKjo7iHyHW5PxlqaZNB+AM3bH0tFVEKhK7uTttCInKYuo08++YQ++eRjWjxrMP3r30eoSM011dFQbIiIypPoxOpx5OQ4lKZ4v09zZvjQVyGZxBFRfvRRWuVqTiINCU3Zcobi4v+kvQv7k5GwFTl67aaraZzK89U+dwPtW3j3BK0dZUUisR1N/OIkxSRH0S/rx1F7kZjsJgTQr3ce083gNfR/ViIS206ggLMJVEpE5UknaPU4J3IcOoW8359DM3y+opBMxZOVXltF/Tv0pLc9P6Z1/ito3rwAuljv3WhE9OwqbRjRngwMrMhx0ma6dGY5OXUcQrPWHaJLV35WHxNlqmKgJn4q++ejWDq5dhS1EYnJxn0jnY4vIS7tME231iIBQBAISKihTQbmHWmIz0G6V0pEVE5JJ1bTOCdHGjrFm96fM4N8vgqhijDVJU+n39eOJQczPTKwGUZLgs/SWmedqptsiZ7R1Q0jqL2BAVk5TqLNl87QcqeONGTWOjp0I4eIiujuIV8abm9MWpoG1H7APNpfbxKX0rVV/alDz7fJ8+N15L9iHs0LuFh1w2C9ecLlUuSRlfS2pYhEVm60+shNymlEztfxMu39sG4bEBEV3Q0i3+ESMtM3JCvnqbTlz6yqNlXVT7m0fTTBwohMzQeQf4zyXYD5FH10Fbmai0hDMoW2nImj+D/30sL+RiRs5Uheu6+SIiUbKr+Q7p5YS6OsRCS2m0hfnIyh5KhfaP249iQS29GEgF/pzuObFLzm/8hKJCbbCQF0NqGUqOghndgwnYb0HkzjPRfQQu8PaP3JR1RMRFxuJB1Z+TZZikRk5baajtzMqbrOettM7TUqvGj8iu+fojVuFiQSWZP7xuMU+0xVjnGUG3mEVr5tSSKRFbmtPkI3FR2I0vZNIAsjUzIf4F+rXpVUjfUvEhPF3+q/5sK7J2ntqDYkEtuQ+8bTpOhiTczjKiUUstiJxn6XVs/NtTUV0d0gXxouMSN9QytynrqF/lRMqKrnRHkC7fu3hIzfkpD7ljB6Tg2P80QcpR2eTtZaAgJAAoGQNLQNyLzjEPI5eE9xY36T267GPGs7gTadiScu7Rgt7GNB+sYdaLDXTrr0gydZG9nRmM3XKV+eQDtGtSaLMbsosZ7vSGAYVQRE1e85Mq83edQaOLscx9jQW1jv2NC7Iwzz1+HTTsA/8Dne9XQEnyNFQaEMhdJ03PnpADK8z2L7iAbf3msc7i429HPGTyNCcHtTbzX7qZkXU4arqz7ALa9ALLKrb7vH66AFXGPZVaz64BY2fb9I+S8td6znU7DLcyPMvg7ERPW//vYX45F2wh+Bz9+FpyOPHGkBCmWFkKbfwU8HMuB9djtedrhimL/Sq9vdwrQc9XzszDB/OT4NB30X447dO+hu1xk9+wzAkOEjMHriJLg590aXOttimOaHR27odzj11nTMbK4L35fWAq6Rz0Xod6fw1vSZyn+prYWM9VxhHqQlPApDd+K85XSM/scX9wCfdhC+i+/A7p3usOvcE30GDMHwEaMxcZIbnHt3qbsVl2GaGbbAf4PI8/LwjCtArrTufQYM89cTw8hCB38s6ovh0xdhtf9GbFj7MebPeB+/2M2DV9W3ML0EeQ5yCuQozH+m5mZJ5kXw0hhE8WOwbunQivtuXj/N/xp5SGOiwI9Zh6VD669hixrr5dHYONQS5uYW+NfCPMxcMqDqayf/UWIjWOj8gUV9h2P6otXw37gBaz+ejxnv/wK7eV54FcMVw/yV2BadN0Rpwnns//kKkgrkEBvZYOjk2XC1+zu+XpRhaipFWvgpnLgcg3SZCMbWvTBi/Dvo9tYrmC25NFw7eBi/xeeiXMMYdsM94D3URvkohnmttbyxXo7k33YhKNYUI2dOhrNZM3rfsTQN4adO4HJMOmQiY1j3GoHx73TDqxiuGOavxhb4DMMwDMMwDPMaaUYvlRmGYRiGYRiGeVlsgc8wDMMwDMMwrxG2wGcYhmEYhmGY1whb4P/D+OeJiEnIb3bfZlaUfBt3UkuUH26comTcvpOKFzz71Wku9WBeT/xzJMYkIL+5JW9zV5SM6PvZzW7Ma5Y4KR7EPEaR8uNM/ZRz8m+fA3g8T4xBAhsU/l5/ezu3DGyBX0kWj/Pfr8PskQMxYOBguI6diInu7pjk/Rn2XMt49V+5x6Xijy2e6GPbBR7f3X/15b8MPgnfzXRBf+8DeNrkcYpH0ncz4dLfGweafvIr1Fzq0cwU/Ir3ezhg1MYwPFf+G9NIHFL/2ALPPrbo4vEd7jer5P07FODX93vAYdRGhDWlE/FZCNvjiyH2nTBycxhawBc4/oM4JP+xBTN72aL73CAkc8p/f7OU/rka/TsNxrJzWQ28MKwvJ//eOYBL/QNbPPvAtosHvnvjBoUXHBNq4ZH83SR06jEF391vyujw97Zzi6L807ZvtkI6Os2URCbT6GgxERU/phMLe5GuZnt6b3+C8sEvr/QqfSTRon8tv6742etmpDApkqJSipUfrgdHWTdvUELNn9EuTKLIqBRqzNl/qeZSj0pcFt28kUD/5C+OPz82i7q4baPoZhOUlqqUrn4kIa1/Lafrf2vy1pNvf7fnx2hWFzfa9iKdSJ5AmwdoUevZJ5pPXjZbJfTHAhvScl5Pcf9ke//jSunaMmdyWX2F8pX/VEs9Ofk3zwGlVz8iida/aPnfOii08DGhEpdGO0d3pqlBSU2fI//mdm4p2Dv4tYhhZKgHAQABAGjbYOzGz/Cu8RMc8/9a+eCXJzKCkYFA+dFmQdfaET3aNeLnRorC8fWa/XhQ8w0LXWs49mj3z/9YSXOpR4Wi8K+xZv+Df/DTmjLcze2Frw/6oltzCUqLJYKRkYFinPg71Zdvf7Oyu7no9fVB+L5IJxLpQ1/3b49aCyWCrr4u+5idS0Fy249x2G8QDJX/Vks9Ofk3zwEiIyP87VN6Sx8TKsniwI/ej8Cp1mjyzwz8ze3cUojWrVu3TvnBZq0kCZcP7cb+X68ikW+DTrbG0FA+5oVxeHzmWxyKbY9JS9+FgxiAsBRRR75HSHo7fDarIy5cu40HCU/BmbaDqUYGbp2/ijsPE5ErboO2xtU1kaXHIOJWPLIFJrAw0qo16MjzEnAzIhZZAgEe/LwPMbaeeH9E26pO3dC5RSkxeCw3g6k4C3Hh0cjRsoSZrurhv05ZhY8QeikcsQ8TkPAoDaWGlii9exGh0Q+RmK+F9laGinqUpCH6gQxmZooXPACP/EcRCI/LgdBIA0VSgm5JJLZ7TYd/qAY6dTWBvNwQ1ua6EKAEadEPIDMzg54AAGRIiXmEMlM9FMREIk3TAqY61fXm8+7hz5CbuPswAQmPMsGbtYWpdiESrl1GeFwCMnlTtDfVBuS5eHAjHFEJOYCRBYy1q8uQpcTgUZkp9ApiEJmmCQtTHQjr1AOQ5z7AjfAoKIowRnURda9PX1/Fj8OUZeF+xA3EpsthaGmC6suRI/fBDYRHJSAHRrAw1oYQPLLDtsNruj9CNTqhq4kc5YbWMNcVAJAhPSYCt+KzITCxgJFW7dmhJCMW4ZEPkCcwhLmRdp0FJSdNROTNGKQU68DcVLfWwFg3Jnpo16sHtBITUPyKYsLnxiHkyi3ce5iAhMQ8aLRpCyMNGZLC/8D1mASklRnDxrxVrXMAHs8f30Wa2BQGskeIuPEQJYaWMKnRnk1v6/rirkKT2q8GeR4SbkYgNksAwYOfsS/GFp7vj0DbisA3HMv6lCHrfgRuxKZDbmgJkxo5UV85fHZYA/kGQJaOmIhbiM8WwMTCCLW6UUkGYsMj8SBPAENzI2jX7URIjLyJmJRi6JibQrd2J0LMozKY6hUgJjINmham0GvXCz20EpFQbAazyk6kLm5VZLgVtBWX9Sdh8Xhb5MSGITpHG5ZmNRey9ZTF5yIu5Apu3XuIhIRE5Gm0QVsjDciSwvHH9RgkpJXBuL05WlVWh89A1IVruP0gAU85U7Qz1UDGrfO4euchEnPFaNO2Yt4oSkHMYznMTMXIigtHdI6WUl2UNOZ4lfFMRXRCCczMdFCQGInIJDlMLA2hCaAs8y7Co9IhMreAvhgAeKT/EYj9iV0xb25/ID4CMVlimJrrQVxdYINja52xv7oWwAvkLp8R1aj570XmqbKs+4i4EYt0uSEsTXRqx5ME0NWQIfVJPfGEupysOwcAJciIDUfkgzwIDM1hVDchIE2MxM2YFBTrmMO0zhMqkyMv4SYiYrMgEDzAz/tiYOv5PkZUDgpqxvja3rAxoWaeivri3VE2yH2hPK2vnRuOZdPbuGWqE+9mrSgCm9yc4DrnY/j5rcDcEc4Y4R+KQuXjXiE+6wYikzi06uUCoUl7tM38AfPGe2PPXTkgMkE783h8M20cPgpOBwdFhz233htLA0MQfeMnLB0oweDVF5DLA4AMMd/NgJvXHkSlJeDkKl8EPqixubKBc7MzI3Bg8TDYS0Yh4MgezHMbjakzRqNnN3cEJjSwObOBsnK1TGEuv4pN08Zg/NorIH0NtEoOwtKNl1BibAwxL8XtIx9jpH0HDPa7UnHTShmiv/GE7+FUyEvuYu+0fnjv+0TkpOdCx1gPPF+Kovx8FMjKIL19BB+PtEeHwX64UsIjK2wvFg2zh2TEOuz64j0M7O+CPrMPIrdGVYW6b0Hr/n8xd+x4bIw0QhtdIYBWaK0Xga1bbkJs0gpc4iHM6jcRX9/JwdPQALhJBsLvugx8Vhj2LhoGe8kIrNv1Bd4b2B8ufTyx61LNegAAh8RDs9Bv4te4k/MUoQFukAz0w3VZQ9eX1MA77TyyL2/ETM//4EJyFqK3j4PE2RfHM3iAS8ShWf0w8es7yHkaigA3CQb6XYeMz0d6rg6M9XjwpUXIzy+ATA7wGeew3nspAkOiceOnpRgoGYzVF3Ir9pgW4Ppmd4xdG4ZyrQKcXtAPDr2HYeToidhwSQYgH2HbPOGxIhgxKfE4sXQQOrv541I2rz4mQzbgahleSUyEOnooOv8ZJo+Zip1J5jDTBgBtvCW6hg2rTqHISK/W8VzqFWz36gPrzlOxPcgPI3v1xYi3XeAgGQ7/awWKY5rU1rNxMKuBuNd65kov0H4VZ8pivsMMNy/siUpDwslV8A18oMh5QE0s6+KzL2PjTE/850IysqK3Y5zEGb7HM8A3WA6P/Dr5JgfAI+PcengvDURI9A38tHQgJINX44JiwEHB9c1wH7sWYeVaKDi9AP0cemPYyNGYuOESZADyw7bB02MFgmNSEH9iKQZ1doP/pWzwfBbC9i7CMHsJRqzbhS/eG4j+Ln3guesSjnw8EvYdhmCDohOpjVu9yh7jxyWTMc1nHsY7dsOE3Y8UsWyoLKEO9IrO47PJYzB1ZxLMFR0N2m+JcG3DKpwqMoJezdlMaIL2bTPxw7zx8N5zF3KIYNLOHPHfTMO4j4KRXp6NiAOLMcxeglEBR7BnnhtGT52B0T27wT0woUa7VuAbd3zD8czDzUNL8bakI4asC8bRtdMwxXMOJro4oN/Sc7h58AOMmTAb8yf1g8OgtbX7DWXitG9/OPZ3xcBuNnAY/zVuFqoYWxsa+5W2Jzc1d9XNf+XZLzJPZePyxpnw/M8FJGdFY/s4CZx9jyOjoq4NxrPi9IZzkleaiypOKLiOze5jsTasHFoFp7GgnwN6DxuJ0RM3QDGshmGbpwdWBMcgJf4Elg7qDDf/S8huaGu3LAbfzXCD154opCWcxCrfQNSe0lWN8bW9kWPCS+dp/e3ccCxfoI1bMuU9O80XR0+/H0P6AhBQ/U+gO5L++4RTPvgFldDFD2xIrOtCSw4eo2NBW8ir91tk+K8p9F2MYneX/O4G6qPdiZZdq9hjV3qNlnXSIZfPH5KcOMo8Mo2GrQir2FPPUfLWIaSp4UhrbpdT0dXl1N1uNh2XVjxd4Smaa6VRsQdf9bnyR1/SAE0Dcl50nBJLiSj/fzTNXIsGfvmonv1qqssiktPjve5kodmRfE5cpS2zPqDgmjHkMmiHqxYZTP6JioiISkNpWdee9EmYIgbc0yDasD2Oyomj9G9dSdvKi86UVJ1MGTtcSctgMv1UVPncQ0lTpxst+j2LpHEX6NydXKrTYuUxtL63DlnNPl6xz5Kj9H0LaPnZ50Qkp3ub+lIrJz+KKSei8gha2VWbeq65TeVExCVvpaGaOtRt0e+UJY2jC+fuUC6nVA/5PdrUtxU5+cWQooiV1FW7pyIeDV5fXVzGYfKwd6MdyYorKI/9koaYtKFZxwpJfm8T9W3lRH6KSlLEyq6k3XMN3S4nIi6dvnXVJiuvM1RCRMRl0pFpw2hFWEU/4pJp6xBN0nBUHF8es5566znT+orNt+WRn1J3rQ608LLieOmZ+SRxWEwhlZsOi67SUgdNspzyIz3l1MTEeCr9r/jVxYSKQmixRIsclocqro04enpgBk3ZlVK3nYmoNHQZddKwpOFrz9GTcqKiu7tpgpWINJ3W0Z3yprd1VpyKuCt54fYrukrLu9vR7OrkpVNzrUijcr+vqlgq4zLosIc9ue1IVsSnPJa+HGJCbWYdo0KV5dTNNy7zCE0btoKqu9FWGqKpQY5rblN5eQyt761HzuvjFGNEeSR92l2LOiy8rBgXpGdovsSBFld3Irq61IE0LafQj4pORFuHapJOt0X0e5aU4i6cozu5HHEZO8hVy5im/q9iTFQVtzqyaJebNum7rKaQLI6IntOvsyxJe8hXlMSpK6uIQhZLSMthOYVWXv/TAzRjyi5Kqa+jye/Shj7a1GnZtYpxsJSuLetEOi6f00M5Eckf0ZcDNMnAeREdVwyq9L9p5qQ18Et6VHdQVX+82nim07euWtSq30oKyZATUSlFftaTNAxd6JPfnyja+/Zn1FPLjnwvlVRdv6bVOPomIpfkVEgxuyeRjYYWOftHU3m9Y2s2Zagc+5U0MXdVz3/U5Hkq47AH2bvtIEU6llPsl0PIpM0sOlbYiHiqy8k6c1E5xazvTXpV9zSUU+Sn3Umrw0JSDKtSOjNfQg6LQ6r2chddXUoOmpY05cen9cSjiK4u7052s49T9ZQ+l6w0Kvbgqxnja3mTx4SXzlOldlYVyya3ccvWgt7B55GRnIoSqv0olaYi6Yny+4ovSdMKnbtbwaR1D8zYeQPJsUfg3bUxu7tkuHzsHNIenMKWgAAEBHyBoGI3rPOfCSedQpzbuR+J3YZimFHF4dq2sLGs/hiv4XMBkZ4edEX66OnmBltNALoSdGwnREF+HpRCorYsQASbWd/gy3FF2DPVGwnvrcckqxpdQagP/erPuQCxFSTWyfhq3GDM2nQUcRoeWP1h5xofE9ckhL5+5bYexf/r6GhCaOAM10FmMOrsCrfuJnU/OhJ3xlyftyE7FojgNB7gHuBIeGtMHq4HQASJzwFcCfKFTepl7P1iH8KkPEqLS8ADEOroQFNoAGfXQTAz6gxXt+4wESrVQySBz4ErCPK1QerlvfhiXxikfCmKS/gmXZ/07BGc03KEs4XiCsRdluFybhr2u+tCJPHBgStB8LVJxeW9X2BfmBR8aTFK6ntnQHYZx86l4cGpLQgICEDAF0EodlsH/5lO0AEgT0pEapkQgooLENvaoh3SkZRUDCAPJ3f/iFT7HnCs7Jat+sLDXYKcU4dxNl91TKpi/4piglYD4PvhQKQd+ApHM3mAS0bwaQ1MmNSubjtXtJe2yAz9x7vCSgy0cvCEn3dPUEwIQjIFTW5rs381Pu4v2n6F53Zif2I3DK1OXtjaWFZviVIVS2XSszhyTguOzhaK+Ii7YNnlXKTtd4duU8oBILt8DOfSHuDUlgAEBATgi6BiuK3zx0wnHUCehMTUMgirOxFs2wHpSUkoBpB3cjd+TLVHj+pOhL4e7pDknMJhRSeCjqYQBs6uGGRmhM6ubuhuIoRQX7/Wu+Wq4taQVv/qiz5mQgDaaN/eHMiXQsqrK6sVBvh+iIFpB/DV0Uzw4JAcfBoaEyahXX0dTR2RHvR0RdDv6QY3xaAKScd2EBbkI6/uoKr2ePXx1INuKwE0bXvB2UIEQBMSe2uI0Q69BlhBDEBsY402ggJIpdUVEFn2hmsvE4igi65ztuCjgQLEXPkTOXx9Y6s2rqgc+5U0MXfVado8JcXZI+eg5egMRTqK0WXZZeSm7Ye7rvp4qs3JOnORHEmJqSgTCioeE8NWkRBQDKsnsfvHVNj3cKzay92qrwfcJTk4dfgs8qvKqVB4Djv3J6Lb0GGontJtUD2lqx7ja2FjQsPU5F2ddlYVy6a2cQv3Ijn8DxHDvo8TzJW2SglNndC3k4q90i9CoIW3JL0x2NUVg51sYdjY7Vn8c2TnFkPLwR3LV67Eysp/KxZjnH0G7j/MB0Ti+oOu6txOYkBQOShVEIggEgDE1x021ZYFAEIrjJriBisuEZd+j1Tq2AIIKgcAABC2x9yD57HLQx8hGyejV6f+WHQspe7H2BUEynWts/uzPkJYTvbBRP1LCNwTi6KIH/Go6zQ4VjStUFyMqG+84bM3HT3m+GC4pbDWhFHfM9SuhxDi4ih84+2Dvek9MMdnOCyFFSU0+vo45GbloCQ/DzXm32pCMYqjvoG3z16k95gDn+GWqHwKZfzzbOQWa8HBfXl1+6xciRWLx6GTGNDsOwYjW8fj4m+PwQEovXcfycauGDtED+AykfJEBr6srMb3/ophY20FYVk+pM8Uo2hDMan2KmICACLYzVyCSdqn8dWuGJTEHcKl1lMwxkT5uIaI0aFLR+iiHKWl1PS2bnTcX7T9OKTef4h8iCCuN3mhOpZKuNws5JTkI6/+SjS6HIDH8+xcFGs5wH15jTxfuQKLx3WCWLMvxoxsjfiLv+GxohPhfrIxXMcOgR44ZKY8gYwvQ1mNL48W21jDSliGfOkzxcfZdYKNumNRg3FrHJFQBHBylEN9WSK7mVgySRunv9qFmJI4HLrUGlMa39GUCKpeQFf+v0gxqNazGIWa4xsTT+XzAYFQoPgsuvoBCEENPD8AoRnsbI0gqIyXcgM1Zuyv5WVzV4ly31A1T3G5yMopQX6etJ7rVRdPKZLV5qTyHKCJvmNGonX8RfymSAjcu58MY9exUAyrKXgi41FW+wlhbSVEWb4UFcNqFS71PhRTev0VUDfG18TGBFWU86ZuntZsZ1WxbGobt3T198xmSu//NmDXoj54SyxQNLKxExbs+hzulS+f/w4iMUQgKI9XRBwgNEAby1a4H7wHF6XVf+MSz+J0jAFMTcQoib2FqNKaZwLE86rPjW7iJxSNKItP+x/W/9YbB/d7oHj3B1hxNq/efYEAAC4VsU/awfObi7gfdxKruqdgp+9GXFC6jpemNxI+nhLE7fsK/kcKMGSKXcW7MYU4s2Q8VuVOwrfrp8LJvHJ0rJvADSo8gyXjVyF30rdYP9UJtYpo9PWJ0Lq9FXQyz+Kn3/KqHuVzzyIwKB4FZ5Zg/KpcTPp2PaY6mVe9211fLYUGbWDZ6j6C91xEdRNxSDx7GtFyQGjmjq07PaF1cRvWb92CTcd08PHZg/CyEQGiNujYwQBc3E3cqtrUyKOstAzCtj3gaNnItH4lMalg6IbF87vj3u7P4b8jEl2mD4PyrbW1EahGhyuXlYA3d0DXNsVNbuvCRsf9RdtPABNTE4hLYnGrbvIq8kZVLJWIWreHlU4mzv70G6pqwefibGAQ4gsaXw4ghEEbS7S6H4w9tRMdZ09HQy40g/vWnfDUuoht67diy6Zj0Pn4LA562UAEEdp07AADLg43qzsR+LJSlAnbooejZaMnh8bHXz31ZRnCbfF8dL+3G5/770Bkl+kY1mBHE0EsqmdxSdTAC9WX8eriqZoM2TnFaN+zF1rXV2Ajxv46mpK7qua/phK1RnsrHWSe/QnV6cgj92wgguKhJp5tYKouJ+sQwsx9K3Z6auHitvXYumUTjul8jLMHvaAYVjuigwGHuJu3qveK82UoLROibQ9HKA+rAhNTmIhLEHsrCrVrQFBM6arH+Jre7DHh1eapqlgmtG5aG7d0LetyhJYYsyUUj+LDcOnSdcQnhuOb8Vav9CJKy8pB5aUorX+EgMjcChaaaQj7PRKZWfdweud+XMuVIzv1MXKeizBi9lTYJgXCY+g0+H8fjKMHAuD1SSh07S0xdsYYmCbuwZJVp5BSBpQmRyI2i4M0LRlPCwQNn2snBs9xkBNfIwkIBALP1zeY6aosC2X3ELj2T7isnY+B7/0H26aUYd+CZTiRWVkSD44nxQsPKBZ7wZsDESkDtG3+D6s+mwSbVlrQFgihra0FPMtAel42wq9GQwaA53hQrUGWAHl5nRs06xLDce48DMo9jKM0FmPeqniYL8CjxEwUpsTjcWEJUkNO4noGB1lBBqLCYwEABDnKlZ6gZj34gkdIzCxESvxjFJakIuTkdWRwMhRkRCE8Or6B66tdHgAYjpqNye2e4uD8d7H4v8H4JWgLFngGQ9zfDoWPEpFZmIL4x4UoSQ3ByesZ4GQFyIgKR6xMG4pQpSMvOxxXHw3A7Km2SAr0wNBp/vg++CgOBHjhk1Bd2IkBSM9g5dpUTNi2ESt8l8Bvsx9m9Kx8JWuIMQt90E16FFv3xit+MIh/ivOXUzFg4QcYpKU4qqGYgHgQ/+pioiBGZ+/FGFP+M7bFuWC6U33vFtbAZyM5qeL2eD4dJ05Eo6vPBxiu2dS25lGgKu5Kd+C/WPvdQObwGRhjmog9S1bhlCJ5ERmbBU6ahuSnBShUFcu6lcDsye3w9OB8vLv4vwj+JQhbFngiWNwfdoWqypHVyTfBiNmYapuEQI+hmOb/PYKPHkCA1ycI1bWDGFKcWbkWqRO2YeMKXyzx2wy/GT2rthMYjlkIn25SHN26F/GKToSn5y8jdcBCfFDdiSCv24nAg8AT3+T4g+fB8/VM5jwPnm9cWeLO3lg8phw/b4uDy3Sn+reNAYDIHFYWmkgL+x2RmVm4d3on9l/LhTw7FY9znqOE58DJFddRNaqS4g2XyqGvFjXHq48nV3HtNQonRSFV0SACgQdfY2VDsgLkV6wgS2L24NCjd/DZIhcoPtxUHlvVjP31anzuqp7/Spo4Txli1OzJaPf0IOa/uxj/Df4FQVsWwDNYjP72IjXx1IHZWNU5Wd9cJD2zEmtTJ2DbxhXwXeKHzX4zUD2sjsFCn26QHt2KvYonBP/0PC6nDsDCDwahIiOqCM3GYsYYUyTuWYJVp1JQhlIkR8Yii5MiLfkpCgQjVI/xNb3JY8IryNNa7awilvYm6tqYR+55P3j8ewMu1Xh91GIpb8p/YxXdpwt719E4azEJRBY0fPkuOhVT389qPKOrG0ZQewMDsnKcRJsvnaHlTh1pyKx1dOhGDhEV0d1DvjTc3pi0NA2o/YB5tD+2SHEqJ6WIHZ7Uz9qYjGycaeyH62huP1tymfop7bue0fC5+dF0dJUrmYs0SDJlC52Ji6c/9y6k/kZCauXoRbuvpilXsuGyCqNo978dyKzPR3QuRU7EpdHFFf3JQCAks0GL6dDtJ3T35Foa1UZEYht32ng6nqj0Gq3q34F6vu1JH6/zpxXz5lHARcUNKfKEffRviTG9JXGnLWHPqfDuSVo7qg2JxDbkvvEkhYcdoZVvW5JIZEVuq4/QzRx1t7FI6Ze5Y8j/Ts27cThKO7aQ+ljok3GHweS18xL94GlNRnZj6PNzIXRk5dtkKRKRldtqOnIzhzgipXqcpnhZGh1b2Ics9I2pw2Av2nnpB/K0NiK7MZvpelbD11efortB5DtcQmb6hmTlPJW2/JlFHBFxacdoYR8L0jfuQIO9dtKlHzzJ2siOxmy+Tvkkp4R9/yaJ8Vskcd9CYc+JqOguHfIdTvbGWqRp0J4GzNtPVV0l7TBNt9YiAUAQCEiooU0G5h1piM9BuldKRFROSSdW0zgnRxo6xZvenzODfL4KoUyOiMuNVBMTW5qw6cwrjYlCCYUsdqKx36WpPK789mfUQ9OS+k32ogVLPqIF0yeQx6cnKbnihqmmtrXquNf1Yu3HkTRiB3n2syZjIxtyHvshrZvbj2xdptKn+65TRrmKWNZfCQryHU4SM30ytHKmqVv+pCxFJVSWo5xviqIOke9wezLW0iSD9gNo3v5Yxc3xXBodnm5NWgIQICCBUIO0Dcyp4xAfOqjoRFSedIJWj3Mix6FTyPv9OTTD5ysKUXQiijyykt62FJHIyo1WH7lJOYpORCfXjqI2IjHZTthEZ+JL1MStpny68/MnNMxcRBoSD/ryVCzdv7KHFg0wIpGuE83fG0bpqY0rqyRkMTmN/Y7SVHU0Inp2dQONaG9ABlaONGnzJTqz3Ik6DplF6w5dois/ryJXcxFpSKbQljNxFP/nXlrY34iErRzJa/dVpbLzKfqo+uMbjCcV0t0Ta2mUlYjEdhPpi5MxlBz1C60f155EYjuaEPAr3Xl8k4LX/B9ZicRkOyGAziaUUtHDE7Rh+hDqPXg8eS5YSN4frKeTj4qJiKPcyIbG1gbGfpUal7sq579LV15sngrypeESM9I3tCLnqVvoz6zqGjQcTyJSk5OPYpXmgBKO0g5PJ2stAQEggUBIGtoGZN5xCPkcvKe4wbM8iU6sHkdOjkNpivf7NGeGD30VktlgTDhpBO3w7EfWxkZk4zyWPlw3l/rZutDUT/fR9QxO5Rhfxxs5Jii8TJ4+rNPOKmJJ6tpYTgk7RlFrizG0K7HubeEtjYCI6v/UhGGYfwyfdgL+gc/xrqcj+BwpCgplKJSm485PB5DhfRbbRyi/n9QM8CnY5bkRZl8HYqKx8h+ryaPWwNnlOMaG3sJ6R+W3sphXhk/DCf9APH/XE458DqQFhZAVSpF+5yccyPDG2e0j6rwr2TLwSNnliY1mXyNQVUdjGq+Ruduy8Ug74Y/A5+/C05FHjrQAhbJCSNPv4KcDGfA+ux3NcVh9pV7bMYGpz6vc3cIwzKvAp+Gg72LcsXsH3e06o2efARgyfARGT5wEN+fe6FLn891/FleYB2kJj8LQnThvOR2jG7tAqPuZPfPK8Eg76IvFd+zwTnc7dO7ZBwOGDMeI0RMxyc0ZvbvYNby1pbniCpEnLQFfGIqd5y0xvdEdjWnIC+duC8SnHYTv4juwe6c77Dr3RJ8BQzB8xGhMnOQG595d6m6bee28hmMCoxJ7B59hmhs+E8c/HI6ZQaVwGjsaLhJz6HAFSE3MhOn4NfB7r0PzGYjl0fDv1xvrHxiitf0E7DizE+MrvoKyISV/fIjO75zCO2fu4r9vN3g7H/NSeGQe/xDDZwah1GksRrtIYK7DoSA1EZmm47HG7z10aDadqDHkiPbvh97rH8CwtT0m7DiDneMrvgaPeTEvkLstGZ95HB8On4mgUieMHe0CibkOuIJUJGaaYvwaP7zXshLiBbxuYwKjDlvgM0yzVIq08FM4cTkG6TIRjK17YcT4d9DtrcZ+Z+vfRY7k33YhKNYUI2dOhrOZ6gVCacJ57P/5CpIK5BAb2WDo5NlwtXvFX3PLVClNC8epE5cRky6DyNgavUaMxzvd3qrxXeEthzz5N+wKioXpyJmY7GzGFvcvrWm5+1ooTUP4qRO4HJMOmcgY1r1GYPw73dDshtW/0Os0JjCqsQU+wzAMwzAMw7xG3oCX7AzDMAzDMAzz5mALfIZhGIZhGIZ5jbAFPsMwDMMwDMO8RtgCv8UoQvLtO0gtUX68+SpJi8G9ql/Hbd7454mISchn39zIMAzDMEyLxxb4FfiMMPz09WK8O2QgBg4aiw/+cwh/Jlf+XngpEv7Yiw1e72CQ6zR8uvsiEip+Ovzvwid9h5ku/eF94GnzWoSW/onV/Tth8LJzyKr82ej82zj0kSvs7Ydiw1XFz0E3W1wq/tjiiT62XeDx3f0aP/nOMM1Twa/vo4fDKGwMe678J4ZhGIYB2AK/mtCyHzw+nAen4giEZ0kwbeF0DLKu/OIoLdgPn4NlE9pBZjcVq7xdYf83/9yb0GYefrgeit2zmtd3P5fdOoHfMQkbP3sH5hUVExo5YuqS8ZC0hC9oErXDcF9vDHmL0HxqyyP71k08qnx9yTQbfPYt3PxHG6YQl379E5Y+m7G0n77yHxmGYRgGYAt8JQJTvGUsgEDfCEb1REZoaIy2pm/9Qz8ypAtrxx5op638+D+JQ0pyW3x82A+DDGv/RWigD11B7ceaLZERjAyaUWWLwvH1mv14wD5OaGaKEP71Guz/Jxum7C5ye32Ng77d0KyGAoZhGKZZEa1bt26d8oPNWkkSLh/ajf2/XkUi3wadbI2hoXzMi6Ii3AzairPFg+HjNaTqHelKXMp5/PzQAZPfblvxoxBFSIl5DLmZKcRZcQiPzoGWpRl0a5wnz32AG+FRSMgBjCyMoV3PCwcAAP8cj++mQWxqANmjCNx4WAJDS5Nax5ekReOBzAxmetWLUVl6DCJuxSNbYAILIy0IAKDgAa6FRCDuYQISEqr/PcrkYdrWFNoCOXIf3EB4VAJyYAQLY+2GX+nx+XgUEY64HCGMNIogJX3oV/0uEUGgqwFZ6hMU65jDVLfGT2WU38GPX/4GrXeXYmLn6pdEnDQRkTdjkFKsA3NTXRU/rsHj+eO7SBObwkD2CBE3HqLE0BIm2kLwGVG4cO02HiQ8BWfaDqYaGbh1/iruPExErrgN2hpX94h641NBnpeAmxGxyBII8ODnfYix9cT7IyrbVvW51RquZ00NliVLQcyjMpjqFSAmMg1iUQK+nzcd/qEa6NTVBPJyQ1ib60KgqoyiFMQ8lsPMVIysuHBE52jB0ky3dpvK0hETcQvx2QKYWBhBq+bFlGXhfsQNxKbLYWhpAp2aJzZ0nlK9NS1Ma59XQX3/55ERdQHXbj9AwlMOpu1MoZFxC+ev3sHDxFyI27SFojlfYa5VKMu6j4gbsUiXG8LSRKc6XvJcPLgRjihFQTDWFgJ8NsK2e2G6fyg0OnWFibwchtbmihexDcUIAEoyEBseiQd5AhiaG0FbuRNxUiRG3kRMSjF0zE1RM4UAGVJiHqHMVA8FMZFI07SAqV479OqhhcSEYpiZ6VX0gSbkM8MwDPNGaFnzQFEENrk5wXXOx/DzW4G5I5wxwj8UhcrH/eV4ZEccwOJh9pCMCsCRPfPgNnoqZozuiW7ugUjgAIBD4qFZ6Dfxa9zJeYrQADdIBvrhuky5LA6pV7bDq481Ok/djiC/kejVdwTednGAZLg/rhUAvPQ2jnw8EvYdBsPvSsVdtnwGzq33xtLAEETf+AlLB0owePUF5PJA2b0D2BgYjrS8fOTn5yPn5i54j5uIlaeyIKJEHJrVDxO/voOcp6EIcJNgoN911KkWAJRF4xtPXxxOlaPk7l5M6/cevk+qePcyPwzbPD2wIjgGKfEnsHRQZ7j5X0J2gzcI5CNsmyc8VgQjJiUeJ5YOQmc3f1yq5wQu9Qq2e/WBdeep2B7kh5G9+mLE2y5wkAyH/7UCCE3ao23mD5g33ht77soBkQnamcfjm2nj8FFwOjiojg8gQ8x3M+DmtQdRaQk4ucoXgQ9qbLtQeW41dfVUWZY8C2F7F2GYvQQj1u3CF+8NRH+X3pjx3WPoGOuB50tRlJ+PAplcRRnZiDiwGMPsJRgVcAR75rlh9NQZGN2zG9wDExRxAI+Mc+vhvTQQIdE38NPSgZAMXo0LubyiH1/eiJme/8GF5CxEbx8HibMvjmco/lbvedlP66l3H8w+mFs7OI3u/0KYtG+LzB/mYbz3Hiiasx3M47/BtHEfITi9/BXmWgU+G5c3zoTnfy4gOSsa28dJ4Ox7HBk8wCUewqx+E/H1nRw8DQ2Am2Qg/K7LwOenI1fHGHo8j9KifOQXyCBvKEYVHaXg+ma4j12LsHItFJxegH4OvTFs5GhM3HAJMgD5Ydvg6bECwTEpiD+xFIM6u8H/UjZ48MgK24tFw+whGbEOu754DwP7u6CP5y5cOvIxRtp3wJANV1EGAFwT8plhGIZ5c1CLwdHT78eQvgAEVP8T6I6k/z7hlA9+MVwm7RypSRpO/hRbrvxHotI/l9O4FdeplIiI5PToywGkaeBMi44nUikR5f9vGplrDaQvH8mJ5PdoU99W5OQXQ+VEVB6xkrpq96Q1t+spmEopdFkn0rAcTmvPPaFyKqK7uyeQlUiTnNbdoXIi4jJ2kKuWAU3+qYiIOMo8Mo2GrQirqAtHyVuHkKaGI625XU7lsafo1P2K53keSp866ZHRoM/pdgmR/N4m6tvKifxiyomonCJWdiXtnmuovmqVhi6jrj0/obBiUsQ/aANtjysnIimdmS8hh8UhVFxxbNHVpeSgaUlTfnxKHBHRs300VtuYpv5PcYT0zHySOCymkOoTaKmDJllO+ZGe1tN8paHLqJOGJQ1fe46elBMV3d1NE6xEpOm0ju6UE8nvbqA+2p1o2TVFBKj0Gi3rpEMunz8kuZr4FF1dTt3tZtNxacWTFZ6iuVYa9K/l16lUzbnKVNdTTVlcMm0dqkk63RbR71lSirtwju7kllP6t66kbeVFZ0oU56gsQ/6IvhygSQbOi+h4YikR5dP/ppmT1sAv6ZGciMs8QtOGraCwijBxyVtpiKYGOa65TaUZh8nD3o12JCsaoDz2Sxpi0oZmHStUeV55vfVWasQm9X853d3Qh7Q7LaPq5lxGnXRc6POH8lecaxxlHPYge7cdpLjscor9cgiZtJlFxwrldG9TX2rl5EeK9IiglV21qeea24ocTP+WXLWtyEvRMKpjVB5D63vrkfP6OJITEZVH0qfdtajDwsuKdpSeofkSB1pcnRB0dakDaVpOoR+fchXtPJQ0dbrRot+zSBp3gc7dySWOy6AdrlpkPPV/VExNy2eGYRjmzdGC3sHnkZGcihKlOyGpNBVJT17RnlihAAKBAEADN1zyHCCqDJkIenq6EOn3hJubLTQB6Eo6op2wAPl5BIgk8DlwBUG+Nki9vBdf7AuDlC9FcUndd6wBIXR0tCEy64/xrlYQoxUcPP3g3ZMQExKCTB4Q6uujemeODJePnUPag1PYEhCAgIAvEFTshnX+M+GkA4i7jMboTmKAz8W5T2bjP0+GYfO+ZeipBYgkPjhwJQi+Nqm4vPcL7AuTgi8tRn3VEltJYJ38FcYNnoVNR+Og4bEaH3YWA3knsfvHVNj3cKzaB9yqrwfcJTk4dfgs8pXKAfJwcvePSLXvAcfqE+DhLkHOqcM4W/cECHV0oC0yQ//xrrASA60cPOHn3RMUE4IQtV+9qSo+hTi3cz8Suw3FMKOKw7VtYWNZtTFHxbk1nqKC6noWqi5LqAMdTSEMnF0xyMwInV3d0N1EOSXV1EekBz1dEfR7usHNVhOALiQd20FYkI88AmSXj+Fc2gOc2hKAgIAAfBFUDLd1/pjppAPp2SM4p+UIZwvFc4q7LMPl3DTsd9dVeV6j6t2k/q/Oq8w1Kc4eOQctR2coLluMLssuIzdtP9x1RZD4HMCVIF/YpF7G3i/2IUzKo7S4pN5vrlIZI3kSElPLIBRUJK3YFrbtgPSkJBQDyDu5Gz+m2qNHdUKgr4c7JDmncPhsfsWYoAmhgTNcB5nBqLMr3LqbQCjUh75edaybks8MwzDMm0N5NdGMiWHfxwnmSpu2haZO6NupalP4S9JBK20hSFaEonomSP55IaCrX7VHW/FioJpAJIIABJ4AQAhxcRS+8fbB3vQemOMzHJbCel821E/cAV066gLlpSglAAIBqp6Of47s3GJoObhj+cqVWFn5b8VijOtUud+dR1qwL+btKcXkHYGY26Gi1kIxiqO+gbfPXqT3mAOf4ZZoqFrC9nNx8PwueOiHYOPkXujUfxGOpXDgMlPwRMajrKzGl/KLbWBtJURZvhTPlGPHZSLliQx8WRmqzxDDxtoKwrJ8SOucUB8xOnTpCF2Uo7S0gQpXUhUf+wzcf5gPiMT1d35V51bFVpUa9Sx+pr4s5T3ZytTWp0a/AAAIIBIJAOJB4PE8OxfFWg5wX17j3JUrsHicPQqyclCSnwdpnXCqOq+T4iZzdfV+2f6v5JXlGpeLrJwS5OdJ630RLxQXI+obb/jsTUePOT4Ybims9zi1MdLsizEjWyP+4m94zAEovYf7ycZwHTsEeuCQmfIEMr4MtVPIGlbCMuRLn1W8oKgvyErt3YR8ZhiGYd4c9a5xmiu9/9uAXYv64C2xQLGQMXbCgl2fw73yndiXpglbu3YQpD1AfJ2N/RySop/ApFN7FTeG1lB4BkvGr0LupG+xfqoTzCvXhqomX6Ia7xSWQ1bCw9yhK9ooP6HQAG0sW+F+8B5clFY/zCWexeloxacZ8vhAeC/8FQbvf49tEy0hBA9pVi7yzyzB+FW5mPTtekx1Mq/6RqD6qsWlxuJJO098c/E+4k6uQveUnfDdeAHyNh3RwYBD3M1b1Xt9+TKUlgnRtocjLJV7lagNOnYwABd3E7eqT0BZaRmEbXvAsc4JlQhUY+1fLisBb+6Arm1EgEgMUdUCrxoRpzo+MQYwNRGjJPYWopR+y4B4XvW5FbGtq4F6tjV+gbKUvFB9Kglh0MYSre4HY0/tk3H2dBzeam8Fncyz+Om3vKo/8blnERj0ELoNnhfduN8KaGL/F4lFFS9KaiJQY76RsinPJWqN9lY6yDz7E6ovm0fu2UAExRfgzJLxWJU7Cd+unwonlQWpim005EIzuG/dCU+ti9i2fiu2bDoGnY/P4qCXDUQQoU3HDjDg4nCzOiHAl5WiTNgWPRwtGz0wFzYhnxmGYZg3R2PnkeZBaIkxW0LxKD4Mly5dR3xiOL4Zb/UKL0IT/ebOxwDhBXyz6SIyqxYXZUi/FICPL3aF50jdisd4cJwcxNdYZBIBxIPnefAFj5CYWYiU+McoLElFyMnryOBkKMiIQnhsnVcPAAA+OxlJFX/i00/gRHRX+HwwXLENhufAE4HnAUAXI2ZPhW1SIDyGToP/98E4eiAAXp+EQtdODMhu4vM5K3Gtwwrs2+gKY0CxNeH4eWQ8SkRmYQriHxeiJDUEJ69ngJMVICMqHMrV4lKDsTkwEjJow+b/VuGzSTZopaUNgeEYLPTpBunRrdgbr/ghK/7peVxOHYCFHwyCFgBwHDgQeJ4HYIgxC33QTXoUW/fGK24O5J/i/OVUDFj4AQY19JsCfDaSqwOCEyei0dXnAwzXBkTmVrDQTEPY75HIzLqH0zv341quHNmpj5HzXNRwfOwtMXbGGJgm7sGSVaeQUgaUJkciNouDNC0ZTwsEDZ9r18A7+A3WU007QbESk5fXXDILoa2tBTzLQHpeNsKvPsIAVWXwHDg5ga+xOFZ0Qx48D+iOmI2ptkkI9BiKaf7fI/joAQR4fYJQXTu8NWo2Jrd7ioPz38Xi/wbjl6AtWOAZDHF/exioOE9cb71ra1r/F8HcygKaaWH4PTITWfdOY+f+a8iVZyP1cQ6el7zKXDPEqNmT0e7pQcx/dzH+G/wLgrYsgGewGP3tCvEoMROFKfF4XFiC1JCTuJ7BQVaQgajwWAi1taGFZ8hIz0N2+FU8GqAqRlKcWbkWqRO2YeMKXyzx2wy/GT1R+V6E4ZiF8OkmxdGte6FIIR5Pz19G6oCF+KAqIQiQlyu9oOLB8VDEAjwKVOXzs1yc9/PAvzdcQo2XIAzDMMybQHlTPsNRzrVvad7bPcih5wByHTmCXIcMordnbKLfU6rvXMuPPkqrXM1JpCGhKVvOUFz8n7R3YX8yErYiR6/ddDU1lY4t7EMW+sbUYbAX7bz0A3laG5HdmM10Pb/WExJROd3+rAdpWvajyV4LaMlHC2j6BA/69GSy4ga9wrt0cu0oaiMSk437RjodX0JERXT3kC8NtzcmLU0Daj9gHu2PLSKiEgpd2Z20hUbkNHUZffLJJ/TJJx/T4lmD6V//PkLP047Rwj4WpG/cgQZ77aRLP3iStZEdjdl8nZSrVXptFfXv0JPe9vyY1vmvoHnzAuhi5R2x5Ul0YvU4cnIcSlO836c5M3zoq5BMxQ22xffp1Bo3shCJyNp9Ix2PfUZE5ZR0YjWNc3KkoVO86f05M8jnqxDKrOcGWyKi8tufUQ9NS+o32YsWLPmIFkyfQB6fnqRkeeURz+jqhhHU3sCArBwn0eZLZ2i5U0caMmsdHbqRoyI+RMRJKWKHJ/WzNiYjG2ca++E6mtvPllymfkr7rmeoPleJ+no2UBaXS5FHVtLbliISWbnR6iM3KaciFvKEffRviTG9JXGnLWHPGy6D8in66CpyNReRhmQKbTkTR/F/7qWF/Y1I2MqRvHZfpTSOqOjuIfIdbk/GWppk0H4AzdsfS5VXU3Q3iHyHS8hM35CsnKfSlj+zFG1IDZynot61cGlN6P9E9OwqbRjRngwMrMhx0ma6dGY5OXUcQrPWHaJLV35+hblGingG+dJwiRnpG1qR89Qt9GeW4sbWtGMLqY+FPhl3GExeOy/RD57WZGQ3hjZfzyeSJ9C+f0vI+C0JuW8Jo+cNxYgU1394ujVpCUCAgARCDdI2MKeOQ3zo4D3FXbnlSSdo9Tgnchw6hbzfn0MzfL6ikExFPXIjj9DKty1JJLIit9VH6GYOR0SFdPfkWhrVRkRi2wm06Uw8caryWZ5AO0a1Josxuyixqj8yDMMwbwIBUUv4udHXnRxRa5zhcnwsQm+th2MDbxS/SeRRa+DschxjQ29hfTMOSEupJ/M349Nwwj8Qz9/1hCOfA2lBIWSFUqTf+QkHMrxxdvsIxSddDMMwDPMXeHW7W5hXojG3m75RWkpAWko9mb8Bj7SDvlh8xw7vdLdD5559MGDIcIwYPRGT3JzRu0vFNieGYRiG+YuwBX6zIEde3jNwBbmQKra0v/HkeXl4xhUgt5kHpKXUk/l7iY0soPPHIvQdPh2LVvtj44a1+Hj+DLz/ix3meXVo3I36DMMwDPOC2Badf1wpEs7vx89XklAgF8PIZigmz3aF3av65s8WqDThPPb/fAVJBXKIjWwwdPJsuDbDgLSUejL/jNK0cJw6cRkx6TKIjK3Ra8R4vNPtLba4ZxiGYf5ybIHPMAzDMAzDMK8RtkWHYRiGYRiGYV4jbIHPMAzDMAzDMK8RtsBnGIZhGIZhmNcIW+AzDMMwDMMwzGuELfAZhmEYhmEY5jXCFvgMwzAMwzAM8xphC3yGYRiGYRiGeY2wBT7DMAzDMAzDvEbYAp9hGIZhGIZhXiNsgc8wDMMwDMMwrxG2wGcYhmEYhmGY1whb4DMMwzAMwzDMa4Qt8BmGYRiGYRjmNcIW+AzDMAzDMAzzGmELfIZhGIZhGIZ5jbAFPsMwDMMwDMO8RtgCn2EYhmEYhmFeI2yBzzAMwzAMwzCvEbbAZxiGYRiGYZjXCFvgMwzDMAzDMMxrhC3wGYZhGIZhGOY1whb4DMMwDMMwDPMaYQt8hmEYhmEYhnmNsAU+wzAMwzAMw7xG2AKfYRiGYRiGYV4jbIHPMAzDMAzDMK+R/wfDP76IGFq1lgAAAABJRU5ErkJggg==;" vertex="1" parent="1">
          <mxGeometry x="300" y="-100" width="760" height="327" as="geometry" />
        </mxCell>
      </root>
    </mxGraphModel>
  </diagram>
</mxfile>
